<?xml version="1.0" encoding="UTF-8" standalone="no"?><svg xmlns="http://www.w3.org/2000/svg" xmlns:xlink="http://www.w3.org/1999/xlink" contentScriptType="application/ecmascript" contentStyleType="text/css" height="570px" preserveAspectRatio="none" style="width:284px;height:570px;" version="1.1" viewBox="0 0 284 570" width="284px" zoomAndPan="magnify"><defs><filter height="300%" id="f1fwzdshunk80r" width="300%" x="-1" y="-1"><feGaussianBlur result="blurOut" stdDeviation="2.0"/><feColorMatrix in="blurOut" result="blurOut2" type="matrix" values="0 0 0 0 0 0 0 0 0 0 0 0 0 0 0 0 0 0 .4 0"/><feOffset dx="4.0" dy="4.0" in="blurOut2" result="blurOut3"/><feBlend in="SourceGraphic" in2="blurOut3" mode="normal"/></filter></defs><g><!--class TicTacToe--><rect fill="#FEFECE" filter="url(#f1fwzdshunk80r)" height="103.3438" id="TicTacToe" style="stroke: #A80036; stroke-width: 1.5;" width="89" x="106" y="8"/><ellipse cx="121" cy="24" fill="#ADD1B2" rx="11" ry="11" style="stroke: #A80036; stroke-width: 1.0;"/><path d="M123.7656,19.875 Q123.9219,19.6563 124.1094,19.5469 Q124.2969,19.4375 124.5156,19.4375 Q124.8906,19.4375 125.125,19.6953 Q125.3594,19.9531 125.3594,20.5625 L125.3594,22.0156 Q125.3594,22.625 125.125,22.8906 Q124.8906,23.1563 124.5156,23.1563 Q124.1719,23.1563 123.9688,22.9531 Q123.7656,22.7656 123.6563,22.25 Q123.6094,21.8906 123.4219,21.7031 Q123.0938,21.3281 122.4844,21.1094 Q121.875,20.8906 121.25,20.8906 Q120.4844,20.8906 119.8516,21.2188 Q119.2188,21.5469 118.7266,22.2969 Q118.2344,23.0469 118.2344,24.0781 L118.2344,25.1719 Q118.2344,26.4063 119.125,27.2266 Q120.0156,28.0469 121.6094,28.0469 Q122.5469,28.0469 123.2031,27.7969 Q123.5938,27.6406 124.0156,27.2031 Q124.2813,26.9375 124.4297,26.8594 Q124.5781,26.7813 124.7813,26.7813 Q125.1094,26.7813 125.3672,27.0391 Q125.625,27.2969 125.625,27.6406 Q125.625,27.9844 125.2813,28.3906 Q124.7813,28.9688 123.9844,29.2969 Q122.9063,29.75 121.6094,29.75 Q120.0938,29.75 118.8906,29.125 Q117.9063,28.625 117.2188,27.5547 Q116.5313,26.4844 116.5313,25.2031 L116.5313,24.0469 Q116.5313,22.7188 117.1484,21.5703 Q117.7656,20.4219 118.8594,19.8047 Q119.9531,19.1875 121.1875,19.1875 Q121.9219,19.1875 122.5703,19.3516 Q123.2188,19.5156 123.7656,19.875 Z "/><text fill="#000000" font-family="sans-serif" font-size="12" lengthAdjust="spacingAndGlyphs" textLength="57" x="135" y="28.9102">TicTacToe</text><line style="stroke: #A80036; stroke-width: 1.5;" x1="107" x2="194" y1="40" y2="40"/><rect fill="none" height="6" style="stroke: #C82930; stroke-width: 1.0;" width="6" x="114" y="48"/><text fill="#000000" font-family="sans-serif" font-size="11" lengthAdjust="spacingAndGlyphs" textLength="29" x="126" y="55.4189">Board</text><rect fill="none" height="6" style="stroke: #C82930; stroke-width: 1.0;" width="6" x="114" y="61.8359"/><text fill="#000000" font-family="sans-serif" font-size="11" lengthAdjust="spacingAndGlyphs" textLength="36" x="126" y="69.2549">player1</text><rect fill="none" height="6" style="stroke: #C82930; stroke-width: 1.0;" width="6" x="114" y="75.6719"/><text fill="#000000" font-family="sans-serif" font-size="11" lengthAdjust="spacingAndGlyphs" textLength="36" x="126" y="83.0908">player2</text><line style="stroke: #A80036; stroke-width: 1.5;" x1="107" x2="194" y1="89.5078" y2="89.5078"/><ellipse cx="117" cy="100.5078" fill="#84BE84" rx="3" ry="3" style="stroke: #038048; stroke-width: 1.0;"/><text fill="#000000" font-family="sans-serif" font-size="11" lengthAdjust="spacingAndGlyphs" textLength="28" x="126" y="104.9268">play()</text><!--class Player--><rect fill="#FEFECE" filter="url(#f1fwzdshunk80r)" height="103.3438" id="Player" style="stroke: #A80036; stroke-width: 1.5;" width="128" x="145.5" y="171"/><ellipse cx="188.4" cy="187" fill="#ADD1B2" rx="11" ry="11" style="stroke: #A80036; stroke-width: 1.0;"/><path d="M191.1656,182.875 Q191.3219,182.6563 191.5094,182.5469 Q191.6969,182.4375 191.9156,182.4375 Q192.2906,182.4375 192.525,182.6953 Q192.7594,182.9531 192.7594,183.5625 L192.7594,185.0156 Q192.7594,185.625 192.525,185.8906 Q192.2906,186.1563 191.9156,186.1563 Q191.5719,186.1563 191.3688,185.9531 Q191.1656,185.7656 191.0563,185.25 Q191.0094,184.8906 190.8219,184.7031 Q190.4938,184.3281 189.8844,184.1094 Q189.275,183.8906 188.65,183.8906 Q187.8844,183.8906 187.2516,184.2188 Q186.6188,184.5469 186.1266,185.2969 Q185.6344,186.0469 185.6344,187.0781 L185.6344,188.1719 Q185.6344,189.4063 186.525,190.2266 Q187.4156,191.0469 189.0094,191.0469 Q189.9469,191.0469 190.6031,190.7969 Q190.9938,190.6406 191.4156,190.2031 Q191.6813,189.9375 191.8297,189.8594 Q191.9781,189.7813 192.1813,189.7813 Q192.5094,189.7813 192.7672,190.0391 Q193.025,190.2969 193.025,190.6406 Q193.025,190.9844 192.6813,191.3906 Q192.1813,191.9688 191.3844,192.2969 Q190.3063,192.75 189.0094,192.75 Q187.4938,192.75 186.2906,192.125 Q185.3063,191.625 184.6188,190.5547 Q183.9313,189.4844 183.9313,188.2031 L183.9313,187.0469 Q183.9313,185.7188 184.5484,184.5703 Q185.1656,183.4219 186.2594,182.8047 Q187.3531,182.1875 188.5875,182.1875 Q189.3219,182.1875 189.9703,182.3516 Q190.6188,182.5156 191.1656,182.875 Z "/><text fill="#000000" font-family="sans-serif" font-size="12" lengthAdjust="spacingAndGlyphs" textLength="34" x="208.6" y="191.9102">Player</text><line style="stroke: #A80036; stroke-width: 1.5;" x1="146.5" x2="272.5" y1="203" y2="203"/><rect fill="none" height="6" style="stroke: #C82930; stroke-width: 1.0;" width="6" x="153.5" y="211"/><text fill="#000000" font-family="sans-serif" font-size="11" lengthAdjust="spacingAndGlyphs" textLength="29" x="165.5" y="218.4189">Board</text><rect fill="none" height="6" style="stroke: #C82930; stroke-width: 1.0;" width="6" x="153.5" y="224.8359"/><text fill="#000000" font-family="sans-serif" font-size="11" lengthAdjust="spacingAndGlyphs" textLength="29" x="165.5" y="232.2549">Token</text><line style="stroke: #A80036; stroke-width: 1.5;" x1="146.5" x2="272.5" y1="238.6719" y2="238.6719"/><ellipse cx="156.5" cy="249.6719" fill="#84BE84" rx="3" ry="3" style="stroke: #038048; stroke-width: 1.0;"/><text fill="#000000" font-family="sans-serif" font-size="11" lengthAdjust="spacingAndGlyphs" textLength="102" x="165.5" y="254.0908">Player(Board, Token)</text><ellipse cx="156.5" cy="263.5078" fill="#84BE84" rx="3" ry="3" style="stroke: #038048; stroke-width: 1.0;"/><text fill="#000000" font-family="sans-serif" font-size="11" lengthAdjust="spacingAndGlyphs" textLength="34" x="165.5" y="267.9268">move()</text><!--class Board--><rect fill="#FEFECE" filter="url(#f1fwzdshunk80r)" height="117.1797" id="Board" style="stroke: #A80036; stroke-width: 1.5;" width="173" x="6" y="334"/><ellipse cx="71.75" cy="350" fill="#ADD1B2" rx="11" ry="11" style="stroke: #A80036; stroke-width: 1.0;"/><path d="M74.5156,345.875 Q74.6719,345.6563 74.8594,345.5469 Q75.0469,345.4375 75.2656,345.4375 Q75.6406,345.4375 75.875,345.6953 Q76.1094,345.9531 76.1094,346.5625 L76.1094,348.0156 Q76.1094,348.625 75.875,348.8906 Q75.6406,349.1563 75.2656,349.1563 Q74.9219,349.1563 74.7188,348.9531 Q74.5156,348.7656 74.4063,348.25 Q74.3594,347.8906 74.1719,347.7031 Q73.8438,347.3281 73.2344,347.1094 Q72.625,346.8906 72,346.8906 Q71.2344,346.8906 70.6016,347.2188 Q69.9688,347.5469 69.4766,348.2969 Q68.9844,349.0469 68.9844,350.0781 L68.9844,351.1719 Q68.9844,352.4063 69.875,353.2266 Q70.7656,354.0469 72.3594,354.0469 Q73.2969,354.0469 73.9531,353.7969 Q74.3438,353.6406 74.7656,353.2031 Q75.0313,352.9375 75.1797,352.8594 Q75.3281,352.7813 75.5313,352.7813 Q75.8594,352.7813 76.1172,353.0391 Q76.375,353.2969 76.375,353.6406 Q76.375,353.9844 76.0313,354.3906 Q75.5313,354.9688 74.7344,355.2969 Q73.6563,355.75 72.3594,355.75 Q70.8438,355.75 69.6406,355.125 Q68.6563,354.625 67.9688,353.5547 Q67.2813,352.4844 67.2813,351.2031 L67.2813,350.0469 Q67.2813,348.7188 67.8984,347.5703 Q68.5156,346.4219 69.6094,345.8047 Q70.7031,345.1875 71.9375,345.1875 Q72.6719,345.1875 73.3203,345.3516 Q73.9688,345.5156 74.5156,345.875 Z "/><text fill="#000000" font-family="sans-serif" font-size="12" lengthAdjust="spacingAndGlyphs" textLength="33" x="92.25" y="354.9102">Board</text><line style="stroke: #A80036; stroke-width: 1.5;" x1="7" x2="178" y1="366" y2="366"/><rect fill="none" height="6" style="stroke: #C82930; stroke-width: 1.0;" width="6" x="14" y="374"/><text fill="#000000" font-family="sans-serif" font-size="11" lengthAdjust="spacingAndGlyphs" textLength="53" x="26" y="381.4189">Token[3][3]</text><line style="stroke: #A80036; stroke-width: 1.5;" x1="7" x2="178" y1="387.8359" y2="387.8359"/><ellipse cx="17" cy="398.8359" fill="#84BE84" rx="3" ry="3" style="stroke: #038048; stroke-width: 1.0;"/><text fill="#000000" font-family="sans-serif" font-size="11" lengthAdjust="spacingAndGlyphs" textLength="147" x="26" y="403.2549">setToken(column, row, Token)</text><ellipse cx="17" cy="412.6719" fill="#84BE84" rx="3" ry="3" style="stroke: #038048; stroke-width: 1.0;"/><text fill="#000000" font-family="sans-serif" font-size="11" lengthAdjust="spacingAndGlyphs" textLength="33" x="26" y="417.0908">write()</text><ellipse cx="17" cy="426.5078" fill="#84BE84" rx="3" ry="3" style="stroke: #038048; stroke-width: 1.0;"/><text fill="#000000" font-family="sans-serif" font-size="11" lengthAdjust="spacingAndGlyphs" textLength="93" x="26" y="430.9268">hasThreeInARow()</text><ellipse cx="17" cy="440.3438" fill="#84BE84" rx="3" ry="3" style="stroke: #038048; stroke-width: 1.0;"/><text fill="#000000" font-family="sans-serif" font-size="11" lengthAdjust="spacingAndGlyphs" textLength="66" x="26" y="444.7627">isCompleted()</text><!--class Token--><rect fill="#FEFECE" filter="url(#f1fwzdshunk80r)" height="48" id="Token" style="stroke: #A80036; stroke-width: 1.5;" width="66" x="129.5" y="511"/><ellipse cx="144.5" cy="527" fill="#EB937F" rx="11" ry="11" style="stroke: #A80036; stroke-width: 1.0;"/><path d="M143.3594,527.7969 L143.3594,530.2969 L147.6875,530.2969 L147.6875,529.375 Q147.6875,528.7656 147.9297,528.5 Q148.1719,528.2344 148.5469,528.2344 Q148.9219,528.2344 149.1563,528.5 Q149.3906,528.7656 149.3906,529.375 L149.3906,532 L141.3906,532 Q140.7656,532 140.5078,531.7656 Q140.25,531.5313 140.25,531.1406 Q140.25,530.7656 140.5156,530.5313 Q140.7813,530.2969 141.3906,530.2969 L141.6563,530.2969 L141.6563,523.6406 L141.3906,523.6406 Q140.7656,523.6406 140.5078,523.4063 Q140.25,523.1719 140.25,522.7813 Q140.25,522.4063 140.5078,522.1719 Q140.7656,521.9375 141.3906,521.9375 L149.0156,521.9375 L149.0156,524.5313 Q149.0156,525.1406 148.7891,525.3984 Q148.5625,525.6563 148.1719,525.6563 Q147.7969,525.6563 147.5625,525.3984 Q147.3281,525.1406 147.3281,524.5313 L147.3281,523.6406 L143.3594,523.6406 L143.3594,526.0938 L144.8438,526.0938 Q144.8438,525.4375 144.9688,525.25 Q145.2344,524.8438 145.7031,524.8438 Q146.0781,524.8438 146.3125,525.1016 Q146.5469,525.3594 146.5469,525.9688 L146.5469,527.9375 Q146.5469,528.4844 146.4219,528.6719 Q146.1563,529.0625 145.7031,529.0625 Q145.2344,529.0625 144.9688,528.6563 Q144.8438,528.4688 144.8438,527.7969 L143.3594,527.7969 Z "/><text fill="#000000" font-family="sans-serif" font-size="12" lengthAdjust="spacingAndGlyphs" textLength="34" x="158.5" y="531.9102">Token</text><line style="stroke: #A80036; stroke-width: 1.5;" x1="130.5" x2="194.5" y1="543" y2="543"/><line style="stroke: #A80036; stroke-width: 1.5;" x1="130.5" x2="194.5" y1="551" y2="551"/><!--link Player to Board--><path d="M174.079,274.361 C162.05,291.633 148.471,311.132 135.892,329.193 " fill="none" id="Player-&gt;Board" style="stroke: #A80036; stroke-width: 1.0;"/><polygon fill="#A80036" points="132.717,333.752,141.1427,328.6522,135.5743,329.6489,134.5777,324.0805,132.717,333.752" style="stroke: #A80036; stroke-width: 1.0;"/><!--link TicTacToe to Board--><path d="M137.0002,122.7558 C137.0002,122.7558 130.288,155.795 127.5,171 C118.347,220.926 109.4,277.472 102.8429,320.801 " fill="none" id="TicTacToe-Board" style="stroke: #A80036; stroke-width: 1.0;"/><polygon fill="#A80036" points="100.8872,333.802,106.1819,325.4974,101.6312,328.8577,98.2709,324.307,100.8872,333.802" style="stroke: #A80036; stroke-width: 1.0;"/><line style="stroke: #A80036; stroke-width: 1.0;" x1="101.6312" x2="102.8209" y1="328.8577" y2="320.947"/><polygon fill="#A80036" points="139.457,111.01,134.3133,116.064,137.0002,122.7558,142.1439,117.7018,139.457,111.01" style="stroke: #A80036; stroke-width: 1.0;"/><!--link TicTacToe to Player--><path d="M173.297,122.7083 C173.297,122.7083 182.275,147.209 186.48,158.684 " fill="none" id="TicTacToe-Player" style="stroke: #A80036; stroke-width: 1.0;"/><polygon fill="#A80036" points="190.953,170.89,191.612,161.0632,189.2326,166.1953,184.1005,163.8159,190.953,170.89" style="stroke: #A80036; stroke-width: 1.0;"/><line style="stroke: #A80036; stroke-width: 1.0;" x1="189.2326" x2="186.48" y1="166.1953" y2="158.6835"/><polygon fill="#A80036" points="169.168,111.441,167.4767,118.451,173.297,122.7083,174.9882,115.6983,169.168,111.441" style="stroke: #A80036; stroke-width: 1.0;"/><text fill="#000000" font-family="sans-serif" font-size="13" lengthAdjust="spacingAndGlyphs" textLength="7" x="180.8526" y="160.003">2</text><!--link Board to Token--><path d="M126.5254,461.7927 C126.5254,461.7927 139.595,488.0259 145.078,499.031 " fill="none" id="Board-Token" style="stroke: #A80036; stroke-width: 1.0;"/><polygon fill="#A80036" points="150.896,510.7081,150.4627,500.8688,148.6663,506.2328,143.3022,504.4364,150.896,510.7081" style="stroke: #A80036; stroke-width: 1.0;"/><line style="stroke: #A80036; stroke-width: 1.0;" x1="148.6663" x2="145.0985" y1="506.2328" y2="499.0724"/><polygon fill="#FFFFFF" points="121.174,451.052,120.2694,458.2061,126.5254,461.7927,127.4299,454.6386,121.174,451.052" style="stroke: #A80036; stroke-width: 1.0;"/><!--link Player to Token--><path d="M211.363,274.318 C211.951,320.869 210.014,391.391 196.5,451 C192.194,469.9926 183.981,490.237 176.706,505.9774 " fill="none" id="Player-&gt;Token" style="stroke: #A80036; stroke-width: 1.0; stroke-dasharray: 7.0,7.0;"/><polygon fill="#A80036" points="174.484,510.7114,181.929,504.2637,176.6084,506.1852,174.687,500.8646,174.484,510.7114" style="stroke: #A80036; stroke-width: 1.0;"/><!--
@startuml
class TicTacToe {
    -Board
    -player1
    -player2
    +play()
}

class Player {
    -Board
    -Token
    +Player(Board, Token)
    +move()
}

class Board {
    -Token[3][3]
    +setToken(column, row, Token)
    +write()
    +hasThreeInARow()
    +isCompleted()
}

enum Token

Player - -> Board

TicTacToe *- -> Board

TicTacToe *- -> "2" Player

Board o- -> Token

Player ..> Token

@enduml

PlantUML version 1.2019.09(Mon Aug 26 18:19:51 CEST 2019)
(GPL source distribution)
Java Runtime: OpenJDK Runtime Environment
JVM: OpenJDK 64-Bit Server VM
Java Version: 1.8.0_222-b10
Operating System: Windows 10
OS Version: 10.0
Default Encoding: Cp1252
Language: es
Country: ES
--></g></svg>