<?xml version="1.0" encoding="UTF-8" standalone="no"?><svg xmlns="http://www.w3.org/2000/svg" xmlns:xlink="http://www.w3.org/1999/xlink" contentScriptType="application/ecmascript" contentStyleType="text/css" height="391px" preserveAspectRatio="none" style="width:1072px;height:391px;" version="1.1" viewBox="0 0 1072 391" width="1072px" zoomAndPan="magnify"><defs><filter height="300%" id="frvyzvgw8agqu" width="300%" x="-1" y="-1"><feGaussianBlur result="blurOut" stdDeviation="2.0"/><feColorMatrix in="blurOut" result="blurOut2" type="matrix" values="0 0 0 0 0 0 0 0 0 0 0 0 0 0 0 0 0 0 .4 0"/><feOffset dx="4.0" dy="4.0" in="blurOut2" result="blurOut3"/><feBlend in="SourceGraphic" in2="blurOut3" mode="normal"/></filter></defs><g><!--class MasterMind--><rect fill="#FEFECE" filter="url(#frvyzvgw8agqu)" height="48" id="MasterMind" style="stroke: #A80036; stroke-width: 1.5;" width="95" x="500" y="8"/><ellipse cx="515" cy="24" fill="#ADD1B2" rx="11" ry="11" style="stroke: #A80036; stroke-width: 1.0;"/><path d="M517.7656,19.875 Q517.9219,19.6563 518.1094,19.5469 Q518.2969,19.4375 518.5156,19.4375 Q518.8906,19.4375 519.125,19.6953 Q519.3594,19.9531 519.3594,20.5625 L519.3594,22.0156 Q519.3594,22.625 519.125,22.8906 Q518.8906,23.1563 518.5156,23.1563 Q518.1719,23.1563 517.9688,22.9531 Q517.7656,22.7656 517.6563,22.25 Q517.6094,21.8906 517.4219,21.7031 Q517.0938,21.3281 516.4844,21.1094 Q515.875,20.8906 515.25,20.8906 Q514.4844,20.8906 513.8516,21.2188 Q513.2188,21.5469 512.7266,22.2969 Q512.2344,23.0469 512.2344,24.0781 L512.2344,25.1719 Q512.2344,26.4063 513.125,27.2266 Q514.0156,28.0469 515.6094,28.0469 Q516.5469,28.0469 517.2031,27.7969 Q517.5938,27.6406 518.0156,27.2031 Q518.2813,26.9375 518.4297,26.8594 Q518.5781,26.7813 518.7813,26.7813 Q519.1094,26.7813 519.3672,27.0391 Q519.625,27.2969 519.625,27.6406 Q519.625,27.9844 519.2813,28.3906 Q518.7813,28.9688 517.9844,29.2969 Q516.9063,29.75 515.6094,29.75 Q514.0938,29.75 512.8906,29.125 Q511.9063,28.625 511.2188,27.5547 Q510.5313,26.4844 510.5313,25.2031 L510.5313,24.0469 Q510.5313,22.7188 511.1484,21.5703 Q511.7656,20.4219 512.8594,19.8047 Q513.9531,19.1875 515.1875,19.1875 Q515.9219,19.1875 516.5703,19.3516 Q517.2188,19.5156 517.7656,19.875 Z "/><text fill="#000000" font-family="sans-serif" font-size="12" lengthAdjust="spacingAndGlyphs" textLength="63" x="529" y="28.9102">MasterMind</text><line style="stroke: #A80036; stroke-width: 1.5;" x1="501" x2="594" y1="40" y2="40"/><line style="stroke: #A80036; stroke-width: 1.5;" x1="501" x2="594" y1="48" y2="48"/><!--class Logic--><rect fill="#FEFECE" filter="url(#frvyzvgw8agqu)" height="48" id="Logic" style="stroke: #A80036; stroke-width: 1.5;" width="62" x="369.5" y="224"/><ellipse cx="384.5" cy="240" fill="#ADD1B2" rx="11" ry="11" style="stroke: #A80036; stroke-width: 1.0;"/><path d="M387.2656,235.875 Q387.4219,235.6563 387.6094,235.5469 Q387.7969,235.4375 388.0156,235.4375 Q388.3906,235.4375 388.625,235.6953 Q388.8594,235.9531 388.8594,236.5625 L388.8594,238.0156 Q388.8594,238.625 388.625,238.8906 Q388.3906,239.1563 388.0156,239.1563 Q387.6719,239.1563 387.4688,238.9531 Q387.2656,238.7656 387.1563,238.25 Q387.1094,237.8906 386.9219,237.7031 Q386.5938,237.3281 385.9844,237.1094 Q385.375,236.8906 384.75,236.8906 Q383.9844,236.8906 383.3516,237.2188 Q382.7188,237.5469 382.2266,238.2969 Q381.7344,239.0469 381.7344,240.0781 L381.7344,241.1719 Q381.7344,242.4063 382.625,243.2266 Q383.5156,244.0469 385.1094,244.0469 Q386.0469,244.0469 386.7031,243.7969 Q387.0938,243.6406 387.5156,243.2031 Q387.7813,242.9375 387.9297,242.8594 Q388.0781,242.7813 388.2813,242.7813 Q388.6094,242.7813 388.8672,243.0391 Q389.125,243.2969 389.125,243.6406 Q389.125,243.9844 388.7813,244.3906 Q388.2813,244.9688 387.4844,245.2969 Q386.4063,245.75 385.1094,245.75 Q383.5938,245.75 382.3906,245.125 Q381.4063,244.625 380.7188,243.5547 Q380.0313,242.4844 380.0313,241.2031 L380.0313,240.0469 Q380.0313,238.7188 380.6484,237.5703 Q381.2656,236.4219 382.3594,235.8047 Q383.4531,235.1875 384.6875,235.1875 Q385.4219,235.1875 386.0703,235.3516 Q386.7188,235.5156 387.2656,235.875 Z "/><text fill="#000000" font-family="sans-serif" font-size="12" lengthAdjust="spacingAndGlyphs" textLength="30" x="398.5" y="244.9102">Logic</text><line style="stroke: #A80036; stroke-width: 1.5;" x1="370.5" x2="430.5" y1="256" y2="256"/><line style="stroke: #A80036; stroke-width: 1.5;" x1="370.5" x2="430.5" y1="264" y2="264"/><!--class View--><rect fill="#FEFECE" filter="url(#frvyzvgw8agqu)" height="48" id="View" style="stroke: #A80036; stroke-width: 1.5;" width="58" x="572.5" y="116"/><ellipse cx="587.5" cy="132" fill="#B4A7E5" rx="11" ry="11" style="stroke: #A80036; stroke-width: 1.0;"/><path d="M588.4531,128.6406 L588.4531,135.2969 L590.1719,135.2969 Q590.7813,135.2969 591.0469,135.5313 Q591.3125,135.7656 591.3125,136.1563 Q591.3125,136.5313 591.0469,136.7656 Q590.7813,137 590.1719,137 L585.0313,137 Q584.4219,137 584.1563,136.7656 Q583.8906,136.5313 583.8906,136.1406 Q583.8906,135.7656 584.1563,135.5313 Q584.4219,135.2969 585.0313,135.2969 L586.75,135.2969 L586.75,128.6406 L585.0313,128.6406 Q584.4219,128.6406 584.1563,128.4063 Q583.8906,128.1719 583.8906,127.7813 Q583.8906,127.4063 584.1563,127.1719 Q584.4219,126.9375 585.0313,126.9375 L590.1719,126.9375 Q590.7813,126.9375 591.0469,127.1719 Q591.3125,127.4063 591.3125,127.7813 Q591.3125,128.1719 591.0469,128.4063 Q590.7813,128.6406 590.1719,128.6406 L588.4531,128.6406 Z "/><text fill="#000000" font-family="sans-serif" font-size="12" font-style="italic" lengthAdjust="spacingAndGlyphs" textLength="26" x="601.5" y="136.9102">View</text><line style="stroke: #A80036; stroke-width: 1.5;" x1="573.5" x2="629.5" y1="148" y2="148"/><line style="stroke: #A80036; stroke-width: 1.5;" x1="573.5" x2="629.5" y1="156" y2="156"/><!--class Controller--><rect fill="#FEFECE" filter="url(#frvyzvgw8agqu)" height="48" id="Controller" style="stroke: #A80036; stroke-width: 1.5;" width="86" x="479.5" y="224"/><ellipse cx="494.5" cy="240" fill="#ADD1B2" rx="11" ry="11" style="stroke: #A80036; stroke-width: 1.0;"/><path d="M497.2656,235.875 Q497.4219,235.6563 497.6094,235.5469 Q497.7969,235.4375 498.0156,235.4375 Q498.3906,235.4375 498.625,235.6953 Q498.8594,235.9531 498.8594,236.5625 L498.8594,238.0156 Q498.8594,238.625 498.625,238.8906 Q498.3906,239.1563 498.0156,239.1563 Q497.6719,239.1563 497.4688,238.9531 Q497.2656,238.7656 497.1563,238.25 Q497.1094,237.8906 496.9219,237.7031 Q496.5938,237.3281 495.9844,237.1094 Q495.375,236.8906 494.75,236.8906 Q493.9844,236.8906 493.3516,237.2188 Q492.7188,237.5469 492.2266,238.2969 Q491.7344,239.0469 491.7344,240.0781 L491.7344,241.1719 Q491.7344,242.4063 492.625,243.2266 Q493.5156,244.0469 495.1094,244.0469 Q496.0469,244.0469 496.7031,243.7969 Q497.0938,243.6406 497.5156,243.2031 Q497.7813,242.9375 497.9297,242.8594 Q498.0781,242.7813 498.2813,242.7813 Q498.6094,242.7813 498.8672,243.0391 Q499.125,243.2969 499.125,243.6406 Q499.125,243.9844 498.7813,244.3906 Q498.2813,244.9688 497.4844,245.2969 Q496.4063,245.75 495.1094,245.75 Q493.5938,245.75 492.3906,245.125 Q491.4063,244.625 490.7188,243.5547 Q490.0313,242.4844 490.0313,241.2031 L490.0313,240.0469 Q490.0313,238.7188 490.6484,237.5703 Q491.2656,236.4219 492.3594,235.8047 Q493.4531,235.1875 494.6875,235.1875 Q495.4219,235.1875 496.0703,235.3516 Q496.7188,235.5156 497.2656,235.875 Z "/><text fill="#000000" font-family="sans-serif" font-size="12" lengthAdjust="spacingAndGlyphs" textLength="54" x="508.5" y="244.9102">Controller</text><line style="stroke: #A80036; stroke-width: 1.5;" x1="480.5" x2="564.5" y1="256" y2="256"/><line style="stroke: #A80036; stroke-width: 1.5;" x1="480.5" x2="564.5" y1="264" y2="264"/><!--class ConsoleView--><rect fill="#FEFECE" filter="url(#frvyzvgw8agqu)" height="48" id="ConsoleView" style="stroke: #A80036; stroke-width: 1.5;" width="105" x="835" y="224"/><ellipse cx="850" cy="240" fill="#ADD1B2" rx="11" ry="11" style="stroke: #A80036; stroke-width: 1.0;"/><path d="M852.7656,235.875 Q852.9219,235.6563 853.1094,235.5469 Q853.2969,235.4375 853.5156,235.4375 Q853.8906,235.4375 854.125,235.6953 Q854.3594,235.9531 854.3594,236.5625 L854.3594,238.0156 Q854.3594,238.625 854.125,238.8906 Q853.8906,239.1563 853.5156,239.1563 Q853.1719,239.1563 852.9688,238.9531 Q852.7656,238.7656 852.6563,238.25 Q852.6094,237.8906 852.4219,237.7031 Q852.0938,237.3281 851.4844,237.1094 Q850.875,236.8906 850.25,236.8906 Q849.4844,236.8906 848.8516,237.2188 Q848.2188,237.5469 847.7266,238.2969 Q847.2344,239.0469 847.2344,240.0781 L847.2344,241.1719 Q847.2344,242.4063 848.125,243.2266 Q849.0156,244.0469 850.6094,244.0469 Q851.5469,244.0469 852.2031,243.7969 Q852.5938,243.6406 853.0156,243.2031 Q853.2813,242.9375 853.4297,242.8594 Q853.5781,242.7813 853.7813,242.7813 Q854.1094,242.7813 854.3672,243.0391 Q854.625,243.2969 854.625,243.6406 Q854.625,243.9844 854.2813,244.3906 Q853.7813,244.9688 852.9844,245.2969 Q851.9063,245.75 850.6094,245.75 Q849.0938,245.75 847.8906,245.125 Q846.9063,244.625 846.2188,243.5547 Q845.5313,242.4844 845.5313,241.2031 L845.5313,240.0469 Q845.5313,238.7188 846.1484,237.5703 Q846.7656,236.4219 847.8594,235.8047 Q848.9531,235.1875 850.1875,235.1875 Q850.9219,235.1875 851.5703,235.3516 Q852.2188,235.5156 852.7656,235.875 Z "/><text fill="#000000" font-family="sans-serif" font-size="12" lengthAdjust="spacingAndGlyphs" textLength="73" x="864" y="244.9102">ConsoleView</text><line style="stroke: #A80036; stroke-width: 1.5;" x1="836" x2="939" y1="256" y2="256"/><line style="stroke: #A80036; stroke-width: 1.5;" x1="836" x2="939" y1="264" y2="264"/><!--class GameView--><rect fill="#FEFECE" filter="url(#frvyzvgw8agqu)" height="48" id="GameView" style="stroke: #A80036; stroke-width: 1.5;" width="92" x="969.5" y="332"/><ellipse cx="984.5" cy="348" fill="#ADD1B2" rx="11" ry="11" style="stroke: #A80036; stroke-width: 1.0;"/><path d="M987.2656,343.875 Q987.4219,343.6563 987.6094,343.5469 Q987.7969,343.4375 988.0156,343.4375 Q988.3906,343.4375 988.625,343.6953 Q988.8594,343.9531 988.8594,344.5625 L988.8594,346.0156 Q988.8594,346.625 988.625,346.8906 Q988.3906,347.1563 988.0156,347.1563 Q987.6719,347.1563 987.4688,346.9531 Q987.2656,346.7656 987.1563,346.25 Q987.1094,345.8906 986.9219,345.7031 Q986.5938,345.3281 985.9844,345.1094 Q985.375,344.8906 984.75,344.8906 Q983.9844,344.8906 983.3516,345.2188 Q982.7188,345.5469 982.2266,346.2969 Q981.7344,347.0469 981.7344,348.0781 L981.7344,349.1719 Q981.7344,350.4063 982.625,351.2266 Q983.5156,352.0469 985.1094,352.0469 Q986.0469,352.0469 986.7031,351.7969 Q987.0938,351.6406 987.5156,351.2031 Q987.7813,350.9375 987.9297,350.8594 Q988.0781,350.7813 988.2813,350.7813 Q988.6094,350.7813 988.8672,351.0391 Q989.125,351.2969 989.125,351.6406 Q989.125,351.9844 988.7813,352.3906 Q988.2813,352.9688 987.4844,353.2969 Q986.4063,353.75 985.1094,353.75 Q983.5938,353.75 982.3906,353.125 Q981.4063,352.625 980.7188,351.5547 Q980.0313,350.4844 980.0313,349.2031 L980.0313,348.0469 Q980.0313,346.7188 980.6484,345.5703 Q981.2656,344.4219 982.3594,343.8047 Q983.4531,343.1875 984.6875,343.1875 Q985.4219,343.1875 986.0703,343.3516 Q986.7188,343.5156 987.2656,343.875 Z "/><text fill="#000000" font-family="sans-serif" font-size="12" lengthAdjust="spacingAndGlyphs" textLength="60" x="998.5" y="352.9102">GameView</text><line style="stroke: #A80036; stroke-width: 1.5;" x1="970.5" x2="1060.5" y1="364" y2="364"/><line style="stroke: #A80036; stroke-width: 1.5;" x1="970.5" x2="1060.5" y1="372" y2="372"/><!--class ResultView--><rect fill="#FEFECE" filter="url(#frvyzvgw8agqu)" height="48" id="ResultView" style="stroke: #A80036; stroke-width: 1.5;" width="94" x="840.5" y="332"/><ellipse cx="855.5" cy="348" fill="#ADD1B2" rx="11" ry="11" style="stroke: #A80036; stroke-width: 1.0;"/><path d="M858.2656,343.875 Q858.4219,343.6563 858.6094,343.5469 Q858.7969,343.4375 859.0156,343.4375 Q859.3906,343.4375 859.625,343.6953 Q859.8594,343.9531 859.8594,344.5625 L859.8594,346.0156 Q859.8594,346.625 859.625,346.8906 Q859.3906,347.1563 859.0156,347.1563 Q858.6719,347.1563 858.4688,346.9531 Q858.2656,346.7656 858.1563,346.25 Q858.1094,345.8906 857.9219,345.7031 Q857.5938,345.3281 856.9844,345.1094 Q856.375,344.8906 855.75,344.8906 Q854.9844,344.8906 854.3516,345.2188 Q853.7188,345.5469 853.2266,346.2969 Q852.7344,347.0469 852.7344,348.0781 L852.7344,349.1719 Q852.7344,350.4063 853.625,351.2266 Q854.5156,352.0469 856.1094,352.0469 Q857.0469,352.0469 857.7031,351.7969 Q858.0938,351.6406 858.5156,351.2031 Q858.7813,350.9375 858.9297,350.8594 Q859.0781,350.7813 859.2813,350.7813 Q859.6094,350.7813 859.8672,351.0391 Q860.125,351.2969 860.125,351.6406 Q860.125,351.9844 859.7813,352.3906 Q859.2813,352.9688 858.4844,353.2969 Q857.4063,353.75 856.1094,353.75 Q854.5938,353.75 853.3906,353.125 Q852.4063,352.625 851.7188,351.5547 Q851.0313,350.4844 851.0313,349.2031 L851.0313,348.0469 Q851.0313,346.7188 851.6484,345.5703 Q852.2656,344.4219 853.3594,343.8047 Q854.4531,343.1875 855.6875,343.1875 Q856.4219,343.1875 857.0703,343.3516 Q857.7188,343.5156 858.2656,343.875 Z "/><text fill="#000000" font-family="sans-serif" font-size="12" lengthAdjust="spacingAndGlyphs" textLength="62" x="869.5" y="352.9102">ResultView</text><line style="stroke: #A80036; stroke-width: 1.5;" x1="841.5" x2="933.5" y1="364" y2="364"/><line style="stroke: #A80036; stroke-width: 1.5;" x1="841.5" x2="933.5" y1="372" y2="372"/><!--class StartController--><rect fill="#FEFECE" filter="url(#frvyzvgw8agqu)" height="48" id="StartController" style="stroke: #A80036; stroke-width: 1.5;" width="111" x="6" y="332"/><ellipse cx="21" cy="348" fill="#ADD1B2" rx="11" ry="11" style="stroke: #A80036; stroke-width: 1.0;"/><path d="M23.7656,343.875 Q23.9219,343.6563 24.1094,343.5469 Q24.2969,343.4375 24.5156,343.4375 Q24.8906,343.4375 25.125,343.6953 Q25.3594,343.9531 25.3594,344.5625 L25.3594,346.0156 Q25.3594,346.625 25.125,346.8906 Q24.8906,347.1563 24.5156,347.1563 Q24.1719,347.1563 23.9688,346.9531 Q23.7656,346.7656 23.6563,346.25 Q23.6094,345.8906 23.4219,345.7031 Q23.0938,345.3281 22.4844,345.1094 Q21.875,344.8906 21.25,344.8906 Q20.4844,344.8906 19.8516,345.2188 Q19.2188,345.5469 18.7266,346.2969 Q18.2344,347.0469 18.2344,348.0781 L18.2344,349.1719 Q18.2344,350.4063 19.125,351.2266 Q20.0156,352.0469 21.6094,352.0469 Q22.5469,352.0469 23.2031,351.7969 Q23.5938,351.6406 24.0156,351.2031 Q24.2813,350.9375 24.4297,350.8594 Q24.5781,350.7813 24.7813,350.7813 Q25.1094,350.7813 25.3672,351.0391 Q25.625,351.2969 25.625,351.6406 Q25.625,351.9844 25.2813,352.3906 Q24.7813,352.9688 23.9844,353.2969 Q22.9063,353.75 21.6094,353.75 Q20.0938,353.75 18.8906,353.125 Q17.9063,352.625 17.2188,351.5547 Q16.5313,350.4844 16.5313,349.2031 L16.5313,348.0469 Q16.5313,346.7188 17.1484,345.5703 Q17.7656,344.4219 18.8594,343.8047 Q19.9531,343.1875 21.1875,343.1875 Q21.9219,343.1875 22.5703,343.3516 Q23.2188,343.5156 23.7656,343.875 Z "/><text fill="#000000" font-family="sans-serif" font-size="12" lengthAdjust="spacingAndGlyphs" textLength="79" x="35" y="352.9102">StartController</text><line style="stroke: #A80036; stroke-width: 1.5;" x1="7" x2="116" y1="364" y2="364"/><line style="stroke: #A80036; stroke-width: 1.5;" x1="7" x2="116" y1="372" y2="372"/><!--class ProposeController--><rect fill="#FEFECE" filter="url(#frvyzvgw8agqu)" height="48" id="ProposeController" style="stroke: #A80036; stroke-width: 1.5;" width="133" x="152" y="332"/><ellipse cx="167" cy="348" fill="#ADD1B2" rx="11" ry="11" style="stroke: #A80036; stroke-width: 1.0;"/><path d="M169.7656,343.875 Q169.9219,343.6563 170.1094,343.5469 Q170.2969,343.4375 170.5156,343.4375 Q170.8906,343.4375 171.125,343.6953 Q171.3594,343.9531 171.3594,344.5625 L171.3594,346.0156 Q171.3594,346.625 171.125,346.8906 Q170.8906,347.1563 170.5156,347.1563 Q170.1719,347.1563 169.9688,346.9531 Q169.7656,346.7656 169.6563,346.25 Q169.6094,345.8906 169.4219,345.7031 Q169.0938,345.3281 168.4844,345.1094 Q167.875,344.8906 167.25,344.8906 Q166.4844,344.8906 165.8516,345.2188 Q165.2188,345.5469 164.7266,346.2969 Q164.2344,347.0469 164.2344,348.0781 L164.2344,349.1719 Q164.2344,350.4063 165.125,351.2266 Q166.0156,352.0469 167.6094,352.0469 Q168.5469,352.0469 169.2031,351.7969 Q169.5938,351.6406 170.0156,351.2031 Q170.2813,350.9375 170.4297,350.8594 Q170.5781,350.7813 170.7813,350.7813 Q171.1094,350.7813 171.3672,351.0391 Q171.625,351.2969 171.625,351.6406 Q171.625,351.9844 171.2813,352.3906 Q170.7813,352.9688 169.9844,353.2969 Q168.9063,353.75 167.6094,353.75 Q166.0938,353.75 164.8906,353.125 Q163.9063,352.625 163.2188,351.5547 Q162.5313,350.4844 162.5313,349.2031 L162.5313,348.0469 Q162.5313,346.7188 163.1484,345.5703 Q163.7656,344.4219 164.8594,343.8047 Q165.9531,343.1875 167.1875,343.1875 Q167.9219,343.1875 168.5703,343.3516 Q169.2188,343.5156 169.7656,343.875 Z "/><text fill="#000000" font-family="sans-serif" font-size="12" lengthAdjust="spacingAndGlyphs" textLength="101" x="181" y="352.9102">ProposeController</text><line style="stroke: #A80036; stroke-width: 1.5;" x1="153" x2="284" y1="364" y2="364"/><line style="stroke: #A80036; stroke-width: 1.5;" x1="153" x2="284" y1="372" y2="372"/><!--class ResumeController--><rect fill="#FEFECE" filter="url(#frvyzvgw8agqu)" height="48" id="ResumeController" style="stroke: #A80036; stroke-width: 1.5;" width="134" x="320.5" y="332"/><ellipse cx="335.5" cy="348" fill="#ADD1B2" rx="11" ry="11" style="stroke: #A80036; stroke-width: 1.0;"/><path d="M338.2656,343.875 Q338.4219,343.6563 338.6094,343.5469 Q338.7969,343.4375 339.0156,343.4375 Q339.3906,343.4375 339.625,343.6953 Q339.8594,343.9531 339.8594,344.5625 L339.8594,346.0156 Q339.8594,346.625 339.625,346.8906 Q339.3906,347.1563 339.0156,347.1563 Q338.6719,347.1563 338.4688,346.9531 Q338.2656,346.7656 338.1563,346.25 Q338.1094,345.8906 337.9219,345.7031 Q337.5938,345.3281 336.9844,345.1094 Q336.375,344.8906 335.75,344.8906 Q334.9844,344.8906 334.3516,345.2188 Q333.7188,345.5469 333.2266,346.2969 Q332.7344,347.0469 332.7344,348.0781 L332.7344,349.1719 Q332.7344,350.4063 333.625,351.2266 Q334.5156,352.0469 336.1094,352.0469 Q337.0469,352.0469 337.7031,351.7969 Q338.0938,351.6406 338.5156,351.2031 Q338.7813,350.9375 338.9297,350.8594 Q339.0781,350.7813 339.2813,350.7813 Q339.6094,350.7813 339.8672,351.0391 Q340.125,351.2969 340.125,351.6406 Q340.125,351.9844 339.7813,352.3906 Q339.2813,352.9688 338.4844,353.2969 Q337.4063,353.75 336.1094,353.75 Q334.5938,353.75 333.3906,353.125 Q332.4063,352.625 331.7188,351.5547 Q331.0313,350.4844 331.0313,349.2031 L331.0313,348.0469 Q331.0313,346.7188 331.6484,345.5703 Q332.2656,344.4219 333.3594,343.8047 Q334.4531,343.1875 335.6875,343.1875 Q336.4219,343.1875 337.0703,343.3516 Q337.7188,343.5156 338.2656,343.875 Z "/><text fill="#000000" font-family="sans-serif" font-size="12" lengthAdjust="spacingAndGlyphs" textLength="102" x="349.5" y="352.9102">ResumeController</text><line style="stroke: #A80036; stroke-width: 1.5;" x1="321.5" x2="453.5" y1="364" y2="364"/><line style="stroke: #A80036; stroke-width: 1.5;" x1="321.5" x2="453.5" y1="372" y2="372"/><!--class Game--><rect fill="#FEFECE" filter="url(#frvyzvgw8agqu)" height="48" id="Game" style="stroke: #A80036; stroke-width: 1.5;" width="66" x="489.5" y="332"/><ellipse cx="504.5" cy="348" fill="#ADD1B2" rx="11" ry="11" style="stroke: #A80036; stroke-width: 1.0;"/><path d="M507.2656,343.875 Q507.4219,343.6563 507.6094,343.5469 Q507.7969,343.4375 508.0156,343.4375 Q508.3906,343.4375 508.625,343.6953 Q508.8594,343.9531 508.8594,344.5625 L508.8594,346.0156 Q508.8594,346.625 508.625,346.8906 Q508.3906,347.1563 508.0156,347.1563 Q507.6719,347.1563 507.4688,346.9531 Q507.2656,346.7656 507.1563,346.25 Q507.1094,345.8906 506.9219,345.7031 Q506.5938,345.3281 505.9844,345.1094 Q505.375,344.8906 504.75,344.8906 Q503.9844,344.8906 503.3516,345.2188 Q502.7188,345.5469 502.2266,346.2969 Q501.7344,347.0469 501.7344,348.0781 L501.7344,349.1719 Q501.7344,350.4063 502.625,351.2266 Q503.5156,352.0469 505.1094,352.0469 Q506.0469,352.0469 506.7031,351.7969 Q507.0938,351.6406 507.5156,351.2031 Q507.7813,350.9375 507.9297,350.8594 Q508.0781,350.7813 508.2813,350.7813 Q508.6094,350.7813 508.8672,351.0391 Q509.125,351.2969 509.125,351.6406 Q509.125,351.9844 508.7813,352.3906 Q508.2813,352.9688 507.4844,353.2969 Q506.4063,353.75 505.1094,353.75 Q503.5938,353.75 502.3906,353.125 Q501.4063,352.625 500.7188,351.5547 Q500.0313,350.4844 500.0313,349.2031 L500.0313,348.0469 Q500.0313,346.7188 500.6484,345.5703 Q501.2656,344.4219 502.3594,343.8047 Q503.4531,343.1875 504.6875,343.1875 Q505.4219,343.1875 506.0703,343.3516 Q506.7188,343.5156 507.2656,343.875 Z "/><text fill="#000000" font-family="sans-serif" font-size="12" lengthAdjust="spacingAndGlyphs" textLength="34" x="518.5" y="352.9102">Game</text><line style="stroke: #A80036; stroke-width: 1.5;" x1="490.5" x2="554.5" y1="364" y2="364"/><line style="stroke: #A80036; stroke-width: 1.5;" x1="490.5" x2="554.5" y1="372" y2="372"/><!--class State--><rect fill="#FEFECE" filter="url(#frvyzvgw8agqu)" height="48" id="State" style="stroke: #A80036; stroke-width: 1.5;" width="60" x="590.5" y="332"/><ellipse cx="605.5" cy="348" fill="#ADD1B2" rx="11" ry="11" style="stroke: #A80036; stroke-width: 1.0;"/><path d="M608.2656,343.875 Q608.4219,343.6563 608.6094,343.5469 Q608.7969,343.4375 609.0156,343.4375 Q609.3906,343.4375 609.625,343.6953 Q609.8594,343.9531 609.8594,344.5625 L609.8594,346.0156 Q609.8594,346.625 609.625,346.8906 Q609.3906,347.1563 609.0156,347.1563 Q608.6719,347.1563 608.4688,346.9531 Q608.2656,346.7656 608.1563,346.25 Q608.1094,345.8906 607.9219,345.7031 Q607.5938,345.3281 606.9844,345.1094 Q606.375,344.8906 605.75,344.8906 Q604.9844,344.8906 604.3516,345.2188 Q603.7188,345.5469 603.2266,346.2969 Q602.7344,347.0469 602.7344,348.0781 L602.7344,349.1719 Q602.7344,350.4063 603.625,351.2266 Q604.5156,352.0469 606.1094,352.0469 Q607.0469,352.0469 607.7031,351.7969 Q608.0938,351.6406 608.5156,351.2031 Q608.7813,350.9375 608.9297,350.8594 Q609.0781,350.7813 609.2813,350.7813 Q609.6094,350.7813 609.8672,351.0391 Q610.125,351.2969 610.125,351.6406 Q610.125,351.9844 609.7813,352.3906 Q609.2813,352.9688 608.4844,353.2969 Q607.4063,353.75 606.1094,353.75 Q604.5938,353.75 603.3906,353.125 Q602.4063,352.625 601.7188,351.5547 Q601.0313,350.4844 601.0313,349.2031 L601.0313,348.0469 Q601.0313,346.7188 601.6484,345.5703 Q602.2656,344.4219 603.3594,343.8047 Q604.4531,343.1875 605.6875,343.1875 Q606.4219,343.1875 607.0703,343.3516 Q607.7188,343.5156 608.2656,343.875 Z "/><text fill="#000000" font-family="sans-serif" font-size="12" lengthAdjust="spacingAndGlyphs" textLength="28" x="619.5" y="352.9102">State</text><line style="stroke: #A80036; stroke-width: 1.5;" x1="591.5" x2="649.5" y1="364" y2="364"/><line style="stroke: #A80036; stroke-width: 1.5;" x1="591.5" x2="649.5" y1="372" y2="372"/><!--class ControllerVisitor--><rect fill="#FEFECE" filter="url(#frvyzvgw8agqu)" height="48" id="ControllerVisitor" style="stroke: #A80036; stroke-width: 1.5;" width="120" x="685.5" y="332"/><ellipse cx="700.5" cy="348" fill="#B4A7E5" rx="11" ry="11" style="stroke: #A80036; stroke-width: 1.0;"/><path d="M701.4531,344.6406 L701.4531,351.2969 L703.1719,351.2969 Q703.7813,351.2969 704.0469,351.5313 Q704.3125,351.7656 704.3125,352.1563 Q704.3125,352.5313 704.0469,352.7656 Q703.7813,353 703.1719,353 L698.0313,353 Q697.4219,353 697.1563,352.7656 Q696.8906,352.5313 696.8906,352.1406 Q696.8906,351.7656 697.1563,351.5313 Q697.4219,351.2969 698.0313,351.2969 L699.75,351.2969 L699.75,344.6406 L698.0313,344.6406 Q697.4219,344.6406 697.1563,344.4063 Q696.8906,344.1719 696.8906,343.7813 Q696.8906,343.4063 697.1563,343.1719 Q697.4219,342.9375 698.0313,342.9375 L703.1719,342.9375 Q703.7813,342.9375 704.0469,343.1719 Q704.3125,343.4063 704.3125,343.7813 Q704.3125,344.1719 704.0469,344.4063 Q703.7813,344.6406 703.1719,344.6406 L701.4531,344.6406 Z "/><text fill="#000000" font-family="sans-serif" font-size="12" font-style="italic" lengthAdjust="spacingAndGlyphs" textLength="88" x="714.5" y="352.9102">ControllerVisitor</text><line style="stroke: #A80036; stroke-width: 1.5;" x1="686.5" x2="804.5" y1="364" y2="364"/><line style="stroke: #A80036; stroke-width: 1.5;" x1="686.5" x2="804.5" y1="372" y2="372"/><!--link MasterMind to Logic--><path d="M524.6936,66.1995 C524.6936,66.1995 451.305,173.039 423.89,212.949 " fill="none" id="MasterMind-Logic" style="stroke: #A80036; stroke-width: 1.0;"/><polygon fill="#A80036" points="416.492,223.72,424.8846,218.566,419.3228,219.5985,418.2903,214.0367,416.492,223.72" style="stroke: #A80036; stroke-width: 1.0;"/><line style="stroke: #A80036; stroke-width: 1.0;" x1="419.3228" x2="423.8525" y1="219.5985" y2="213.004"/><polygon fill="#A80036" points="531.489,56.309,524.7944,58.9891,524.6936,66.1995,531.3881,63.5194,531.489,56.309" style="stroke: #A80036; stroke-width: 1.0;"/><!--link MasterMind to View--><path d="M564.6631,66.693 C564.6631,66.693 577.685,92.251 583.56,103.784 " fill="none" id="MasterMind-View" style="stroke: #A80036; stroke-width: 1.0;"/><polygon fill="#A80036" points="589.619,115.678,589.0983,105.8429,587.3496,111.2227,581.9698,109.474,589.619,115.678" style="stroke: #A80036; stroke-width: 1.0;"/><line style="stroke: #A80036; stroke-width: 1.0;" x1="587.3496" x2="583.718" y1="111.2227" y2="104.095"/><polygon fill="#A80036" points="559.217,56,558.3757,63.1619,564.6631,66.693,565.5044,59.5311,559.217,56" style="stroke: #A80036; stroke-width: 1.0;"/><!--link View to Controller--><path d="M584.358,164 C572.226,180.279 555.898,202.187 543.064,219.408 " fill="none" id="View-&gt;Controller" style="stroke: #A80036; stroke-width: 1.0; stroke-dasharray: 7.0,7.0;"/><polygon fill="#A80036" points="539.881,223.678,548.4661,218.8515,542.8686,219.6688,542.0514,214.0713,539.881,223.678" style="stroke: #A80036; stroke-width: 1.0;"/><!--reverse link View to ConsoleView--><path d="M649.816,158.907 C701.116,177.92 781.941,207.877 834.838,227.482 " fill="none" id="View&lt;-ConsoleView" style="stroke: #A80036; stroke-width: 1.0;"/><polygon fill="none" points="647.084,165.36,630.763,151.846,651.949,152.233,647.084,165.36" style="stroke: #A80036; stroke-width: 1.0;"/><!--link ConsoleView to GameView--><path d="M924.5162,279.6539 C924.5162,279.6539 960.746,309.6568 977.057,323.1644 " fill="none" id="ConsoleView-GameView" style="stroke: #A80036; stroke-width: 1.0;"/><polygon fill="#A80036" points="987.338,331.6784,982.9574,322.8574,983.487,328.4894,977.855,329.019,987.338,331.6784" style="stroke: #A80036; stroke-width: 1.0;"/><line style="stroke: #A80036; stroke-width: 1.0;" x1="983.487" x2="977.326" y1="328.4894" y2="323.3868"/><polygon fill="#A80036" points="915.274,272,917.3438,278.9077,924.5162,279.6539,922.4464,272.7462,915.274,272" style="stroke: #A80036; stroke-width: 1.0;"/><!--link ConsoleView to ResultView--><path d="M887.5,284 C887.5,284 887.5,307.6772 887.5,318.3638 " fill="none" id="ConsoleView-ResultView" style="stroke: #A80036; stroke-width: 1.0;"/><polygon fill="#A80036" points="887.5,331.6784,891.5,322.6784,887.5,326.6784,883.5,322.6784,887.5,331.6784" style="stroke: #A80036; stroke-width: 1.0;"/><line style="stroke: #A80036; stroke-width: 1.0;" x1="887.5" x2="887.5" y1="326.6784" y2="318.6785"/><polygon fill="#A80036" points="887.5,272,883.5,278,887.5,284,891.5,278,887.5,272" style="stroke: #A80036; stroke-width: 1.0;"/><!--reverse link Controller to StartController--><path d="M460.011,268.962 C456.129,270.035 452.269,271.057 448.5,272 C310.665,306.473 272.268,297.2598 134.5,332 C128.831,333.4296 122.954,335.0472 117.108,336.7459 " fill="none" id="Controller&lt;-StartController" style="stroke: #A80036; stroke-width: 1.0;"/><polygon fill="none" points="458.136,262.218,479.297,263.323,462.066,275.655,458.136,262.218" style="stroke: #A80036; stroke-width: 1.0;"/><!--reverse link Controller to ProposeController--><path d="M460.095,270.76 C408.912,288.6062 336.653,313.8019 284.512,331.9827 " fill="none" id="Controller&lt;-ProposeController" style="stroke: #A80036; stroke-width: 1.0;"/><polygon fill="none" points="458.077,264.05,479.267,264.075,462.687,277.269,458.077,264.05" style="stroke: #A80036; stroke-width: 1.0;"/><!--reverse link Controller to ResumeController--><path d="M477.413,284.4016 C457.587,299.9688 434.851,317.8209 417.202,331.6784 " fill="none" id="Controller&lt;-ResumeController" style="stroke: #A80036; stroke-width: 1.0;"/><polygon fill="none" points="473.154,278.846,493.207,272,481.8,289.8574,473.154,278.846" style="stroke: #A80036; stroke-width: 1.0;"/><!--link Logic to StartController--><path d="M357.9104,262.2499 C357.9104,262.2499 212.8,307.4492 134.5,332 C132.931,332.492 131.343,332.9901 129.742,333.4927 " fill="none" id="Logic-StartController" style="stroke: #A80036; stroke-width: 1.0;"/><polygon fill="#A80036" points="117.294,337.4036,127.0791,338.5227,122.0642,335.9052,124.6817,330.8903,117.294,337.4036" style="stroke: #A80036; stroke-width: 1.0;"/><line style="stroke: #A80036; stroke-width: 1.0;" x1="122.0642" x2="129.6965" y1="335.9052" y2="333.5069"/><polygon fill="#A80036" points="369.368,258.683,362.4502,256.6472,357.9104,262.2499,364.8282,264.2857,369.368,258.683" style="stroke: #A80036; stroke-width: 1.0;"/><!--link Logic to ProposeController--><path d="M358.8429,273.2603 C358.8429,273.2603 297.543,308.964 269.763,325.1436 " fill="none" id="Logic-ProposeController" style="stroke: #A80036; stroke-width: 1.0;"/><polygon fill="#A80036" points="258.274,331.8351,268.0642,330.762,262.5946,329.3187,264.0379,323.849,258.274,331.8351" style="stroke: #A80036; stroke-width: 1.0;"/><line style="stroke: #A80036; stroke-width: 1.0;" x1="262.5946" x2="269.507" y1="329.3187" y2="325.2924"/><polygon fill="#A80036" points="369.213,267.222,362.0152,266.7844,358.8429,273.2603,366.0407,273.6978,369.213,267.222" style="stroke: #A80036; stroke-width: 1.0;"/><!--link Logic to ResumeController--><path d="M396.2183,283.9108 C396.2183,283.9108 393.272,307.9396 391.949,318.7237 " fill="none" id="Logic-ResumeController" style="stroke: #A80036; stroke-width: 1.0;"/><polygon fill="#A80036" points="390.36,331.6784,395.4259,323.2323,390.9687,326.7156,387.4854,322.2584,390.36,331.6784" style="stroke: #A80036; stroke-width: 1.0;"/><line style="stroke: #A80036; stroke-width: 1.0;" x1="390.9687" x2="391.943" y1="326.7156" y2="318.7751"/><polygon fill="#A80036" points="397.679,272,392.9784,277.4685,396.2183,283.9108,400.9189,278.4423,397.679,272" style="stroke: #A80036; stroke-width: 1.0;"/><!--link Logic to Game--><path d="M436.0302,279.8708 C436.0302,279.8708 470.094,309.4671 485.463,322.8207 " fill="none" id="Logic-Game" style="stroke: #A80036; stroke-width: 1.0;"/><polygon fill="#A80036" points="495.658,331.6784,491.4873,322.7562,491.8835,328.3992,486.2406,328.7954,495.658,331.6784" style="stroke: #A80036; stroke-width: 1.0;"/><line style="stroke: #A80036; stroke-width: 1.0;" x1="491.8835" x2="485.845" y1="328.3992" y2="323.1521"/><polygon fill="#A80036" points="426.972,272,428.8775,278.9548,436.0302,279.8708,434.1247,272.916,426.972,272" style="stroke: #A80036; stroke-width: 1.0;"/><!--link Logic to State--><path d="M442.3646,269.1708 C442.3646,269.1708 539.657,316.0482 578.421,334.7254 " fill="none" id="Logic-State" style="stroke: #A80036; stroke-width: 1.0;"/><polygon fill="#A80036" points="590.31,340.454,583.9383,332.9439,585.8056,338.2837,580.4658,340.1509,590.31,340.454" style="stroke: #A80036; stroke-width: 1.0;"/><line style="stroke: #A80036; stroke-width: 1.0;" x1="585.8056" x2="578.599" y1="338.2837" y2="334.8111"/><polygon fill="#A80036" points="431.554,263.962,435.223,270.1699,442.3646,269.1708,438.6956,262.9629,431.554,263.962" style="stroke: #A80036; stroke-width: 1.0;"/><!--reverse link ControllerVisitor to View--><path d="M718.581,314.995 C688.714,270.609 641.53,200.489 617.185,164.309 " fill="none" id="ControllerVisitor&lt;-View" style="stroke: #A80036; stroke-width: 1.0;"/><polygon fill="none" points="724.477,311.2185,729.835,331.7196,712.862,319.0344,724.477,311.2185" style="stroke: #A80036; stroke-width: 1.0;"/><!--link Controller to ControllerVisitor--><path d="M565.761,269.564 C601.909,286.7462 653.606,311.3194 692.285,329.705 " fill="none" id="Controller-&gt;ControllerVisitor" style="stroke: #A80036; stroke-width: 1.0; stroke-dasharray: 7.0,7.0;"/><polygon fill="#A80036" points="696.936,331.9156,690.5237,324.4401,692.4199,329.7697,687.0903,331.6659,696.936,331.9156" style="stroke: #A80036; stroke-width: 1.0;"/><!--link Controller to Game--><path d="M522.5,272 C522.5,288.003 522.5,309.4461 522.5,326.528 " fill="none" id="Controller-&gt;Game" style="stroke: #A80036; stroke-width: 1.0;"/><polygon fill="#A80036" points="522.5,331.6784,526.5,322.6784,522.5,326.6784,518.5,322.6784,522.5,331.6784" style="stroke: #A80036; stroke-width: 1.0;"/><!--link Controller to State--><path d="M543.765,272 C558.942,288.4168 579.413,310.5588 595.394,327.8444 " fill="none" id="Controller-&gt;State" style="stroke: #A80036; stroke-width: 1.0;"/><polygon fill="#A80036" points="598.939,331.6784,595.7665,322.3545,595.5448,328.007,589.8922,327.7853,598.939,331.6784" style="stroke: #A80036; stroke-width: 1.0;"/><!--
@startuml
class MasterMind
MasterMind *-down-> Logic
MasterMind *-down-> View

interface View
View ..> Controller

class ConsoleView
View <|-down- ConsoleView
ConsoleView *-down-> GameView
ConsoleView *-down-> ResultView

class Controller
Controller <|-down- StartController
Controller <|-down- ProposeController
Controller <|-down- ResumeController

class Logic
Logic *-down-> StartController
Logic *-down-> ProposeController
Logic *-down-> ResumeController
Logic *-down-> Game
Logic *-down-> State

interface ControllerVisitor

ControllerVisitor <|-down- View
Controller ..> ControllerVisitor

Controller - -> Game
Controller - -> State

@enduml

PlantUML version 1.2019.09(Mon Aug 26 18:19:51 CEST 2019)
(GPL source distribution)
Java Runtime: OpenJDK Runtime Environment
JVM: OpenJDK 64-Bit Server VM
Java Version: 1.8.0_222-b10
Operating System: Windows 10
OS Version: 10.0
Default Encoding: Cp1252
Language: es
Country: ES
--></g></svg>