<?xml version="1.0" encoding="UTF-8" standalone="no"?><svg xmlns="http://www.w3.org/2000/svg" xmlns:xlink="http://www.w3.org/1999/xlink" contentScriptType="application/ecmascript" contentStyleType="text/css" height="771px" preserveAspectRatio="none" style="width:1369px;height:771px;" version="1.1" viewBox="0 0 1369 771" width="1369px" zoomAndPan="magnify"><defs><filter height="300%" id="f9elt5y97qghu" width="300%" x="-1" y="-1"><feGaussianBlur result="blurOut" stdDeviation="2.0"/><feColorMatrix in="blurOut" result="blurOut2" type="matrix" values="0 0 0 0 0 0 0 0 0 0 0 0 0 0 0 0 0 0 .4 0"/><feOffset dx="4.0" dy="4.0" in="blurOut2" result="blurOut3"/><feBlend in="SourceGraphic" in2="blurOut3" mode="normal"/></filter></defs><g><!--class Damas--><rect fill="#FEFECE" filter="url(#f9elt5y97qghu)" height="61.8359" id="Damas" style="stroke: #A80036; stroke-width: 1.5;" width="73" x="442.5" y="8"/><ellipse cx="457.5" cy="24" fill="#ADD1B2" rx="11" ry="11" style="stroke: #A80036; stroke-width: 1.0;"/><path d="M460.2656,19.875 Q460.4219,19.6563 460.6094,19.5469 Q460.7969,19.4375 461.0156,19.4375 Q461.3906,19.4375 461.625,19.6953 Q461.8594,19.9531 461.8594,20.5625 L461.8594,22.0156 Q461.8594,22.625 461.625,22.8906 Q461.3906,23.1563 461.0156,23.1563 Q460.6719,23.1563 460.4688,22.9531 Q460.2656,22.7656 460.1563,22.25 Q460.1094,21.8906 459.9219,21.7031 Q459.5938,21.3281 458.9844,21.1094 Q458.375,20.8906 457.75,20.8906 Q456.9844,20.8906 456.3516,21.2188 Q455.7188,21.5469 455.2266,22.2969 Q454.7344,23.0469 454.7344,24.0781 L454.7344,25.1719 Q454.7344,26.4063 455.625,27.2266 Q456.5156,28.0469 458.1094,28.0469 Q459.0469,28.0469 459.7031,27.7969 Q460.0938,27.6406 460.5156,27.2031 Q460.7813,26.9375 460.9297,26.8594 Q461.0781,26.7813 461.2813,26.7813 Q461.6094,26.7813 461.8672,27.0391 Q462.125,27.2969 462.125,27.6406 Q462.125,27.9844 461.7813,28.3906 Q461.2813,28.9688 460.4844,29.2969 Q459.4063,29.75 458.1094,29.75 Q456.5938,29.75 455.3906,29.125 Q454.4063,28.625 453.7188,27.5547 Q453.0313,26.4844 453.0313,25.2031 L453.0313,24.0469 Q453.0313,22.7188 453.6484,21.5703 Q454.2656,20.4219 455.3594,19.8047 Q456.4531,19.1875 457.6875,19.1875 Q458.4219,19.1875 459.0703,19.3516 Q459.7188,19.5156 460.2656,19.875 Z "/><text fill="#000000" font-family="sans-serif" font-size="12" lengthAdjust="spacingAndGlyphs" textLength="41" x="471.5" y="28.9102">Damas</text><line style="stroke: #A80036; stroke-width: 1.5;" x1="443.5" x2="514.5" y1="40" y2="40"/><line style="stroke: #A80036; stroke-width: 1.5;" x1="443.5" x2="514.5" y1="48" y2="48"/><ellipse cx="453.5" cy="59" fill="#84BE84" rx="3" ry="3" style="stroke: #038048; stroke-width: 1.0;"/><text fill="#000000" font-family="sans-serif" font-size="11" lengthAdjust="spacingAndGlyphs" textLength="28" x="462.5" y="63.4189">play()</text><!--class LasDamas--><rect fill="#FEFECE" filter="url(#f9elt5y97qghu)" height="48" id="LasDamas" style="stroke: #A80036; stroke-width: 1.5;" width="94" x="551" y="15"/><ellipse cx="566" cy="31" fill="#ADD1B2" rx="11" ry="11" style="stroke: #A80036; stroke-width: 1.0;"/><path d="M568.7656,26.875 Q568.9219,26.6563 569.1094,26.5469 Q569.2969,26.4375 569.5156,26.4375 Q569.8906,26.4375 570.125,26.6953 Q570.3594,26.9531 570.3594,27.5625 L570.3594,29.0156 Q570.3594,29.625 570.125,29.8906 Q569.8906,30.1563 569.5156,30.1563 Q569.1719,30.1563 568.9688,29.9531 Q568.7656,29.7656 568.6563,29.25 Q568.6094,28.8906 568.4219,28.7031 Q568.0938,28.3281 567.4844,28.1094 Q566.875,27.8906 566.25,27.8906 Q565.4844,27.8906 564.8516,28.2188 Q564.2188,28.5469 563.7266,29.2969 Q563.2344,30.0469 563.2344,31.0781 L563.2344,32.1719 Q563.2344,33.4063 564.125,34.2266 Q565.0156,35.0469 566.6094,35.0469 Q567.5469,35.0469 568.2031,34.7969 Q568.5938,34.6406 569.0156,34.2031 Q569.2813,33.9375 569.4297,33.8594 Q569.5781,33.7813 569.7813,33.7813 Q570.1094,33.7813 570.3672,34.0391 Q570.625,34.2969 570.625,34.6406 Q570.625,34.9844 570.2813,35.3906 Q569.7813,35.9688 568.9844,36.2969 Q567.9063,36.75 566.6094,36.75 Q565.0938,36.75 563.8906,36.125 Q562.9063,35.625 562.2188,34.5547 Q561.5313,33.4844 561.5313,32.2031 L561.5313,31.0469 Q561.5313,29.7188 562.1484,28.5703 Q562.7656,27.4219 563.8594,26.8047 Q564.9531,26.1875 566.1875,26.1875 Q566.9219,26.1875 567.5703,26.3516 Q568.2188,26.5156 568.7656,26.875 Z "/><text fill="#000000" font-family="sans-serif" font-size="12" lengthAdjust="spacingAndGlyphs" textLength="62" x="580" y="35.9102">LasDamas</text><line style="stroke: #A80036; stroke-width: 1.5;" x1="552" x2="644" y1="47" y2="47"/><line style="stroke: #A80036; stroke-width: 1.5;" x1="552" x2="644" y1="55" y2="55"/><!--class Logic--><rect fill="#FEFECE" filter="url(#f9elt5y97qghu)" height="61.8359" id="Logic" style="stroke: #A80036; stroke-width: 1.5;" width="95" x="334.5" y="130"/><ellipse cx="364.35" cy="146" fill="#ADD1B2" rx="11" ry="11" style="stroke: #A80036; stroke-width: 1.0;"/><path d="M367.1156,141.875 Q367.2719,141.6563 367.4594,141.5469 Q367.6469,141.4375 367.8656,141.4375 Q368.2406,141.4375 368.475,141.6953 Q368.7094,141.9531 368.7094,142.5625 L368.7094,144.0156 Q368.7094,144.625 368.475,144.8906 Q368.2406,145.1563 367.8656,145.1563 Q367.5219,145.1563 367.3188,144.9531 Q367.1156,144.7656 367.0063,144.25 Q366.9594,143.8906 366.7719,143.7031 Q366.4438,143.3281 365.8344,143.1094 Q365.225,142.8906 364.6,142.8906 Q363.8344,142.8906 363.2016,143.2188 Q362.5688,143.5469 362.0766,144.2969 Q361.5844,145.0469 361.5844,146.0781 L361.5844,147.1719 Q361.5844,148.4063 362.475,149.2266 Q363.3656,150.0469 364.9594,150.0469 Q365.8969,150.0469 366.5531,149.7969 Q366.9438,149.6406 367.3656,149.2031 Q367.6313,148.9375 367.7797,148.8594 Q367.9281,148.7813 368.1313,148.7813 Q368.4594,148.7813 368.7172,149.0391 Q368.975,149.2969 368.975,149.6406 Q368.975,149.9844 368.6313,150.3906 Q368.1313,150.9688 367.3344,151.2969 Q366.2563,151.75 364.9594,151.75 Q363.4438,151.75 362.2406,151.125 Q361.2563,150.625 360.5688,149.5547 Q359.8813,148.4844 359.8813,147.2031 L359.8813,146.0469 Q359.8813,144.7188 360.4984,143.5703 Q361.1156,142.4219 362.2094,141.8047 Q363.3031,141.1875 364.5375,141.1875 Q365.2719,141.1875 365.9203,141.3516 Q366.5688,141.5156 367.1156,141.875 Z "/><text fill="#000000" font-family="sans-serif" font-size="12" lengthAdjust="spacingAndGlyphs" textLength="30" x="381.65" y="150.9102">Logic</text><line style="stroke: #A80036; stroke-width: 1.5;" x1="335.5" x2="428.5" y1="162" y2="162"/><line style="stroke: #A80036; stroke-width: 1.5;" x1="335.5" x2="428.5" y1="170" y2="170"/><ellipse cx="345.5" cy="181" fill="#84BE84" rx="3" ry="3" style="stroke: #038048; stroke-width: 1.0;"/><text fill="#000000" font-family="sans-serif" font-size="11" lengthAdjust="spacingAndGlyphs" textLength="69" x="354.5" y="185.4189">getController()</text><!--class View--><rect fill="#FEFECE" filter="url(#f9elt5y97qghu)" height="61.8359" id="View" style="stroke: #A80036; stroke-width: 1.5;" width="116" x="764" y="130"/><ellipse cx="805.1" cy="146" fill="#ADD1B2" rx="11" ry="11" style="stroke: #A80036; stroke-width: 1.0;"/><path d="M807.8656,141.875 Q808.0219,141.6563 808.2094,141.5469 Q808.3969,141.4375 808.6156,141.4375 Q808.9906,141.4375 809.225,141.6953 Q809.4594,141.9531 809.4594,142.5625 L809.4594,144.0156 Q809.4594,144.625 809.225,144.8906 Q808.9906,145.1563 808.6156,145.1563 Q808.2719,145.1563 808.0688,144.9531 Q807.8656,144.7656 807.7563,144.25 Q807.7094,143.8906 807.5219,143.7031 Q807.1938,143.3281 806.5844,143.1094 Q805.975,142.8906 805.35,142.8906 Q804.5844,142.8906 803.9516,143.2188 Q803.3188,143.5469 802.8266,144.2969 Q802.3344,145.0469 802.3344,146.0781 L802.3344,147.1719 Q802.3344,148.4063 803.225,149.2266 Q804.1156,150.0469 805.7094,150.0469 Q806.6469,150.0469 807.3031,149.7969 Q807.6938,149.6406 808.1156,149.2031 Q808.3813,148.9375 808.5297,148.8594 Q808.6781,148.7813 808.8813,148.7813 Q809.2094,148.7813 809.4672,149.0391 Q809.725,149.2969 809.725,149.6406 Q809.725,149.9844 809.3813,150.3906 Q808.8813,150.9688 808.0844,151.2969 Q807.0063,151.75 805.7094,151.75 Q804.1938,151.75 802.9906,151.125 Q802.0063,150.625 801.3188,149.5547 Q800.6313,148.4844 800.6313,147.2031 L800.6313,146.0469 Q800.6313,144.7188 801.2484,143.5703 Q801.8656,142.4219 802.9594,141.8047 Q804.0531,141.1875 805.2875,141.1875 Q806.0219,141.1875 806.6703,141.3516 Q807.3188,141.5156 807.8656,141.875 Z "/><text fill="#000000" font-family="sans-serif" font-size="12" lengthAdjust="spacingAndGlyphs" textLength="26" x="824.9" y="150.9102">View</text><line style="stroke: #A80036; stroke-width: 1.5;" x1="765" x2="879" y1="162" y2="162"/><line style="stroke: #A80036; stroke-width: 1.5;" x1="765" x2="879" y1="170" y2="170"/><ellipse cx="775" cy="181" fill="#84BE84" rx="3" ry="3" style="stroke: #038048; stroke-width: 1.0;"/><text fill="#000000" font-family="sans-serif" font-size="11" lengthAdjust="spacingAndGlyphs" textLength="90" x="784" y="185.4189">interact(Contorller)</text><!--class StartView--><rect fill="#FFA500" filter="url(#f9elt5y97qghu)" height="61.8359" id="StartView" style="stroke: #A80036; stroke-width: 1.5;" width="139" x="934.5" y="252"/><rect fill="#FFA500" height="32" style="stroke: #A80036; stroke-width: 1.5;" width="139" x="934.5" y="252"/><ellipse cx="974.7" cy="268" fill="#ADD1B2" rx="11" ry="11" style="stroke: #A80036; stroke-width: 1.0;"/><path d="M977.4656,263.875 Q977.6219,263.6563 977.8094,263.5469 Q977.9969,263.4375 978.2156,263.4375 Q978.5906,263.4375 978.825,263.6953 Q979.0594,263.9531 979.0594,264.5625 L979.0594,266.0156 Q979.0594,266.625 978.825,266.8906 Q978.5906,267.1563 978.2156,267.1563 Q977.8719,267.1563 977.6688,266.9531 Q977.4656,266.7656 977.3563,266.25 Q977.3094,265.8906 977.1219,265.7031 Q976.7938,265.3281 976.1844,265.1094 Q975.575,264.8906 974.95,264.8906 Q974.1844,264.8906 973.5516,265.2188 Q972.9188,265.5469 972.4266,266.2969 Q971.9344,267.0469 971.9344,268.0781 L971.9344,269.1719 Q971.9344,270.4063 972.825,271.2266 Q973.7156,272.0469 975.3094,272.0469 Q976.2469,272.0469 976.9031,271.7969 Q977.2938,271.6406 977.7156,271.2031 Q977.9813,270.9375 978.1297,270.8594 Q978.2781,270.7813 978.4813,270.7813 Q978.8094,270.7813 979.0672,271.0391 Q979.325,271.2969 979.325,271.6406 Q979.325,271.9844 978.9813,272.3906 Q978.4813,272.9688 977.6844,273.2969 Q976.6063,273.75 975.3094,273.75 Q973.7938,273.75 972.5906,273.125 Q971.6063,272.625 970.9188,271.5547 Q970.2313,270.4844 970.2313,269.2031 L970.2313,268.0469 Q970.2313,266.7188 970.8484,265.5703 Q971.4656,264.4219 972.5594,263.8047 Q973.6531,263.1875 974.8875,263.1875 Q975.6219,263.1875 976.2703,263.3516 Q976.9188,263.5156 977.4656,263.875 Z "/><text fill="#000000" font-family="sans-serif" font-size="12" lengthAdjust="spacingAndGlyphs" textLength="51" x="994.3" y="272.9102">StartView</text><line style="stroke: #A80036; stroke-width: 1.5;" x1="935.5" x2="1072.5" y1="284" y2="284"/><line style="stroke: #A80036; stroke-width: 1.5;" x1="935.5" x2="1072.5" y1="292" y2="292"/><ellipse cx="945.5" cy="303" fill="#84BE84" rx="3" ry="3" style="stroke: #038048; stroke-width: 1.0;"/><text fill="#000000" font-family="sans-serif" font-size="11" lengthAdjust="spacingAndGlyphs" textLength="113" x="954.5" y="307.4189">interact(StartController)</text><!--class PlayView--><rect fill="#FFA500" filter="url(#f9elt5y97qghu)" height="61.8359" id="PlayView" style="stroke: #A80036; stroke-width: 1.5;" width="138" x="1128" y="252"/><rect fill="#FFA500" height="32" style="stroke: #A80036; stroke-width: 1.5;" width="138" x="1128" y="252"/><ellipse cx="1168.65" cy="268" fill="#ADD1B2" rx="11" ry="11" style="stroke: #A80036; stroke-width: 1.0;"/><path d="M1171.4156,263.875 Q1171.5719,263.6563 1171.7594,263.5469 Q1171.9469,263.4375 1172.1656,263.4375 Q1172.5406,263.4375 1172.775,263.6953 Q1173.0094,263.9531 1173.0094,264.5625 L1173.0094,266.0156 Q1173.0094,266.625 1172.775,266.8906 Q1172.5406,267.1563 1172.1656,267.1563 Q1171.8219,267.1563 1171.6188,266.9531 Q1171.4156,266.7656 1171.3063,266.25 Q1171.2594,265.8906 1171.0719,265.7031 Q1170.7438,265.3281 1170.1344,265.1094 Q1169.525,264.8906 1168.9,264.8906 Q1168.1344,264.8906 1167.5016,265.2188 Q1166.8688,265.5469 1166.3766,266.2969 Q1165.8844,267.0469 1165.8844,268.0781 L1165.8844,269.1719 Q1165.8844,270.4063 1166.775,271.2266 Q1167.6656,272.0469 1169.2594,272.0469 Q1170.1969,272.0469 1170.8531,271.7969 Q1171.2438,271.6406 1171.6656,271.2031 Q1171.9313,270.9375 1172.0797,270.8594 Q1172.2281,270.7813 1172.4313,270.7813 Q1172.7594,270.7813 1173.0172,271.0391 Q1173.275,271.2969 1173.275,271.6406 Q1173.275,271.9844 1172.9313,272.3906 Q1172.4313,272.9688 1171.6344,273.2969 Q1170.5563,273.75 1169.2594,273.75 Q1167.7438,273.75 1166.5406,273.125 Q1165.5563,272.625 1164.8688,271.5547 Q1164.1813,270.4844 1164.1813,269.2031 L1164.1813,268.0469 Q1164.1813,266.7188 1164.7984,265.5703 Q1165.4156,264.4219 1166.5094,263.8047 Q1167.6031,263.1875 1168.8375,263.1875 Q1169.5719,263.1875 1170.2203,263.3516 Q1170.8688,263.5156 1171.4156,263.875 Z "/><text fill="#000000" font-family="sans-serif" font-size="12" lengthAdjust="spacingAndGlyphs" textLength="49" x="1188.35" y="272.9102">PlayView</text><line style="stroke: #A80036; stroke-width: 1.5;" x1="1129" x2="1265" y1="284" y2="284"/><line style="stroke: #A80036; stroke-width: 1.5;" x1="1129" x2="1265" y1="292" y2="292"/><ellipse cx="1139" cy="303" fill="#84BE84" rx="3" ry="3" style="stroke: #038048; stroke-width: 1.0;"/><text fill="#000000" font-family="sans-serif" font-size="11" lengthAdjust="spacingAndGlyphs" textLength="112" x="1148" y="307.4189">interact(PllayController)</text><!--class ResumeView--><rect fill="#FFA500" filter="url(#f9elt5y97qghu)" height="61.8359" id="ResumeView" style="stroke: #A80036; stroke-width: 1.5;" width="155" x="744.5" y="252"/><rect fill="#FFA500" height="32" style="stroke: #A80036; stroke-width: 1.5;" width="155" x="744.5" y="252"/><ellipse cx="781.55" cy="268" fill="#ADD1B2" rx="11" ry="11" style="stroke: #A80036; stroke-width: 1.0;"/><path d="M784.3156,263.875 Q784.4719,263.6563 784.6594,263.5469 Q784.8469,263.4375 785.0656,263.4375 Q785.4406,263.4375 785.675,263.6953 Q785.9094,263.9531 785.9094,264.5625 L785.9094,266.0156 Q785.9094,266.625 785.675,266.8906 Q785.4406,267.1563 785.0656,267.1563 Q784.7219,267.1563 784.5188,266.9531 Q784.3156,266.7656 784.2063,266.25 Q784.1594,265.8906 783.9719,265.7031 Q783.6438,265.3281 783.0344,265.1094 Q782.425,264.8906 781.8,264.8906 Q781.0344,264.8906 780.4016,265.2188 Q779.7688,265.5469 779.2766,266.2969 Q778.7844,267.0469 778.7844,268.0781 L778.7844,269.1719 Q778.7844,270.4063 779.675,271.2266 Q780.5656,272.0469 782.1594,272.0469 Q783.0969,272.0469 783.7531,271.7969 Q784.1438,271.6406 784.5656,271.2031 Q784.8313,270.9375 784.9797,270.8594 Q785.1281,270.7813 785.3313,270.7813 Q785.6594,270.7813 785.9172,271.0391 Q786.175,271.2969 786.175,271.6406 Q786.175,271.9844 785.8313,272.3906 Q785.3313,272.9688 784.5344,273.2969 Q783.4563,273.75 782.1594,273.75 Q780.6438,273.75 779.4406,273.125 Q778.4563,272.625 777.7688,271.5547 Q777.0813,270.4844 777.0813,269.2031 L777.0813,268.0469 Q777.0813,266.7188 777.6984,265.5703 Q778.3156,264.4219 779.4094,263.8047 Q780.5031,263.1875 781.7375,263.1875 Q782.4719,263.1875 783.1203,263.3516 Q783.7688,263.5156 784.3156,263.875 Z "/><text fill="#000000" font-family="sans-serif" font-size="12" lengthAdjust="spacingAndGlyphs" textLength="74" x="800.45" y="272.9102">ResumeView</text><line style="stroke: #A80036; stroke-width: 1.5;" x1="745.5" x2="898.5" y1="284" y2="284"/><line style="stroke: #A80036; stroke-width: 1.5;" x1="745.5" x2="898.5" y1="292" y2="292"/><ellipse cx="755.5" cy="303" fill="#84BE84" rx="3" ry="3" style="stroke: #038048; stroke-width: 1.0;"/><text fill="#000000" font-family="sans-serif" font-size="11" lengthAdjust="spacingAndGlyphs" textLength="129" x="764.5" y="307.4189">interact(ResumeController)</text><!--class StartController--><rect fill="#FEFECE" filter="url(#f9elt5y97qghu)" height="48" id="StartController" style="stroke: #A80036; stroke-width: 1.5;" width="111" x="753.5" y="381"/><ellipse cx="768.5" cy="397" fill="#ADD1B2" rx="11" ry="11" style="stroke: #A80036; stroke-width: 1.0;"/><path d="M771.2656,392.875 Q771.4219,392.6563 771.6094,392.5469 Q771.7969,392.4375 772.0156,392.4375 Q772.3906,392.4375 772.625,392.6953 Q772.8594,392.9531 772.8594,393.5625 L772.8594,395.0156 Q772.8594,395.625 772.625,395.8906 Q772.3906,396.1563 772.0156,396.1563 Q771.6719,396.1563 771.4688,395.9531 Q771.2656,395.7656 771.1563,395.25 Q771.1094,394.8906 770.9219,394.7031 Q770.5938,394.3281 769.9844,394.1094 Q769.375,393.8906 768.75,393.8906 Q767.9844,393.8906 767.3516,394.2188 Q766.7188,394.5469 766.2266,395.2969 Q765.7344,396.0469 765.7344,397.0781 L765.7344,398.1719 Q765.7344,399.4063 766.625,400.2266 Q767.5156,401.0469 769.1094,401.0469 Q770.0469,401.0469 770.7031,400.7969 Q771.0938,400.6406 771.5156,400.2031 Q771.7813,399.9375 771.9297,399.8594 Q772.0781,399.7813 772.2813,399.7813 Q772.6094,399.7813 772.8672,400.0391 Q773.125,400.2969 773.125,400.6406 Q773.125,400.9844 772.7813,401.3906 Q772.2813,401.9688 771.4844,402.2969 Q770.4063,402.75 769.1094,402.75 Q767.5938,402.75 766.3906,402.125 Q765.4063,401.625 764.7188,400.5547 Q764.0313,399.4844 764.0313,398.2031 L764.0313,397.0469 Q764.0313,395.7188 764.6484,394.5703 Q765.2656,393.4219 766.3594,392.8047 Q767.4531,392.1875 768.6875,392.1875 Q769.4219,392.1875 770.0703,392.3516 Q770.7188,392.5156 771.2656,392.875 Z "/><text fill="#000000" font-family="sans-serif" font-size="12" lengthAdjust="spacingAndGlyphs" textLength="79" x="782.5" y="401.9102">StartController</text><line style="stroke: #A80036; stroke-width: 1.5;" x1="754.5" x2="863.5" y1="413" y2="413"/><line style="stroke: #A80036; stroke-width: 1.5;" x1="754.5" x2="863.5" y1="421" y2="421"/><!--class PlayController--><rect fill="#FEFECE" filter="url(#f9elt5y97qghu)" height="61.8359" id="PlayController" style="stroke: #A80036; stroke-width: 1.5;" width="233" x="899.5" y="374"/><ellipse cx="973.25" cy="390" fill="#ADD1B2" rx="11" ry="11" style="stroke: #A80036; stroke-width: 1.0;"/><path d="M976.0156,385.875 Q976.1719,385.6563 976.3594,385.5469 Q976.5469,385.4375 976.7656,385.4375 Q977.1406,385.4375 977.375,385.6953 Q977.6094,385.9531 977.6094,386.5625 L977.6094,388.0156 Q977.6094,388.625 977.375,388.8906 Q977.1406,389.1563 976.7656,389.1563 Q976.4219,389.1563 976.2188,388.9531 Q976.0156,388.7656 975.9063,388.25 Q975.8594,387.8906 975.6719,387.7031 Q975.3438,387.3281 974.7344,387.1094 Q974.125,386.8906 973.5,386.8906 Q972.7344,386.8906 972.1016,387.2188 Q971.4688,387.5469 970.9766,388.2969 Q970.4844,389.0469 970.4844,390.0781 L970.4844,391.1719 Q970.4844,392.4063 971.375,393.2266 Q972.2656,394.0469 973.8594,394.0469 Q974.7969,394.0469 975.4531,393.7969 Q975.8438,393.6406 976.2656,393.2031 Q976.5313,392.9375 976.6797,392.8594 Q976.8281,392.7813 977.0313,392.7813 Q977.3594,392.7813 977.6172,393.0391 Q977.875,393.2969 977.875,393.6406 Q977.875,393.9844 977.5313,394.3906 Q977.0313,394.9688 976.2344,395.2969 Q975.1563,395.75 973.8594,395.75 Q972.3438,395.75 971.1406,395.125 Q970.1563,394.625 969.4688,393.5547 Q968.7813,392.4844 968.7813,391.2031 L968.7813,390.0469 Q968.7813,388.7188 969.3984,387.5703 Q970.0156,386.4219 971.1094,385.8047 Q972.2031,385.1875 973.4375,385.1875 Q974.1719,385.1875 974.8203,385.3516 Q975.4688,385.5156 976.0156,385.875 Z "/><text fill="#000000" font-family="sans-serif" font-size="12" lengthAdjust="spacingAndGlyphs" textLength="77" x="993.75" y="394.9102">PlayController</text><line style="stroke: #A80036; stroke-width: 1.5;" x1="900.5" x2="1131.5" y1="406" y2="406"/><line style="stroke: #A80036; stroke-width: 1.5;" x1="900.5" x2="1131.5" y1="414" y2="414"/><ellipse cx="910.5" cy="425" fill="#84BE84" rx="3" ry="3" style="stroke: #038048; stroke-width: 1.0;"/><text fill="#000000" font-family="sans-serif" font-size="11" lengthAdjust="spacingAndGlyphs" textLength="207" x="919.5" y="429.4189">move(Coordinate origin, Coordinate target);</text><!--class ResumeController--><rect fill="#FEFECE" filter="url(#f9elt5y97qghu)" height="48" id="ResumeController" style="stroke: #A80036; stroke-width: 1.5;" width="134" x="584" y="381"/><ellipse cx="599" cy="397" fill="#ADD1B2" rx="11" ry="11" style="stroke: #A80036; stroke-width: 1.0;"/><path d="M601.7656,392.875 Q601.9219,392.6563 602.1094,392.5469 Q602.2969,392.4375 602.5156,392.4375 Q602.8906,392.4375 603.125,392.6953 Q603.3594,392.9531 603.3594,393.5625 L603.3594,395.0156 Q603.3594,395.625 603.125,395.8906 Q602.8906,396.1563 602.5156,396.1563 Q602.1719,396.1563 601.9688,395.9531 Q601.7656,395.7656 601.6563,395.25 Q601.6094,394.8906 601.4219,394.7031 Q601.0938,394.3281 600.4844,394.1094 Q599.875,393.8906 599.25,393.8906 Q598.4844,393.8906 597.8516,394.2188 Q597.2188,394.5469 596.7266,395.2969 Q596.2344,396.0469 596.2344,397.0781 L596.2344,398.1719 Q596.2344,399.4063 597.125,400.2266 Q598.0156,401.0469 599.6094,401.0469 Q600.5469,401.0469 601.2031,400.7969 Q601.5938,400.6406 602.0156,400.2031 Q602.2813,399.9375 602.4297,399.8594 Q602.5781,399.7813 602.7813,399.7813 Q603.1094,399.7813 603.3672,400.0391 Q603.625,400.2969 603.625,400.6406 Q603.625,400.9844 603.2813,401.3906 Q602.7813,401.9688 601.9844,402.2969 Q600.9063,402.75 599.6094,402.75 Q598.0938,402.75 596.8906,402.125 Q595.9063,401.625 595.2188,400.5547 Q594.5313,399.4844 594.5313,398.2031 L594.5313,397.0469 Q594.5313,395.7188 595.1484,394.5703 Q595.7656,393.4219 596.8594,392.8047 Q597.9531,392.1875 599.1875,392.1875 Q599.9219,392.1875 600.5703,392.3516 Q601.2188,392.5156 601.7656,392.875 Z "/><text fill="#000000" font-family="sans-serif" font-size="12" lengthAdjust="spacingAndGlyphs" textLength="102" x="613" y="401.9102">ResumeController</text><line style="stroke: #A80036; stroke-width: 1.5;" x1="585" x2="717" y1="413" y2="413"/><line style="stroke: #A80036; stroke-width: 1.5;" x1="585" x2="717" y1="421" y2="421"/><!--class BoardView--><rect fill="#FEFECE" filter="url(#f9elt5y97qghu)" height="48" id="BoardView" style="stroke: #A80036; stroke-width: 1.5;" width="91" x="1167.5" y="381"/><ellipse cx="1182.5" cy="397" fill="#ADD1B2" rx="11" ry="11" style="stroke: #A80036; stroke-width: 1.0;"/><path d="M1185.2656,392.875 Q1185.4219,392.6563 1185.6094,392.5469 Q1185.7969,392.4375 1186.0156,392.4375 Q1186.3906,392.4375 1186.625,392.6953 Q1186.8594,392.9531 1186.8594,393.5625 L1186.8594,395.0156 Q1186.8594,395.625 1186.625,395.8906 Q1186.3906,396.1563 1186.0156,396.1563 Q1185.6719,396.1563 1185.4688,395.9531 Q1185.2656,395.7656 1185.1563,395.25 Q1185.1094,394.8906 1184.9219,394.7031 Q1184.5938,394.3281 1183.9844,394.1094 Q1183.375,393.8906 1182.75,393.8906 Q1181.9844,393.8906 1181.3516,394.2188 Q1180.7188,394.5469 1180.2266,395.2969 Q1179.7344,396.0469 1179.7344,397.0781 L1179.7344,398.1719 Q1179.7344,399.4063 1180.625,400.2266 Q1181.5156,401.0469 1183.1094,401.0469 Q1184.0469,401.0469 1184.7031,400.7969 Q1185.0938,400.6406 1185.5156,400.2031 Q1185.7813,399.9375 1185.9297,399.8594 Q1186.0781,399.7813 1186.2813,399.7813 Q1186.6094,399.7813 1186.8672,400.0391 Q1187.125,400.2969 1187.125,400.6406 Q1187.125,400.9844 1186.7813,401.3906 Q1186.2813,401.9688 1185.4844,402.2969 Q1184.4063,402.75 1183.1094,402.75 Q1181.5938,402.75 1180.3906,402.125 Q1179.4063,401.625 1178.7188,400.5547 Q1178.0313,399.4844 1178.0313,398.2031 L1178.0313,397.0469 Q1178.0313,395.7188 1178.6484,394.5703 Q1179.2656,393.4219 1180.3594,392.8047 Q1181.4531,392.1875 1182.6875,392.1875 Q1183.4219,392.1875 1184.0703,392.3516 Q1184.7188,392.5156 1185.2656,392.875 Z "/><text fill="#000000" font-family="sans-serif" font-size="12" lengthAdjust="spacingAndGlyphs" textLength="59" x="1196.5" y="401.9102">BoardView</text><line style="stroke: #A80036; stroke-width: 1.5;" x1="1168.5" x2="1257.5" y1="413" y2="413"/><line style="stroke: #A80036; stroke-width: 1.5;" x1="1168.5" x2="1257.5" y1="421" y2="421"/><!--class SquareView--><rect fill="#FEFECE" filter="url(#f9elt5y97qghu)" height="48" id="SquareView" style="stroke: #A80036; stroke-width: 1.5;" width="98" x="1132" y="496"/><ellipse cx="1147" cy="512" fill="#ADD1B2" rx="11" ry="11" style="stroke: #A80036; stroke-width: 1.0;"/><path d="M1149.7656,507.875 Q1149.9219,507.6563 1150.1094,507.5469 Q1150.2969,507.4375 1150.5156,507.4375 Q1150.8906,507.4375 1151.125,507.6953 Q1151.3594,507.9531 1151.3594,508.5625 L1151.3594,510.0156 Q1151.3594,510.625 1151.125,510.8906 Q1150.8906,511.1563 1150.5156,511.1563 Q1150.1719,511.1563 1149.9688,510.9531 Q1149.7656,510.7656 1149.6563,510.25 Q1149.6094,509.8906 1149.4219,509.7031 Q1149.0938,509.3281 1148.4844,509.1094 Q1147.875,508.8906 1147.25,508.8906 Q1146.4844,508.8906 1145.8516,509.2188 Q1145.2188,509.5469 1144.7266,510.2969 Q1144.2344,511.0469 1144.2344,512.0781 L1144.2344,513.1719 Q1144.2344,514.4063 1145.125,515.2266 Q1146.0156,516.0469 1147.6094,516.0469 Q1148.5469,516.0469 1149.2031,515.7969 Q1149.5938,515.6406 1150.0156,515.2031 Q1150.2813,514.9375 1150.4297,514.8594 Q1150.5781,514.7813 1150.7813,514.7813 Q1151.1094,514.7813 1151.3672,515.0391 Q1151.625,515.2969 1151.625,515.6406 Q1151.625,515.9844 1151.2813,516.3906 Q1150.7813,516.9688 1149.9844,517.2969 Q1148.9063,517.75 1147.6094,517.75 Q1146.0938,517.75 1144.8906,517.125 Q1143.9063,516.625 1143.2188,515.5547 Q1142.5313,514.4844 1142.5313,513.2031 L1142.5313,512.0469 Q1142.5313,510.7188 1143.1484,509.5703 Q1143.7656,508.4219 1144.8594,507.8047 Q1145.9531,507.1875 1147.1875,507.1875 Q1147.9219,507.1875 1148.5703,507.3516 Q1149.2188,507.5156 1149.7656,507.875 Z "/><text fill="#000000" font-family="sans-serif" font-size="12" lengthAdjust="spacingAndGlyphs" textLength="66" x="1161" y="516.9102">SquareView</text><line style="stroke: #A80036; stroke-width: 1.5;" x1="1133" x2="1229" y1="528" y2="528"/><line style="stroke: #A80036; stroke-width: 1.5;" x1="1133" x2="1229" y1="536" y2="536"/><!--class PieceView--><rect fill="#FEFECE" filter="url(#f9elt5y97qghu)" height="48" id="PieceView" style="stroke: #A80036; stroke-width: 1.5;" width="89" x="1136.5" y="604"/><ellipse cx="1151.5" cy="620" fill="#ADD1B2" rx="11" ry="11" style="stroke: #A80036; stroke-width: 1.0;"/><path d="M1154.2656,615.875 Q1154.4219,615.6563 1154.6094,615.5469 Q1154.7969,615.4375 1155.0156,615.4375 Q1155.3906,615.4375 1155.625,615.6953 Q1155.8594,615.9531 1155.8594,616.5625 L1155.8594,618.0156 Q1155.8594,618.625 1155.625,618.8906 Q1155.3906,619.1563 1155.0156,619.1563 Q1154.6719,619.1563 1154.4688,618.9531 Q1154.2656,618.7656 1154.1563,618.25 Q1154.1094,617.8906 1153.9219,617.7031 Q1153.5938,617.3281 1152.9844,617.1094 Q1152.375,616.8906 1151.75,616.8906 Q1150.9844,616.8906 1150.3516,617.2188 Q1149.7188,617.5469 1149.2266,618.2969 Q1148.7344,619.0469 1148.7344,620.0781 L1148.7344,621.1719 Q1148.7344,622.4063 1149.625,623.2266 Q1150.5156,624.0469 1152.1094,624.0469 Q1153.0469,624.0469 1153.7031,623.7969 Q1154.0938,623.6406 1154.5156,623.2031 Q1154.7813,622.9375 1154.9297,622.8594 Q1155.0781,622.7813 1155.2813,622.7813 Q1155.6094,622.7813 1155.8672,623.0391 Q1156.125,623.2969 1156.125,623.6406 Q1156.125,623.9844 1155.7813,624.3906 Q1155.2813,624.9688 1154.4844,625.2969 Q1153.4063,625.75 1152.1094,625.75 Q1150.5938,625.75 1149.3906,625.125 Q1148.4063,624.625 1147.7188,623.5547 Q1147.0313,622.4844 1147.0313,621.2031 L1147.0313,620.0469 Q1147.0313,618.7188 1147.6484,617.5703 Q1148.2656,616.4219 1149.3594,615.8047 Q1150.4531,615.1875 1151.6875,615.1875 Q1152.4219,615.1875 1153.0703,615.3516 Q1153.7188,615.5156 1154.2656,615.875 Z "/><text fill="#000000" font-family="sans-serif" font-size="12" lengthAdjust="spacingAndGlyphs" textLength="57" x="1165.5" y="624.9102">PieceView</text><line style="stroke: #A80036; stroke-width: 1.5;" x1="1137.5" x2="1224.5" y1="636" y2="636"/><line style="stroke: #A80036; stroke-width: 1.5;" x1="1137.5" x2="1224.5" y1="644" y2="644"/><!--class AcceptController--><rect fill="#FEFECE" filter="url(#f9elt5y97qghu)" height="48" id="AcceptController" style="stroke: #A80036; stroke-width: 1.5;" width="122" x="587" y="259"/><ellipse cx="602" cy="275" fill="#ADD1B2" rx="11" ry="11" style="stroke: #A80036; stroke-width: 1.0;"/><path d="M604.7656,270.875 Q604.9219,270.6563 605.1094,270.5469 Q605.2969,270.4375 605.5156,270.4375 Q605.8906,270.4375 606.125,270.6953 Q606.3594,270.9531 606.3594,271.5625 L606.3594,273.0156 Q606.3594,273.625 606.125,273.8906 Q605.8906,274.1563 605.5156,274.1563 Q605.1719,274.1563 604.9688,273.9531 Q604.7656,273.7656 604.6563,273.25 Q604.6094,272.8906 604.4219,272.7031 Q604.0938,272.3281 603.4844,272.1094 Q602.875,271.8906 602.25,271.8906 Q601.4844,271.8906 600.8516,272.2188 Q600.2188,272.5469 599.7266,273.2969 Q599.2344,274.0469 599.2344,275.0781 L599.2344,276.1719 Q599.2344,277.4063 600.125,278.2266 Q601.0156,279.0469 602.6094,279.0469 Q603.5469,279.0469 604.2031,278.7969 Q604.5938,278.6406 605.0156,278.2031 Q605.2813,277.9375 605.4297,277.8594 Q605.5781,277.7813 605.7813,277.7813 Q606.1094,277.7813 606.3672,278.0391 Q606.625,278.2969 606.625,278.6406 Q606.625,278.9844 606.2813,279.3906 Q605.7813,279.9688 604.9844,280.2969 Q603.9063,280.75 602.6094,280.75 Q601.0938,280.75 599.8906,280.125 Q598.9063,279.625 598.2188,278.5547 Q597.5313,277.4844 597.5313,276.2031 L597.5313,275.0469 Q597.5313,273.7188 598.1484,272.5703 Q598.7656,271.4219 599.8594,270.8047 Q600.9531,270.1875 602.1875,270.1875 Q602.9219,270.1875 603.5703,270.3516 Q604.2188,270.5156 604.7656,270.875 Z "/><text fill="#000000" font-family="sans-serif" font-size="12" lengthAdjust="spacingAndGlyphs" textLength="90" x="616" y="279.9102">AcceptController</text><line style="stroke: #A80036; stroke-width: 1.5;" x1="588" x2="708" y1="291" y2="291"/><line style="stroke: #A80036; stroke-width: 1.5;" x1="588" x2="708" y1="299" y2="299"/><!--class State--><rect fill="#FEFECE" filter="url(#f9elt5y97qghu)" height="48" id="State" style="stroke: #A80036; stroke-width: 1.5;" width="60" x="246" y="259"/><ellipse cx="261" cy="275" fill="#ADD1B2" rx="11" ry="11" style="stroke: #A80036; stroke-width: 1.0;"/><path d="M263.7656,270.875 Q263.9219,270.6563 264.1094,270.5469 Q264.2969,270.4375 264.5156,270.4375 Q264.8906,270.4375 265.125,270.6953 Q265.3594,270.9531 265.3594,271.5625 L265.3594,273.0156 Q265.3594,273.625 265.125,273.8906 Q264.8906,274.1563 264.5156,274.1563 Q264.1719,274.1563 263.9688,273.9531 Q263.7656,273.7656 263.6563,273.25 Q263.6094,272.8906 263.4219,272.7031 Q263.0938,272.3281 262.4844,272.1094 Q261.875,271.8906 261.25,271.8906 Q260.4844,271.8906 259.8516,272.2188 Q259.2188,272.5469 258.7266,273.2969 Q258.2344,274.0469 258.2344,275.0781 L258.2344,276.1719 Q258.2344,277.4063 259.125,278.2266 Q260.0156,279.0469 261.6094,279.0469 Q262.5469,279.0469 263.2031,278.7969 Q263.5938,278.6406 264.0156,278.2031 Q264.2813,277.9375 264.4297,277.8594 Q264.5781,277.7813 264.7813,277.7813 Q265.1094,277.7813 265.3672,278.0391 Q265.625,278.2969 265.625,278.6406 Q265.625,278.9844 265.2813,279.3906 Q264.7813,279.9688 263.9844,280.2969 Q262.9063,280.75 261.6094,280.75 Q260.0938,280.75 258.8906,280.125 Q257.9063,279.625 257.2188,278.5547 Q256.5313,277.4844 256.5313,276.2031 L256.5313,275.0469 Q256.5313,273.7188 257.1484,272.5703 Q257.7656,271.4219 258.8594,270.8047 Q259.9531,270.1875 261.1875,270.1875 Q261.9219,270.1875 262.5703,270.3516 Q263.2188,270.5156 263.7656,270.875 Z "/><text fill="#000000" font-family="sans-serif" font-size="12" lengthAdjust="spacingAndGlyphs" textLength="28" x="275" y="279.9102">State</text><line style="stroke: #A80036; stroke-width: 1.5;" x1="247" x2="305" y1="291" y2="291"/><line style="stroke: #A80036; stroke-width: 1.5;" x1="247" x2="305" y1="299" y2="299"/><!--class Game--><rect fill="#FEFECE" filter="url(#f9elt5y97qghu)" height="48" id="Game" style="stroke: #A80036; stroke-width: 1.5;" width="66" x="341" y="259"/><ellipse cx="356" cy="275" fill="#ADD1B2" rx="11" ry="11" style="stroke: #A80036; stroke-width: 1.0;"/><path d="M358.7656,270.875 Q358.9219,270.6563 359.1094,270.5469 Q359.2969,270.4375 359.5156,270.4375 Q359.8906,270.4375 360.125,270.6953 Q360.3594,270.9531 360.3594,271.5625 L360.3594,273.0156 Q360.3594,273.625 360.125,273.8906 Q359.8906,274.1563 359.5156,274.1563 Q359.1719,274.1563 358.9688,273.9531 Q358.7656,273.7656 358.6563,273.25 Q358.6094,272.8906 358.4219,272.7031 Q358.0938,272.3281 357.4844,272.1094 Q356.875,271.8906 356.25,271.8906 Q355.4844,271.8906 354.8516,272.2188 Q354.2188,272.5469 353.7266,273.2969 Q353.2344,274.0469 353.2344,275.0781 L353.2344,276.1719 Q353.2344,277.4063 354.125,278.2266 Q355.0156,279.0469 356.6094,279.0469 Q357.5469,279.0469 358.2031,278.7969 Q358.5938,278.6406 359.0156,278.2031 Q359.2813,277.9375 359.4297,277.8594 Q359.5781,277.7813 359.7813,277.7813 Q360.1094,277.7813 360.3672,278.0391 Q360.625,278.2969 360.625,278.6406 Q360.625,278.9844 360.2813,279.3906 Q359.7813,279.9688 358.9844,280.2969 Q357.9063,280.75 356.6094,280.75 Q355.0938,280.75 353.8906,280.125 Q352.9063,279.625 352.2188,278.5547 Q351.5313,277.4844 351.5313,276.2031 L351.5313,275.0469 Q351.5313,273.7188 352.1484,272.5703 Q352.7656,271.4219 353.8594,270.8047 Q354.9531,270.1875 356.1875,270.1875 Q356.9219,270.1875 357.5703,270.3516 Q358.2188,270.5156 358.7656,270.875 Z "/><text fill="#000000" font-family="sans-serif" font-size="12" lengthAdjust="spacingAndGlyphs" textLength="34" x="370" y="279.9102">Game</text><line style="stroke: #A80036; stroke-width: 1.5;" x1="342" x2="406" y1="291" y2="291"/><line style="stroke: #A80036; stroke-width: 1.5;" x1="342" x2="406" y1="299" y2="299"/><!--class Controller--><rect fill="#FEFECE" filter="url(#f9elt5y97qghu)" height="48" id="Controller" style="stroke: #A80036; stroke-width: 1.5;" width="86" x="473" y="137"/><ellipse cx="488" cy="153" fill="#ADD1B2" rx="11" ry="11" style="stroke: #A80036; stroke-width: 1.0;"/><path d="M490.7656,148.875 Q490.9219,148.6563 491.1094,148.5469 Q491.2969,148.4375 491.5156,148.4375 Q491.8906,148.4375 492.125,148.6953 Q492.3594,148.9531 492.3594,149.5625 L492.3594,151.0156 Q492.3594,151.625 492.125,151.8906 Q491.8906,152.1563 491.5156,152.1563 Q491.1719,152.1563 490.9688,151.9531 Q490.7656,151.7656 490.6563,151.25 Q490.6094,150.8906 490.4219,150.7031 Q490.0938,150.3281 489.4844,150.1094 Q488.875,149.8906 488.25,149.8906 Q487.4844,149.8906 486.8516,150.2188 Q486.2188,150.5469 485.7266,151.2969 Q485.2344,152.0469 485.2344,153.0781 L485.2344,154.1719 Q485.2344,155.4063 486.125,156.2266 Q487.0156,157.0469 488.6094,157.0469 Q489.5469,157.0469 490.2031,156.7969 Q490.5938,156.6406 491.0156,156.2031 Q491.2813,155.9375 491.4297,155.8594 Q491.5781,155.7813 491.7813,155.7813 Q492.1094,155.7813 492.3672,156.0391 Q492.625,156.2969 492.625,156.6406 Q492.625,156.9844 492.2813,157.3906 Q491.7813,157.9688 490.9844,158.2969 Q489.9063,158.75 488.6094,158.75 Q487.0938,158.75 485.8906,158.125 Q484.9063,157.625 484.2188,156.5547 Q483.5313,155.4844 483.5313,154.2031 L483.5313,153.0469 Q483.5313,151.7188 484.1484,150.5703 Q484.7656,149.4219 485.8594,148.8047 Q486.9531,148.1875 488.1875,148.1875 Q488.9219,148.1875 489.5703,148.3516 Q490.2188,148.5156 490.7656,148.875 Z "/><text fill="#000000" font-family="sans-serif" font-size="12" lengthAdjust="spacingAndGlyphs" textLength="54" x="502" y="157.9102">Controller</text><line style="stroke: #A80036; stroke-width: 1.5;" x1="474" x2="558" y1="169" y2="169"/><line style="stroke: #A80036; stroke-width: 1.5;" x1="474" x2="558" y1="177" y2="177"/><!--class MoveController--><rect fill="#FEFECE" filter="url(#f9elt5y97qghu)" height="48" id="MoveController" style="stroke: #A80036; stroke-width: 1.5;" width="114" x="873" y="496"/><ellipse cx="888" cy="512" fill="#ADD1B2" rx="11" ry="11" style="stroke: #A80036; stroke-width: 1.0;"/><path d="M890.7656,507.875 Q890.9219,507.6563 891.1094,507.5469 Q891.2969,507.4375 891.5156,507.4375 Q891.8906,507.4375 892.125,507.6953 Q892.3594,507.9531 892.3594,508.5625 L892.3594,510.0156 Q892.3594,510.625 892.125,510.8906 Q891.8906,511.1563 891.5156,511.1563 Q891.1719,511.1563 890.9688,510.9531 Q890.7656,510.7656 890.6563,510.25 Q890.6094,509.8906 890.4219,509.7031 Q890.0938,509.3281 889.4844,509.1094 Q888.875,508.8906 888.25,508.8906 Q887.4844,508.8906 886.8516,509.2188 Q886.2188,509.5469 885.7266,510.2969 Q885.2344,511.0469 885.2344,512.0781 L885.2344,513.1719 Q885.2344,514.4063 886.125,515.2266 Q887.0156,516.0469 888.6094,516.0469 Q889.5469,516.0469 890.2031,515.7969 Q890.5938,515.6406 891.0156,515.2031 Q891.2813,514.9375 891.4297,514.8594 Q891.5781,514.7813 891.7813,514.7813 Q892.1094,514.7813 892.3672,515.0391 Q892.625,515.2969 892.625,515.6406 Q892.625,515.9844 892.2813,516.3906 Q891.7813,516.9688 890.9844,517.2969 Q889.9063,517.75 888.6094,517.75 Q887.0938,517.75 885.8906,517.125 Q884.9063,516.625 884.2188,515.5547 Q883.5313,514.4844 883.5313,513.2031 L883.5313,512.0469 Q883.5313,510.7188 884.1484,509.5703 Q884.7656,508.4219 885.8594,507.8047 Q886.9531,507.1875 888.1875,507.1875 Q888.9219,507.1875 889.5703,507.3516 Q890.2188,507.5156 890.7656,507.875 Z "/><text fill="#000000" font-family="sans-serif" font-size="12" lengthAdjust="spacingAndGlyphs" textLength="82" x="902" y="516.9102">MoveController</text><line style="stroke: #A80036; stroke-width: 1.5;" x1="874" x2="986" y1="528" y2="528"/><line style="stroke: #A80036; stroke-width: 1.5;" x1="874" x2="986" y1="536" y2="536"/><!--class CancelController--><rect fill="#FEFECE" filter="url(#f9elt5y97qghu)" height="48" id="CancelController" style="stroke: #A80036; stroke-width: 1.5;" width="125" x="540.5" y="496"/><ellipse cx="555.5" cy="512" fill="#ADD1B2" rx="11" ry="11" style="stroke: #A80036; stroke-width: 1.0;"/><path d="M558.2656,507.875 Q558.4219,507.6563 558.6094,507.5469 Q558.7969,507.4375 559.0156,507.4375 Q559.3906,507.4375 559.625,507.6953 Q559.8594,507.9531 559.8594,508.5625 L559.8594,510.0156 Q559.8594,510.625 559.625,510.8906 Q559.3906,511.1563 559.0156,511.1563 Q558.6719,511.1563 558.4688,510.9531 Q558.2656,510.7656 558.1563,510.25 Q558.1094,509.8906 557.9219,509.7031 Q557.5938,509.3281 556.9844,509.1094 Q556.375,508.8906 555.75,508.8906 Q554.9844,508.8906 554.3516,509.2188 Q553.7188,509.5469 553.2266,510.2969 Q552.7344,511.0469 552.7344,512.0781 L552.7344,513.1719 Q552.7344,514.4063 553.625,515.2266 Q554.5156,516.0469 556.1094,516.0469 Q557.0469,516.0469 557.7031,515.7969 Q558.0938,515.6406 558.5156,515.2031 Q558.7813,514.9375 558.9297,514.8594 Q559.0781,514.7813 559.2813,514.7813 Q559.6094,514.7813 559.8672,515.0391 Q560.125,515.2969 560.125,515.6406 Q560.125,515.9844 559.7813,516.3906 Q559.2813,516.9688 558.4844,517.2969 Q557.4063,517.75 556.1094,517.75 Q554.5938,517.75 553.3906,517.125 Q552.4063,516.625 551.7188,515.5547 Q551.0313,514.4844 551.0313,513.2031 L551.0313,512.0469 Q551.0313,510.7188 551.6484,509.5703 Q552.2656,508.4219 553.3594,507.8047 Q554.4531,507.1875 555.6875,507.1875 Q556.4219,507.1875 557.0703,507.3516 Q557.7188,507.5156 558.2656,507.875 Z "/><text fill="#000000" font-family="sans-serif" font-size="12" lengthAdjust="spacingAndGlyphs" textLength="93" x="569.5" y="516.9102">CancelController</text><line style="stroke: #A80036; stroke-width: 1.5;" x1="541.5" x2="664.5" y1="528" y2="528"/><line style="stroke: #A80036; stroke-width: 1.5;" x1="541.5" x2="664.5" y1="536" y2="536"/><!--class Coordinate--><rect fill="#FEFECE" filter="url(#f9elt5y97qghu)" height="48" id="Coordinate" style="stroke: #A80036; stroke-width: 1.5;" width="93" x="1265.5" y="496"/><ellipse cx="1280.5" cy="512" fill="#ADD1B2" rx="11" ry="11" style="stroke: #A80036; stroke-width: 1.0;"/><path d="M1283.2656,507.875 Q1283.4219,507.6563 1283.6094,507.5469 Q1283.7969,507.4375 1284.0156,507.4375 Q1284.3906,507.4375 1284.625,507.6953 Q1284.8594,507.9531 1284.8594,508.5625 L1284.8594,510.0156 Q1284.8594,510.625 1284.625,510.8906 Q1284.3906,511.1563 1284.0156,511.1563 Q1283.6719,511.1563 1283.4688,510.9531 Q1283.2656,510.7656 1283.1563,510.25 Q1283.1094,509.8906 1282.9219,509.7031 Q1282.5938,509.3281 1281.9844,509.1094 Q1281.375,508.8906 1280.75,508.8906 Q1279.9844,508.8906 1279.3516,509.2188 Q1278.7188,509.5469 1278.2266,510.2969 Q1277.7344,511.0469 1277.7344,512.0781 L1277.7344,513.1719 Q1277.7344,514.4063 1278.625,515.2266 Q1279.5156,516.0469 1281.1094,516.0469 Q1282.0469,516.0469 1282.7031,515.7969 Q1283.0938,515.6406 1283.5156,515.2031 Q1283.7813,514.9375 1283.9297,514.8594 Q1284.0781,514.7813 1284.2813,514.7813 Q1284.6094,514.7813 1284.8672,515.0391 Q1285.125,515.2969 1285.125,515.6406 Q1285.125,515.9844 1284.7813,516.3906 Q1284.2813,516.9688 1283.4844,517.2969 Q1282.4063,517.75 1281.1094,517.75 Q1279.5938,517.75 1278.3906,517.125 Q1277.4063,516.625 1276.7188,515.5547 Q1276.0313,514.4844 1276.0313,513.2031 L1276.0313,512.0469 Q1276.0313,510.7188 1276.6484,509.5703 Q1277.2656,508.4219 1278.3594,507.8047 Q1279.4531,507.1875 1280.6875,507.1875 Q1281.4219,507.1875 1282.0703,507.3516 Q1282.7188,507.5156 1283.2656,507.875 Z "/><text fill="#000000" font-family="sans-serif" font-size="12" lengthAdjust="spacingAndGlyphs" textLength="61" x="1294.5" y="516.9102">Coordinate</text><line style="stroke: #A80036; stroke-width: 1.5;" x1="1266.5" x2="1357.5" y1="528" y2="528"/><line style="stroke: #A80036; stroke-width: 1.5;" x1="1266.5" x2="1357.5" y1="536" y2="536"/><!--class Board--><rect fill="#FEFECE" filter="url(#f9elt5y97qghu)" height="48" id="Board" style="stroke: #A80036; stroke-width: 1.5;" width="65" x="171.5" y="381"/><ellipse cx="186.5" cy="397" fill="#ADD1B2" rx="11" ry="11" style="stroke: #A80036; stroke-width: 1.0;"/><path d="M189.2656,392.875 Q189.4219,392.6563 189.6094,392.5469 Q189.7969,392.4375 190.0156,392.4375 Q190.3906,392.4375 190.625,392.6953 Q190.8594,392.9531 190.8594,393.5625 L190.8594,395.0156 Q190.8594,395.625 190.625,395.8906 Q190.3906,396.1563 190.0156,396.1563 Q189.6719,396.1563 189.4688,395.9531 Q189.2656,395.7656 189.1563,395.25 Q189.1094,394.8906 188.9219,394.7031 Q188.5938,394.3281 187.9844,394.1094 Q187.375,393.8906 186.75,393.8906 Q185.9844,393.8906 185.3516,394.2188 Q184.7188,394.5469 184.2266,395.2969 Q183.7344,396.0469 183.7344,397.0781 L183.7344,398.1719 Q183.7344,399.4063 184.625,400.2266 Q185.5156,401.0469 187.1094,401.0469 Q188.0469,401.0469 188.7031,400.7969 Q189.0938,400.6406 189.5156,400.2031 Q189.7813,399.9375 189.9297,399.8594 Q190.0781,399.7813 190.2813,399.7813 Q190.6094,399.7813 190.8672,400.0391 Q191.125,400.2969 191.125,400.6406 Q191.125,400.9844 190.7813,401.3906 Q190.2813,401.9688 189.4844,402.2969 Q188.4063,402.75 187.1094,402.75 Q185.5938,402.75 184.3906,402.125 Q183.4063,401.625 182.7188,400.5547 Q182.0313,399.4844 182.0313,398.2031 L182.0313,397.0469 Q182.0313,395.7188 182.6484,394.5703 Q183.2656,393.4219 184.3594,392.8047 Q185.4531,392.1875 186.6875,392.1875 Q187.4219,392.1875 188.0703,392.3516 Q188.7188,392.5156 189.2656,392.875 Z "/><text fill="#000000" font-family="sans-serif" font-size="12" lengthAdjust="spacingAndGlyphs" textLength="33" x="200.5" y="401.9102">Board</text><line style="stroke: #A80036; stroke-width: 1.5;" x1="172.5" x2="235.5" y1="413" y2="413"/><line style="stroke: #A80036; stroke-width: 1.5;" x1="172.5" x2="235.5" y1="421" y2="421"/><!--class Turno--><rect fill="#FEFECE" filter="url(#f9elt5y97qghu)" height="48" id="Turno" style="stroke: #A80036; stroke-width: 1.5;" width="64" x="272" y="381"/><ellipse cx="287" cy="397" fill="#ADD1B2" rx="11" ry="11" style="stroke: #A80036; stroke-width: 1.0;"/><path d="M289.7656,392.875 Q289.9219,392.6563 290.1094,392.5469 Q290.2969,392.4375 290.5156,392.4375 Q290.8906,392.4375 291.125,392.6953 Q291.3594,392.9531 291.3594,393.5625 L291.3594,395.0156 Q291.3594,395.625 291.125,395.8906 Q290.8906,396.1563 290.5156,396.1563 Q290.1719,396.1563 289.9688,395.9531 Q289.7656,395.7656 289.6563,395.25 Q289.6094,394.8906 289.4219,394.7031 Q289.0938,394.3281 288.4844,394.1094 Q287.875,393.8906 287.25,393.8906 Q286.4844,393.8906 285.8516,394.2188 Q285.2188,394.5469 284.7266,395.2969 Q284.2344,396.0469 284.2344,397.0781 L284.2344,398.1719 Q284.2344,399.4063 285.125,400.2266 Q286.0156,401.0469 287.6094,401.0469 Q288.5469,401.0469 289.2031,400.7969 Q289.5938,400.6406 290.0156,400.2031 Q290.2813,399.9375 290.4297,399.8594 Q290.5781,399.7813 290.7813,399.7813 Q291.1094,399.7813 291.3672,400.0391 Q291.625,400.2969 291.625,400.6406 Q291.625,400.9844 291.2813,401.3906 Q290.7813,401.9688 289.9844,402.2969 Q288.9063,402.75 287.6094,402.75 Q286.0938,402.75 284.8906,402.125 Q283.9063,401.625 283.2188,400.5547 Q282.5313,399.4844 282.5313,398.2031 L282.5313,397.0469 Q282.5313,395.7188 283.1484,394.5703 Q283.7656,393.4219 284.8594,392.8047 Q285.9531,392.1875 287.1875,392.1875 Q287.9219,392.1875 288.5703,392.3516 Q289.2188,392.5156 289.7656,392.875 Z "/><text fill="#000000" font-family="sans-serif" font-size="12" lengthAdjust="spacingAndGlyphs" textLength="32" x="301" y="401.9102">Turno</text><line style="stroke: #A80036; stroke-width: 1.5;" x1="273" x2="335" y1="413" y2="413"/><line style="stroke: #A80036; stroke-width: 1.5;" x1="273" x2="335" y1="421" y2="421"/><!--class Error--><rect fill="#FEFECE" filter="url(#f9elt5y97qghu)" height="48" id="Error" style="stroke: #A80036; stroke-width: 1.5;" width="59" x="338.5" y="496"/><ellipse cx="353.5" cy="512" fill="#ADD1B2" rx="11" ry="11" style="stroke: #A80036; stroke-width: 1.0;"/><path d="M356.2656,507.875 Q356.4219,507.6563 356.6094,507.5469 Q356.7969,507.4375 357.0156,507.4375 Q357.3906,507.4375 357.625,507.6953 Q357.8594,507.9531 357.8594,508.5625 L357.8594,510.0156 Q357.8594,510.625 357.625,510.8906 Q357.3906,511.1563 357.0156,511.1563 Q356.6719,511.1563 356.4688,510.9531 Q356.2656,510.7656 356.1563,510.25 Q356.1094,509.8906 355.9219,509.7031 Q355.5938,509.3281 354.9844,509.1094 Q354.375,508.8906 353.75,508.8906 Q352.9844,508.8906 352.3516,509.2188 Q351.7188,509.5469 351.2266,510.2969 Q350.7344,511.0469 350.7344,512.0781 L350.7344,513.1719 Q350.7344,514.4063 351.625,515.2266 Q352.5156,516.0469 354.1094,516.0469 Q355.0469,516.0469 355.7031,515.7969 Q356.0938,515.6406 356.5156,515.2031 Q356.7813,514.9375 356.9297,514.8594 Q357.0781,514.7813 357.2813,514.7813 Q357.6094,514.7813 357.8672,515.0391 Q358.125,515.2969 358.125,515.6406 Q358.125,515.9844 357.7813,516.3906 Q357.2813,516.9688 356.4844,517.2969 Q355.4063,517.75 354.1094,517.75 Q352.5938,517.75 351.3906,517.125 Q350.4063,516.625 349.7188,515.5547 Q349.0313,514.4844 349.0313,513.2031 L349.0313,512.0469 Q349.0313,510.7188 349.6484,509.5703 Q350.2656,508.4219 351.3594,507.8047 Q352.4531,507.1875 353.6875,507.1875 Q354.4219,507.1875 355.0703,507.3516 Q355.7188,507.5156 356.2656,507.875 Z "/><text fill="#000000" font-family="sans-serif" font-size="12" lengthAdjust="spacingAndGlyphs" textLength="27" x="367.5" y="516.9102">Error</text><line style="stroke: #A80036; stroke-width: 1.5;" x1="339.5" x2="396.5" y1="528" y2="528"/><line style="stroke: #A80036; stroke-width: 1.5;" x1="339.5" x2="396.5" y1="536" y2="536"/><!--class Square--><rect fill="#FEFECE" filter="url(#f9elt5y97qghu)" height="48" id="Square" style="stroke: #A80036; stroke-width: 1.5;" width="72" x="189" y="496"/><ellipse cx="204" cy="512" fill="#ADD1B2" rx="11" ry="11" style="stroke: #A80036; stroke-width: 1.0;"/><path d="M206.7656,507.875 Q206.9219,507.6563 207.1094,507.5469 Q207.2969,507.4375 207.5156,507.4375 Q207.8906,507.4375 208.125,507.6953 Q208.3594,507.9531 208.3594,508.5625 L208.3594,510.0156 Q208.3594,510.625 208.125,510.8906 Q207.8906,511.1563 207.5156,511.1563 Q207.1719,511.1563 206.9688,510.9531 Q206.7656,510.7656 206.6563,510.25 Q206.6094,509.8906 206.4219,509.7031 Q206.0938,509.3281 205.4844,509.1094 Q204.875,508.8906 204.25,508.8906 Q203.4844,508.8906 202.8516,509.2188 Q202.2188,509.5469 201.7266,510.2969 Q201.2344,511.0469 201.2344,512.0781 L201.2344,513.1719 Q201.2344,514.4063 202.125,515.2266 Q203.0156,516.0469 204.6094,516.0469 Q205.5469,516.0469 206.2031,515.7969 Q206.5938,515.6406 207.0156,515.2031 Q207.2813,514.9375 207.4297,514.8594 Q207.5781,514.7813 207.7813,514.7813 Q208.1094,514.7813 208.3672,515.0391 Q208.625,515.2969 208.625,515.6406 Q208.625,515.9844 208.2813,516.3906 Q207.7813,516.9688 206.9844,517.2969 Q205.9063,517.75 204.6094,517.75 Q203.0938,517.75 201.8906,517.125 Q200.9063,516.625 200.2188,515.5547 Q199.5313,514.4844 199.5313,513.2031 L199.5313,512.0469 Q199.5313,510.7188 200.1484,509.5703 Q200.7656,508.4219 201.8594,507.8047 Q202.9531,507.1875 204.1875,507.1875 Q204.9219,507.1875 205.5703,507.3516 Q206.2188,507.5156 206.7656,507.875 Z "/><text fill="#000000" font-family="sans-serif" font-size="12" lengthAdjust="spacingAndGlyphs" textLength="40" x="218" y="516.9102">Square</text><line style="stroke: #A80036; stroke-width: 1.5;" x1="190" x2="260" y1="528" y2="528"/><line style="stroke: #A80036; stroke-width: 1.5;" x1="190" x2="260" y1="536" y2="536"/><!--class Piece--><rect fill="#FEFECE" filter="url(#f9elt5y97qghu)" height="48" id="Piece" style="stroke: #A80036; stroke-width: 1.5;" width="63" x="106.5" y="604"/><ellipse cx="121.5" cy="620" fill="#ADD1B2" rx="11" ry="11" style="stroke: #A80036; stroke-width: 1.0;"/><path d="M124.2656,615.875 Q124.4219,615.6563 124.6094,615.5469 Q124.7969,615.4375 125.0156,615.4375 Q125.3906,615.4375 125.625,615.6953 Q125.8594,615.9531 125.8594,616.5625 L125.8594,618.0156 Q125.8594,618.625 125.625,618.8906 Q125.3906,619.1563 125.0156,619.1563 Q124.6719,619.1563 124.4688,618.9531 Q124.2656,618.7656 124.1563,618.25 Q124.1094,617.8906 123.9219,617.7031 Q123.5938,617.3281 122.9844,617.1094 Q122.375,616.8906 121.75,616.8906 Q120.9844,616.8906 120.3516,617.2188 Q119.7188,617.5469 119.2266,618.2969 Q118.7344,619.0469 118.7344,620.0781 L118.7344,621.1719 Q118.7344,622.4063 119.625,623.2266 Q120.5156,624.0469 122.1094,624.0469 Q123.0469,624.0469 123.7031,623.7969 Q124.0938,623.6406 124.5156,623.2031 Q124.7813,622.9375 124.9297,622.8594 Q125.0781,622.7813 125.2813,622.7813 Q125.6094,622.7813 125.8672,623.0391 Q126.125,623.2969 126.125,623.6406 Q126.125,623.9844 125.7813,624.3906 Q125.2813,624.9688 124.4844,625.2969 Q123.4063,625.75 122.1094,625.75 Q120.5938,625.75 119.3906,625.125 Q118.4063,624.625 117.7188,623.5547 Q117.0313,622.4844 117.0313,621.2031 L117.0313,620.0469 Q117.0313,618.7188 117.6484,617.5703 Q118.2656,616.4219 119.3594,615.8047 Q120.4531,615.1875 121.6875,615.1875 Q122.4219,615.1875 123.0703,615.3516 Q123.7188,615.5156 124.2656,615.875 Z "/><text fill="#000000" font-family="sans-serif" font-size="12" lengthAdjust="spacingAndGlyphs" textLength="31" x="135.5" y="624.9102">Piece</text><line style="stroke: #A80036; stroke-width: 1.5;" x1="107.5" x2="168.5" y1="636" y2="636"/><line style="stroke: #A80036; stroke-width: 1.5;" x1="107.5" x2="168.5" y1="644" y2="644"/><!--class Color--><rect fill="#FEFECE" filter="url(#f9elt5y97qghu)" height="48" id="Color" style="stroke: #A80036; stroke-width: 1.5;" width="62" x="204" y="712"/><ellipse cx="219" cy="728" fill="#ADD1B2" rx="11" ry="11" style="stroke: #A80036; stroke-width: 1.0;"/><path d="M221.7656,723.875 Q221.9219,723.6563 222.1094,723.5469 Q222.2969,723.4375 222.5156,723.4375 Q222.8906,723.4375 223.125,723.6953 Q223.3594,723.9531 223.3594,724.5625 L223.3594,726.0156 Q223.3594,726.625 223.125,726.8906 Q222.8906,727.1563 222.5156,727.1563 Q222.1719,727.1563 221.9688,726.9531 Q221.7656,726.7656 221.6563,726.25 Q221.6094,725.8906 221.4219,725.7031 Q221.0938,725.3281 220.4844,725.1094 Q219.875,724.8906 219.25,724.8906 Q218.4844,724.8906 217.8516,725.2188 Q217.2188,725.5469 216.7266,726.2969 Q216.2344,727.0469 216.2344,728.0781 L216.2344,729.1719 Q216.2344,730.4063 217.125,731.2266 Q218.0156,732.0469 219.6094,732.0469 Q220.5469,732.0469 221.2031,731.7969 Q221.5938,731.6406 222.0156,731.2031 Q222.2813,730.9375 222.4297,730.8594 Q222.5781,730.7813 222.7813,730.7813 Q223.1094,730.7813 223.3672,731.0391 Q223.625,731.2969 223.625,731.6406 Q223.625,731.9844 223.2813,732.3906 Q222.7813,732.9688 221.9844,733.2969 Q220.9063,733.75 219.6094,733.75 Q218.0938,733.75 216.8906,733.125 Q215.9063,732.625 215.2188,731.5547 Q214.5313,730.4844 214.5313,729.2031 L214.5313,728.0469 Q214.5313,726.7188 215.1484,725.5703 Q215.7656,724.4219 216.8594,723.8047 Q217.9531,723.1875 219.1875,723.1875 Q219.9219,723.1875 220.5703,723.3516 Q221.2188,723.5156 221.7656,723.875 Z "/><text fill="#000000" font-family="sans-serif" font-size="12" lengthAdjust="spacingAndGlyphs" textLength="30" x="233" y="732.9102">Color</text><line style="stroke: #A80036; stroke-width: 1.5;" x1="205" x2="265" y1="744" y2="744"/><line style="stroke: #A80036; stroke-width: 1.5;" x1="205" x2="265" y1="752" y2="752"/><!--class Peon--><rect fill="#FEFECE" filter="url(#f9elt5y97qghu)" height="48" id="Peon" style="stroke: #A80036; stroke-width: 1.5;" width="61" x="107.5" y="712"/><ellipse cx="122.5" cy="728" fill="#ADD1B2" rx="11" ry="11" style="stroke: #A80036; stroke-width: 1.0;"/><path d="M125.2656,723.875 Q125.4219,723.6563 125.6094,723.5469 Q125.7969,723.4375 126.0156,723.4375 Q126.3906,723.4375 126.625,723.6953 Q126.8594,723.9531 126.8594,724.5625 L126.8594,726.0156 Q126.8594,726.625 126.625,726.8906 Q126.3906,727.1563 126.0156,727.1563 Q125.6719,727.1563 125.4688,726.9531 Q125.2656,726.7656 125.1563,726.25 Q125.1094,725.8906 124.9219,725.7031 Q124.5938,725.3281 123.9844,725.1094 Q123.375,724.8906 122.75,724.8906 Q121.9844,724.8906 121.3516,725.2188 Q120.7188,725.5469 120.2266,726.2969 Q119.7344,727.0469 119.7344,728.0781 L119.7344,729.1719 Q119.7344,730.4063 120.625,731.2266 Q121.5156,732.0469 123.1094,732.0469 Q124.0469,732.0469 124.7031,731.7969 Q125.0938,731.6406 125.5156,731.2031 Q125.7813,730.9375 125.9297,730.8594 Q126.0781,730.7813 126.2813,730.7813 Q126.6094,730.7813 126.8672,731.0391 Q127.125,731.2969 127.125,731.6406 Q127.125,731.9844 126.7813,732.3906 Q126.2813,732.9688 125.4844,733.2969 Q124.4063,733.75 123.1094,733.75 Q121.5938,733.75 120.3906,733.125 Q119.4063,732.625 118.7188,731.5547 Q118.0313,730.4844 118.0313,729.2031 L118.0313,728.0469 Q118.0313,726.7188 118.6484,725.5703 Q119.2656,724.4219 120.3594,723.8047 Q121.4531,723.1875 122.6875,723.1875 Q123.4219,723.1875 124.0703,723.3516 Q124.7188,723.5156 125.2656,723.875 Z "/><text fill="#000000" font-family="sans-serif" font-size="12" lengthAdjust="spacingAndGlyphs" textLength="29" x="136.5" y="732.9102">Peon</text><line style="stroke: #A80036; stroke-width: 1.5;" x1="108.5" x2="167.5" y1="744" y2="744"/><line style="stroke: #A80036; stroke-width: 1.5;" x1="108.5" x2="167.5" y1="752" y2="752"/><!--class Dama--><rect fill="#FEFECE" filter="url(#f9elt5y97qghu)" height="48" id="Dama" style="stroke: #A80036; stroke-width: 1.5;" width="66" x="6" y="712"/><ellipse cx="21" cy="728" fill="#ADD1B2" rx="11" ry="11" style="stroke: #A80036; stroke-width: 1.0;"/><path d="M23.7656,723.875 Q23.9219,723.6563 24.1094,723.5469 Q24.2969,723.4375 24.5156,723.4375 Q24.8906,723.4375 25.125,723.6953 Q25.3594,723.9531 25.3594,724.5625 L25.3594,726.0156 Q25.3594,726.625 25.125,726.8906 Q24.8906,727.1563 24.5156,727.1563 Q24.1719,727.1563 23.9688,726.9531 Q23.7656,726.7656 23.6563,726.25 Q23.6094,725.8906 23.4219,725.7031 Q23.0938,725.3281 22.4844,725.1094 Q21.875,724.8906 21.25,724.8906 Q20.4844,724.8906 19.8516,725.2188 Q19.2188,725.5469 18.7266,726.2969 Q18.2344,727.0469 18.2344,728.0781 L18.2344,729.1719 Q18.2344,730.4063 19.125,731.2266 Q20.0156,732.0469 21.6094,732.0469 Q22.5469,732.0469 23.2031,731.7969 Q23.5938,731.6406 24.0156,731.2031 Q24.2813,730.9375 24.4297,730.8594 Q24.5781,730.7813 24.7813,730.7813 Q25.1094,730.7813 25.3672,731.0391 Q25.625,731.2969 25.625,731.6406 Q25.625,731.9844 25.2813,732.3906 Q24.7813,732.9688 23.9844,733.2969 Q22.9063,733.75 21.6094,733.75 Q20.0938,733.75 18.8906,733.125 Q17.9063,732.625 17.2188,731.5547 Q16.5313,730.4844 16.5313,729.2031 L16.5313,728.0469 Q16.5313,726.7188 17.1484,725.5703 Q17.7656,724.4219 18.8594,723.8047 Q19.9531,723.1875 21.1875,723.1875 Q21.9219,723.1875 22.5703,723.3516 Q23.2188,723.5156 23.7656,723.875 Z "/><text fill="#000000" font-family="sans-serif" font-size="12" lengthAdjust="spacingAndGlyphs" textLength="34" x="35" y="732.9102">Dama</text><line style="stroke: #A80036; stroke-width: 1.5;" x1="7" x2="71" y1="744" y2="744"/><line style="stroke: #A80036; stroke-width: 1.5;" x1="7" x2="71" y1="752" y2="752"/><!--class Turn--><rect fill="#FEFECE" filter="url(#f9elt5y97qghu)" height="48" id="Turn" style="stroke: #A80036; stroke-width: 1.5;" width="57" x="278.5" y="604"/><ellipse cx="293.5" cy="620" fill="#ADD1B2" rx="11" ry="11" style="stroke: #A80036; stroke-width: 1.0;"/><path d="M296.2656,615.875 Q296.4219,615.6563 296.6094,615.5469 Q296.7969,615.4375 297.0156,615.4375 Q297.3906,615.4375 297.625,615.6953 Q297.8594,615.9531 297.8594,616.5625 L297.8594,618.0156 Q297.8594,618.625 297.625,618.8906 Q297.3906,619.1563 297.0156,619.1563 Q296.6719,619.1563 296.4688,618.9531 Q296.2656,618.7656 296.1563,618.25 Q296.1094,617.8906 295.9219,617.7031 Q295.5938,617.3281 294.9844,617.1094 Q294.375,616.8906 293.75,616.8906 Q292.9844,616.8906 292.3516,617.2188 Q291.7188,617.5469 291.2266,618.2969 Q290.7344,619.0469 290.7344,620.0781 L290.7344,621.1719 Q290.7344,622.4063 291.625,623.2266 Q292.5156,624.0469 294.1094,624.0469 Q295.0469,624.0469 295.7031,623.7969 Q296.0938,623.6406 296.5156,623.2031 Q296.7813,622.9375 296.9297,622.8594 Q297.0781,622.7813 297.2813,622.7813 Q297.6094,622.7813 297.8672,623.0391 Q298.125,623.2969 298.125,623.6406 Q298.125,623.9844 297.7813,624.3906 Q297.2813,624.9688 296.4844,625.2969 Q295.4063,625.75 294.1094,625.75 Q292.5938,625.75 291.3906,625.125 Q290.4063,624.625 289.7188,623.5547 Q289.0313,622.4844 289.0313,621.2031 L289.0313,620.0469 Q289.0313,618.7188 289.6484,617.5703 Q290.2656,616.4219 291.3594,615.8047 Q292.4531,615.1875 293.6875,615.1875 Q294.4219,615.1875 295.0703,615.3516 Q295.7188,615.5156 296.2656,615.875 Z "/><text fill="#000000" font-family="sans-serif" font-size="12" lengthAdjust="spacingAndGlyphs" textLength="25" x="307.5" y="624.9102">Turn</text><line style="stroke: #A80036; stroke-width: 1.5;" x1="279.5" x2="334.5" y1="636" y2="636"/><line style="stroke: #A80036; stroke-width: 1.5;" x1="279.5" x2="334.5" y1="644" y2="644"/><!--link LasDamas to Logic--><path d="M545.8634,68.9653 C545.8634,68.9653 473.528,109.151 441.112,127.16 " fill="none" id="LasDamas-Logic" style="stroke: #A80036; stroke-width: 1.0;"/><polygon fill="#A80036" points="429.536,133.591,439.3459,132.7163,433.9067,131.1626,435.4604,125.7233,429.536,133.591" style="stroke: #A80036; stroke-width: 1.0;"/><line style="stroke: #A80036; stroke-width: 1.0;" x1="433.9067" x2="440.9" y1="131.1626" y2="127.2775"/><polygon fill="#A80036" points="556.353,63.137,549.1655,62.5546,545.8634,68.9653,553.051,69.5477,556.353,63.137" style="stroke: #A80036; stroke-width: 1.0;"/><!--link LasDamas to View--><path d="M651.767,68.8031 C651.767,68.8031 721.715,106.276 754.131,123.642 " fill="none" id="LasDamas-View" style="stroke: #A80036; stroke-width: 1.0;"/><polygon fill="#A80036" points="765.783,129.883,759.7386,122.1071,761.3756,127.5219,755.9608,129.1589,765.783,129.883" style="stroke: #A80036; stroke-width: 1.0;"/><line style="stroke: #A80036; stroke-width: 1.0;" x1="761.3756" x2="754.3235" y1="127.5219" y2="123.7445"/><polygon fill="#A80036" points="641.189,63.137,644.5893,69.4961,651.767,68.8031,648.3667,62.4441,641.189,63.137" style="stroke: #A80036; stroke-width: 1.0;"/><!--link StartView to StartController--><path d="M955.045,314.126 C923.001,333.845 881.565,359.345 851.019,378.142 " fill="none" id="StartView-&gt;StartController" style="stroke: #A80036; stroke-width: 1.0; stroke-dasharray: 7.0,7.0;"/><polygon fill="#A80036" points="846.593,380.866,856.3543,379.5554,850.8512,378.2454,852.1612,372.7423,846.593,380.866" style="stroke: #A80036; stroke-width: 1.0;"/><!--link PlayView to PlayController--><path d="M1151.33,314.281 C1125.18,331.614 1092.36,353.374 1065.59,371.124 " fill="none" id="PlayView-&gt;PlayController" style="stroke: #A80036; stroke-width: 1.0; stroke-dasharray: 7.0,7.0;"/><polygon fill="#A80036" points="1061.35,373.937,1071.063,372.3068,1065.5199,371.178,1066.6486,365.6349,1061.35,373.937" style="stroke: #A80036; stroke-width: 1.0;"/><!--link ResumeView to ResumeController--><path d="M778.849,314.281 C750.863,333.921 714.776,359.245 688.083,377.977 " fill="none" id="ResumeView-&gt;ResumeController" style="stroke: #A80036; stroke-width: 1.0; stroke-dasharray: 7.0,7.0;"/><polygon fill="#A80036" points="683.882,380.925,693.5465,379.0283,687.9745,378.0524,688.9504,372.4804,683.882,380.925" style="stroke: #A80036; stroke-width: 1.0;"/><!--link View to StartView--><path d="M877.9448,198.8859 C877.9448,198.8859 925.584,230.297 947.339,244.641 " fill="none" id="View-StartView" style="stroke: #A80036; stroke-width: 1.0;"/><polygon fill="#A80036" points="958.404,251.937,953.0921,243.6434,954.2297,249.1847,948.6884,250.3223,958.404,251.937" style="stroke: #A80036; stroke-width: 1.0;"/><line style="stroke: #A80036; stroke-width: 1.0;" x1="954.2297" x2="947.5505" y1="249.1847" y2="244.7805"/><polygon fill="#A80036" points="867.926,192.281,870.7337,198.923,877.9448,198.8859,875.137,192.2439,867.926,192.281" style="stroke: #A80036; stroke-width: 1.0;"/><!--link View to PlayView--><path d="M891.6109,184.276 C891.6109,184.276 1048.9,234.608 1115.34,255.868 " fill="none" id="View-PlayView" style="stroke: #A80036; stroke-width: 1.0;"/><polygon fill="#A80036" points="1127.84,259.869,1120.4916,253.3115,1123.0789,258.342,1118.0484,260.9293,1127.84,259.869" style="stroke: #A80036; stroke-width: 1.0;"/><line style="stroke: #A80036; stroke-width: 1.0;" x1="1123.0789" x2="1115.46" y1="258.342" y2="255.907"/><polygon fill="#A80036" points="880.182,180.618,884.6771,186.2566,891.6109,184.276,887.1158,178.6374,880.182,180.618" style="stroke: #A80036; stroke-width: 1.0;"/><!--link View to ResumeView--><path d="M822,204.281 C822,204.281 822,227.715 822,238.546 " fill="none" id="View-ResumeView" style="stroke: #A80036; stroke-width: 1.0;"/><polygon fill="#A80036" points="822,251.729,826,242.729,822,246.729,818,242.729,822,251.729" style="stroke: #A80036; stroke-width: 1.0;"/><line style="stroke: #A80036; stroke-width: 1.0;" x1="822" x2="822" y1="246.729" y2="238.729"/><polygon fill="#A80036" points="822,192.281,818,198.281,822,204.281,826,198.281,822,192.281" style="stroke: #A80036; stroke-width: 1.0;"/><!--link StartView to BoardView--><path d="M1066.8774,320.0998 C1066.8774,320.0998 1132.82,357.966 1161.06,374.18 " fill="none" id="StartView-BoardView" style="stroke: #A80036; stroke-width: 1.0;"/><polygon fill="#A80036" points="1172.71,380.866,1166.8962,372.9162,1168.3737,378.3767,1162.9133,379.8542,1172.71,380.866" style="stroke: #A80036; stroke-width: 1.0;"/><line style="stroke: #A80036; stroke-width: 1.0;" x1="1168.3737" x2="1161.435" y1="378.3767" y2="374.3925"/><polygon fill="#A80036" points="1056.47,314.126,1059.6824,320.582,1066.8774,320.0998,1063.665,313.6438,1056.47,314.126" style="stroke: #A80036; stroke-width: 1.0;"/><!--link PlayView to BoardView--><path d="M1202.6251,326.1758 C1202.6251,326.1758 1206.48,355.099 1208.18,367.876 " fill="none" id="PlayView-BoardView" style="stroke: #A80036; stroke-width: 1.0;"/><polygon fill="#A80036" points="1209.92,380.925,1212.6961,371.4755,1209.2595,375.9688,1204.7662,372.5322,1209.92,380.925" style="stroke: #A80036; stroke-width: 1.0;"/><line style="stroke: #A80036; stroke-width: 1.0;" x1="1209.2595" x2="1208.21" y1="375.9688" y2="368.039"/><polygon fill="#A80036" points="1201.04,314.281,1197.8676,320.7568,1202.6251,326.1758,1205.7975,319.7001,1201.04,314.281" style="stroke: #A80036; stroke-width: 1.0;"/><!--link BoardView to SquareView--><path d="M1206.45,429.14 C1201.4,446.964 1194.4,471.69 1189.02,490.693 " fill="none" id="BoardView-&gt;SquareView" style="stroke: #A80036; stroke-width: 1.0; stroke-dasharray: 7.0,7.0;"/><polygon fill="#A80036" points="1187.54,495.891,1193.8402,488.3208,1188.9019,491.0801,1186.1427,486.1418,1187.54,495.891" style="stroke: #A80036; stroke-width: 1.0;"/><!--link SquareView to PieceView--><path d="M1181,544 C1181,560.003 1181,581.446 1181,598.528 " fill="none" id="SquareView-&gt;PieceView" style="stroke: #A80036; stroke-width: 1.0; stroke-dasharray: 7.0,7.0;"/><polygon fill="#A80036" points="1181,603.678,1185,594.678,1181,598.678,1177,594.678,1181,603.678" style="stroke: #A80036; stroke-width: 1.0;"/><!--link View to AcceptController--><path d="M778.092,192.281 C749.615,211.921 712.895,237.245 685.733,255.977 " fill="none" id="View-&gt;AcceptController" style="stroke: #A80036; stroke-width: 1.0; stroke-dasharray: 7.0,7.0;"/><polygon fill="#A80036" points="681.459,258.925,691.1388,257.108,685.575,256.0862,686.5968,250.5224,681.459,258.925" style="stroke: #A80036; stroke-width: 1.0;"/><!--link Logic to State--><path d="M347.3071,201.2742 C347.3071,201.2742 318.014,234.437 305.226,248.914 " fill="none" id="Logic-State" style="stroke: #A80036; stroke-width: 1.0;"/><polygon fill="#A80036" points="296.383,258.925,305.3388,254.827,299.6928,255.1773,299.3425,249.5313,296.383,258.925" style="stroke: #A80036; stroke-width: 1.0;"/><line style="stroke: #A80036; stroke-width: 1.0;" x1="299.6928" x2="304.9895" y1="255.1773" y2="249.182"/><polygon fill="#A80036" points="355.252,192.281,348.2818,194.1293,347.3071,201.2742,354.2773,199.4259,355.252,192.281" style="stroke: #A80036; stroke-width: 1.0;"/><!--link Logic to Game--><path d="M379.1832,204.2545 C379.1832,204.2545 377.26,233.099 376.408,245.876 " fill="none" id="Logic-Game" style="stroke: #A80036; stroke-width: 1.0;"/><polygon fill="#A80036" points="375.538,258.925,380.1275,250.2108,375.8704,253.9361,372.1452,249.679,375.538,258.925" style="stroke: #A80036; stroke-width: 1.0;"/><line style="stroke: #A80036; stroke-width: 1.0;" x1="375.8704" x2="376.403" y1="253.9361" y2="245.9535"/><polygon fill="#A80036" points="379.981,192.281,375.591,198.0018,379.1832,204.2545,383.5733,198.5337,379.981,192.281" style="stroke: #A80036; stroke-width: 1.0;"/><!--link Logic to AcceptController--><path d="M440.493,188.3896 C440.493,188.3896 541.281,233.856 584.647,253.42 " fill="none" id="Logic-AcceptController" style="stroke: #A80036; stroke-width: 1.0;"/><polygon fill="#A80036" points="596.774,258.891,590.215,251.5439,592.2163,256.835,586.9253,258.8363,596.774,258.891" style="stroke: #A80036; stroke-width: 1.0;"/><line style="stroke: #A80036; stroke-width: 1.0;" x1="592.2163" x2="584.924" y1="256.835" y2="253.5445"/><polygon fill="#A80036" points="429.555,183.454,433.3788,189.5678,440.493,188.3896,436.6692,182.2758,429.555,183.454" style="stroke: #A80036; stroke-width: 1.0;"/><!--reverse link Controller to AcceptController--><path d="M556.564,198.877 C578.112,218.465 603.929,241.936 622.627,258.934 " fill="none" id="Controller&lt;-AcceptController" style="stroke: #A80036; stroke-width: 1.0;"/><polygon fill="none" points="551.541,203.77,541.451,185.137,560.958,193.411,551.541,203.77" style="stroke: #A80036; stroke-width: 1.0;"/><!--reverse link AcceptController to StartController--><path d="M695.182,319.167 C721.907,339.086 754.58,363.438 778.053,380.934 " fill="none" id="AcceptController&lt;-StartController" style="stroke: #A80036; stroke-width: 1.0;"/><polygon fill="none" points="690.895,324.702,679.042,307.137,699.261,313.477,690.895,324.702" style="stroke: #A80036; stroke-width: 1.0;"/><!--reverse link AcceptController to PlayController--><path d="M726.707,313.899 C726.805,313.933 726.902,313.966 727,314 C788.719,335.307 858.606,357.132 914.193,373.953 " fill="none" id="AcceptController&lt;-PlayController" style="stroke: #A80036; stroke-width: 1.0;"/><polygon fill="none" points="724.299,320.472,707.817,307.154,729.006,307.287,724.299,320.472" style="stroke: #A80036; stroke-width: 1.0;"/><!--reverse link Controller to MoveController--><path d="M518.233,205.546 C522.668,274.317 534.99,403.605 566,436 C607.739,479.603 781.414,503.693 872.955,513.584 " fill="none" id="Controller&lt;-MoveController" style="stroke: #A80036; stroke-width: 1.0;"/><polygon fill="none" points="511.22,205.532,517.036,185.156,525.196,204.712,511.22,205.532" style="stroke: #A80036; stroke-width: 1.0;"/><!--reverse link Controller to CancelController--><path d="M502.804,204.48 C487.915,260.423 470.015,360.524 505,436 C516.72,461.286 540.36,481.667 561.485,495.905 " fill="none" id="Controller&lt;-CancelController" style="stroke: #A80036; stroke-width: 1.0;"/><polygon fill="none" points="496.135,202.34,508.345,185.021,509.6,206.174,496.135,202.34" style="stroke: #A80036; stroke-width: 1.0;"/><!--reverse link AcceptController to ResumeController--><path d="M649.083,327.305 C649.536,345.428 650.044,365.76 650.423,380.934 " fill="none" id="AcceptController&lt;-ResumeController" style="stroke: #A80036; stroke-width: 1.0;"/><polygon fill="none" points="642.081,327.306,648.578,307.137,656.076,326.956,642.081,327.306" style="stroke: #A80036; stroke-width: 1.0;"/><!--link Controller to Game--><path d="M479.4553,192.8823 C479.4553,192.8823 432.127,232.878 411.35,250.437 " fill="none" id="Controller-Game" style="stroke: #A80036; stroke-width: 1.0;"/><polygon fill="#A80036" points="401.295,258.934,410.7508,256.1794,405.1138,255.7065,405.5867,250.0694,401.295,258.934" style="stroke: #A80036; stroke-width: 1.0;"/><line style="stroke: #A80036; stroke-width: 1.0;" x1="405.1138" x2="411.224" y1="255.7065" y2="250.543"/><polygon fill="#FFFFFF" points="488.621,185.137,481.4564,185.9544,479.4553,192.8823,486.6199,192.0649,488.621,185.137" style="stroke: #A80036; stroke-width: 1.0;"/><!--link PlayController to Coordinate--><path d="M1094.93,436.133 C1147.31,456.13 1214.58,481.807 1260.25,499.242 " fill="none" id="PlayController-&gt;Coordinate" style="stroke: #A80036; stroke-width: 1.0; stroke-dasharray: 7.0,7.0;"/><polygon fill="#A80036" points="1265.15,501.115,1258.1715,494.1651,1260.4796,499.3297,1255.315,501.6377,1265.15,501.115" style="stroke: #A80036; stroke-width: 1.0;"/><!--link PlayView to Coordinate--><path d="M1230.01,314.09 C1246.05,330.383 1264.34,351.708 1276,374 C1295.72,411.697 1304.95,460.608 1309.03,490.891 " fill="none" id="PlayView-&gt;Coordinate" style="stroke: #A80036; stroke-width: 1.0; stroke-dasharray: 7.0,7.0;"/><polygon fill="#A80036" points="1309.69,495.953,1312.494,486.5117,1309.0442,490.9949,1304.561,487.5451,1309.69,495.953" style="stroke: #A80036; stroke-width: 1.0;"/><!--link PlayController to CancelController--><path d="M894.5626,439.2266 C894.5626,439.2266 738.528,481.919 678.543,498.331 " fill="none" id="PlayController-CancelController" style="stroke: #A80036; stroke-width: 1.0;"/><polygon fill="#A80036" points="665.761,501.828,675.4976,503.3105,670.5837,500.5082,673.3859,495.5942,665.761,501.828" style="stroke: #A80036; stroke-width: 1.0;"/><line style="stroke: #A80036; stroke-width: 1.0;" x1="670.5837" x2="678.3" y1="500.5082" y2="498.3975"/><polygon fill="#A80036" points="906.137,436.059,899.294,433.7847,894.5626,439.2266,901.4057,441.5009,906.137,436.059" style="stroke: #A80036; stroke-width: 1.0;"/><!--link PlayController to MoveController--><path d="M985.6864,445.831 C985.6864,445.831 964.889,473.158 955.685,485.251 " fill="none" id="PlayController-MoveController" style="stroke: #A80036; stroke-width: 1.0;"/><polygon fill="#A80036" points="947.652,495.807,956.2857,491.0678,950.6801,491.8283,949.9197,486.2228,947.652,495.807" style="stroke: #A80036; stroke-width: 1.0;"/><line style="stroke: #A80036; stroke-width: 1.0;" x1="950.6801" x2="955.5245" y1="491.8283" y2="485.4615"/><polygon fill="#A80036" points="992.954,436.282,986.1372,438.634,985.6864,445.831,992.5032,443.479,992.954,436.282" style="stroke: #A80036; stroke-width: 1.0;"/><!--link Game to Board--><path d="M331.4187,314.0576 C331.4187,314.0576 272.971,355.315 247.507,373.289 " fill="none" id="Game-Board" style="stroke: #A80036; stroke-width: 1.0;"/><polygon fill="#A80036" points="236.677,380.934,246.3364,379.0113,240.7617,378.0504,241.7226,372.4758,236.677,380.934" style="stroke: #A80036; stroke-width: 1.0;"/><line style="stroke: #A80036; stroke-width: 1.0;" x1="240.7617" x2="247.298" y1="378.0504" y2="373.437"/><polygon fill="#A80036" points="341.222,307.137,334.0135,307.3295,331.4187,314.0576,338.6272,313.8651,341.222,307.137" style="stroke: #A80036; stroke-width: 1.0;"/><!--link Game to Turno--><path d="M354.4565,317.5023 C354.4565,317.5023 333.488,353.45 324.181,369.404 " fill="none" id="Game-Turno" style="stroke: #A80036; stroke-width: 1.0;"/><polygon fill="#A80036" points="317.455,380.934,325.4446,375.175,319.9741,376.615,318.5342,371.1444,317.455,380.934" style="stroke: #A80036; stroke-width: 1.0;"/><line style="stroke: #A80036; stroke-width: 1.0;" x1="319.9741" x2="324.0055" y1="376.615" y2="369.7045"/><polygon fill="#A80036" points="360.503,307.137,354.0247,310.3042,354.4565,317.5023,360.9349,314.3352,360.503,307.137" style="stroke: #A80036; stroke-width: 1.0;"/><!--link Game to Error--><path d="M373.403,307.392 C372.295,350.765 369.927,443.511 368.728,490.481 " fill="none" id="Game-&gt;Error" style="stroke: #A80036; stroke-width: 1.0; stroke-dasharray: 7.0,7.0;"/><polygon fill="#A80036" points="368.595,495.703,372.8226,486.8076,368.7221,490.7046,364.8251,486.6042,368.595,495.703" style="stroke: #A80036; stroke-width: 1.0;"/><!--link Board to Square--><path d="M210.4916,440.9382 C210.4916,440.9382 215.891,469.987 218.317,483.041 " fill="none" id="Board-Square" style="stroke: #A80036; stroke-width: 1.0;"/><polygon fill="#A80036" points="220.705,495.891,222.9928,486.3115,219.7912,490.9752,215.1275,487.7736,220.705,495.891" style="stroke: #A80036; stroke-width: 1.0;"/><line style="stroke: #A80036; stroke-width: 1.0;" x1="219.7912" x2="218.33" y1="490.9752" y2="483.1095"/><polygon fill="#A80036" points="208.3,429.14,205.4631,435.7696,210.4916,440.9382,213.3285,434.3085,208.3,429.14" style="stroke: #A80036; stroke-width: 1.0;"/><text fill="#000000" font-family="sans-serif" font-size="13" lengthAdjust="spacingAndGlyphs" textLength="21" x="195.9138" y="485.2032">8x8</text><!--link Board to Piece--><path d="M190.4752,440.284 C190.4752,440.284 176.611,477.804 171,496 C161.231,527.682 152.188,564.318 146.049,590.777 " fill="none" id="Board-Piece" style="stroke: #A80036; stroke-width: 1.0;"/><polygon fill="#A80036" points="143.114,603.606,149.02,595.7244,144.2288,598.7319,141.2214,593.9407,143.114,603.606" style="stroke: #A80036; stroke-width: 1.0;"/><line style="stroke: #A80036; stroke-width: 1.0;" x1="144.2288" x2="146.0135" y1="598.7319" y2="590.9335"/><polygon fill="#A80036" points="194.778,429.082,188.8926,433.2488,190.4752,440.284,196.3606,436.1173,194.778,429.082" style="stroke: #A80036; stroke-width: 1.0;"/><text fill="#000000" font-family="sans-serif" font-size="13" lengthAdjust="spacingAndGlyphs" textLength="43" x="96.1204" y="593.2479">1..2x12</text><!--link Board to Error--><path d="M236.794,428.596 C265.036,448.056 305.637,476.031 334.176,495.694 " fill="none" id="Board-&gt;Error" style="stroke: #A80036; stroke-width: 1.0; stroke-dasharray: 7.0,7.0;"/><polygon fill="#A80036" points="338.296,498.533,333.1549,490.1325,334.1789,495.6959,328.6155,496.7199,338.296,498.533" style="stroke: #A80036; stroke-width: 1.0;"/><!--link Square to Piece--><path d="M206.122,544 C192.762,560.279 174.78,582.187 160.647,599.408 " fill="none" id="Square-&gt;Piece" style="stroke: #A80036; stroke-width: 1.0;"/><polygon fill="#A80036" points="157.141,603.678,165.9436,599.2605,160.3139,599.8137,159.7607,594.1839,157.141,603.678" style="stroke: #A80036; stroke-width: 1.0;"/><text fill="#000000" font-family="sans-serif" font-size="13" lengthAdjust="spacingAndGlyphs" textLength="22" x="164.4879" y="593.3375">0..1</text><!--link Square to Color--><path d="M226.6481,556.296 C226.6481,556.296 231.461,659.26 233.299,698.5961 " fill="none" id="Square-Color" style="stroke: #A80036; stroke-width: 1.0;"/><polygon fill="#A80036" points="233.912,711.7196,237.4875,702.5427,233.6786,706.7251,229.4962,702.9161,233.912,711.7196" style="stroke: #A80036; stroke-width: 1.0;"/><line style="stroke: #A80036; stroke-width: 1.0;" x1="233.6786" x2="233.305" y1="706.7251" y2="698.7338"/><polygon fill="#A80036" points="226.089,544.309,222.3729,550.4889,226.6481,556.296,230.3642,550.1161,226.089,544.309" style="stroke: #A80036; stroke-width: 1.0;"/><!--reverse link Piece to Peon--><path d="M138,672.0236 C138,685.5792 138,700.0381 138,711.6784 " fill="none" id="Piece&lt;-Peon" style="stroke: #A80036; stroke-width: 1.0;"/><polygon fill="none" points="131,672.0005,138,652,145,672.0004,131,672.0005" style="stroke: #A80036; stroke-width: 1.0;"/><!--reverse link Piece to Dama--><path d="M102.7401,666.753 C88.7391,681.744 73.0768,698.5138 60.7815,711.6784 " fill="none" id="Piece&lt;-Dama" style="stroke: #A80036; stroke-width: 1.0;"/><polygon fill="none" points="97.7514,661.839,116.518,652,107.983,671.3949,97.7514,661.839" style="stroke: #A80036; stroke-width: 1.0;"/><!--link Piece to Color--><path d="M167.1495,660.8524 C167.1495,660.8524 192.935,689.0321 204.668,701.8541 " fill="none" id="Piece-Color" style="stroke: #A80036; stroke-width: 1.0;"/><polygon fill="#A80036" points="213.659,711.6784,210.5338,702.3385,210.2834,707.9898,204.6321,707.7395,213.659,711.6784" style="stroke: #A80036; stroke-width: 1.0;"/><line style="stroke: #A80036; stroke-width: 1.0;" x1="210.2834" x2="204.8825" y1="707.9898" y2="702.0879"/><polygon fill="#A80036" points="159.048,652,160.148,659.1267,167.1495,660.8524,166.0496,653.7257,159.048,652" style="stroke: #A80036; stroke-width: 1.0;"/><!--link Turn to Color--><path d="M284.634,661.9263 C284.634,661.9263 266.522,688.5927 258.325,700.6598 " fill="none" id="Turn-Color" style="stroke: #A80036; stroke-width: 1.0;"/><polygon fill="#A80036" points="250.841,711.6784,259.2071,706.4814,253.6506,707.5424,252.5895,701.986,250.841,711.6784" style="stroke: #A80036; stroke-width: 1.0;"/><line style="stroke: #A80036; stroke-width: 1.0;" x1="253.6506" x2="258.1455" y1="707.5424" y2="700.9246"/><polygon fill="#A80036" points="291.377,652,284.6967,654.7155,284.634,661.9263,291.3143,659.2108,291.377,652" style="stroke: #A80036; stroke-width: 1.0;"/><!--
@startuml
class Damas {
    + play()
}
LasDamas *-down-> Logic
LasDamas *-down-> View

class View {
    + interact(Contorller)
}

class StartView #orange {
    + interact(StartController)
}

class PlayView  #orange {
    + interact(PllayController)
}

class ResumeView  #orange {
    + interact(ResumeController)
}

StartView ..> StartController
PlayView ..> PlayController
ResumeView ..> ResumeController

View *-down-> StartView
View *-down-> PlayView
View *-down-> ResumeView
StartView *-down-> BoardView
PlayView *-down-> BoardView
BoardView ..> SquareView
SquareView ..> PieceView

View ..> AcceptController

class Logic {
    + getController()
}

Logic *- -> State
Logic *- -> Game
Logic *-down-> AcceptController

class Controller{
}

class AcceptController{
}

Controller <|-down- AcceptController
AcceptController <|-down- StartController
AcceptController <|-down- PlayController
Controller <|-down- MoveController
Controller <|-down- CancelController
AcceptController <|-down- ResumeController
Controller o- -> Game

class StartController{
}

class MoveController{
}

class CancelController{
}

class ResumeController{
}

class PlayController{
    + move(Coordinate origin, Coordinate target);
}
PlayController ..> Coordinate

PlayView ..> Coordinate

class Coordinate{
}

PlayController *-down-> CancelController
PlayController *-down-> MoveController


class Game{
}
Game *-down-> Board
Game *-down-> Turno
Game ..> Error

class Board{
}
Board *-down-> "8x8" Square
Board *-down-> "1..2x12" Piece
Board ..> Error

class Square {
}
Square  - -> "0..1" Piece
Square *- -> Color

class Piece{
}
Piece <|-down- Peon
Piece <|-down- Dama
Piece *- -> Color 

class Peon{
}

class Dama{
}

class Color{
}

class Turn{
}
Turn *- -> Color

class State{
}

class Error{
}

@enduml

PlantUML version 1.2019.09(Mon Aug 26 18:19:51 CEST 2019)
(GPL source distribution)
Java Runtime: OpenJDK Runtime Environment
JVM: OpenJDK 64-Bit Server VM
Java Version: 1.8.0_222-b10
Operating System: Windows 10
OS Version: 10.0
Default Encoding: Cp1252
Language: es
Country: ES
--></g></svg>