<?xml version="1.0" encoding="UTF-8" standalone="no"?><svg xmlns="http://www.w3.org/2000/svg" xmlns:xlink="http://www.w3.org/1999/xlink" contentScriptType="application/ecmascript" contentStyleType="text/css" height="363px" preserveAspectRatio="none" style="width:977px;height:363px;" version="1.1" viewBox="0 0 977 363" width="977px" zoomAndPan="magnify"><defs><filter height="300%" id="flsqkfepa99oz" width="300%" x="-1" y="-1"><feGaussianBlur result="blurOut" stdDeviation="2.0"/><feColorMatrix in="blurOut" result="blurOut2" type="matrix" values="0 0 0 0 0 0 0 0 0 0 0 0 0 0 0 0 0 0 .4 0"/><feOffset dx="4.0" dy="4.0" in="blurOut2" result="blurOut3"/><feBlend in="SourceGraphic" in2="blurOut3" mode="normal"/></filter></defs><g><!--class Mastermind--><rect fill="#FEFECE" filter="url(#flsqkfepa99oz)" height="48" id="Mastermind" style="stroke: #A80036; stroke-width: 1.5;" width="97" x="449.5" y="54"/><ellipse cx="464.5" cy="70" fill="#ADD1B2" rx="11" ry="11" style="stroke: #A80036; stroke-width: 1.0;"/><path d="M467.2656,65.875 Q467.4219,65.6563 467.6094,65.5469 Q467.7969,65.4375 468.0156,65.4375 Q468.3906,65.4375 468.625,65.6953 Q468.8594,65.9531 468.8594,66.5625 L468.8594,68.0156 Q468.8594,68.625 468.625,68.8906 Q468.3906,69.1563 468.0156,69.1563 Q467.6719,69.1563 467.4688,68.9531 Q467.2656,68.7656 467.1563,68.25 Q467.1094,67.8906 466.9219,67.7031 Q466.5938,67.3281 465.9844,67.1094 Q465.375,66.8906 464.75,66.8906 Q463.9844,66.8906 463.3516,67.2188 Q462.7188,67.5469 462.2266,68.2969 Q461.7344,69.0469 461.7344,70.0781 L461.7344,71.1719 Q461.7344,72.4063 462.625,73.2266 Q463.5156,74.0469 465.1094,74.0469 Q466.0469,74.0469 466.7031,73.7969 Q467.0938,73.6406 467.5156,73.2031 Q467.7813,72.9375 467.9297,72.8594 Q468.0781,72.7813 468.2813,72.7813 Q468.6094,72.7813 468.8672,73.0391 Q469.125,73.2969 469.125,73.6406 Q469.125,73.9844 468.7813,74.3906 Q468.2813,74.9688 467.4844,75.2969 Q466.4063,75.75 465.1094,75.75 Q463.5938,75.75 462.3906,75.125 Q461.4063,74.625 460.7188,73.5547 Q460.0313,72.4844 460.0313,71.2031 L460.0313,70.0469 Q460.0313,68.7188 460.6484,67.5703 Q461.2656,66.4219 462.3594,65.8047 Q463.4531,65.1875 464.6875,65.1875 Q465.4219,65.1875 466.0703,65.3516 Q466.7188,65.5156 467.2656,65.875 Z "/><text fill="#000000" font-family="sans-serif" font-size="12" lengthAdjust="spacingAndGlyphs" textLength="65" x="478.5" y="74.9102">Mastermind</text><line style="stroke: #A80036; stroke-width: 1.5;" x1="450.5" x2="545.5" y1="86" y2="86"/><line style="stroke: #A80036; stroke-width: 1.5;" x1="450.5" x2="545.5" y1="94" y2="94"/><path d="M6,48.5 L6,107.5547 L288,107.5547 L288,58.5 L278,48.5 L6,48.5 " fill="#FBFB77" filter="url(#flsqkfepa99oz)" style="stroke: #A80036; stroke-width: 1.0;"/><path d="M278,48.5 L278,58.5 L288,58.5 L278,48.5 " fill="#FBFB77" style="stroke: #A80036; stroke-width: 1.0;"/><text fill="#000000" font-family="sans-serif" font-size="13" lengthAdjust="spacingAndGlyphs" textLength="100" x="12" y="66.9951">public void play(){</text><text fill="#000000" font-family="sans-serif" font-size="13" lengthAdjust="spacingAndGlyphs" textLength="253" x="20" y="83.3467">controllers.get(session.getValue()).control();</text><text fill="#000000" font-family="sans-serif" font-size="13" lengthAdjust="spacingAndGlyphs" textLength="4" x="12" y="99.6982">}</text><!--class Session--><rect fill="#FEFECE" filter="url(#flsqkfepa99oz)" height="48" id="Session" style="stroke: #A80036; stroke-width: 1.5;" width="78" x="323" y="182.5"/><ellipse cx="338" cy="198.5" fill="#ADD1B2" rx="11" ry="11" style="stroke: #A80036; stroke-width: 1.0;"/><path d="M340.7656,194.375 Q340.9219,194.1563 341.1094,194.0469 Q341.2969,193.9375 341.5156,193.9375 Q341.8906,193.9375 342.125,194.1953 Q342.3594,194.4531 342.3594,195.0625 L342.3594,196.5156 Q342.3594,197.125 342.125,197.3906 Q341.8906,197.6563 341.5156,197.6563 Q341.1719,197.6563 340.9688,197.4531 Q340.7656,197.2656 340.6563,196.75 Q340.6094,196.3906 340.4219,196.2031 Q340.0938,195.8281 339.4844,195.6094 Q338.875,195.3906 338.25,195.3906 Q337.4844,195.3906 336.8516,195.7188 Q336.2188,196.0469 335.7266,196.7969 Q335.2344,197.5469 335.2344,198.5781 L335.2344,199.6719 Q335.2344,200.9063 336.125,201.7266 Q337.0156,202.5469 338.6094,202.5469 Q339.5469,202.5469 340.2031,202.2969 Q340.5938,202.1406 341.0156,201.7031 Q341.2813,201.4375 341.4297,201.3594 Q341.5781,201.2813 341.7813,201.2813 Q342.1094,201.2813 342.3672,201.5391 Q342.625,201.7969 342.625,202.1406 Q342.625,202.4844 342.2813,202.8906 Q341.7813,203.4688 340.9844,203.7969 Q339.9063,204.25 338.6094,204.25 Q337.0938,204.25 335.8906,203.625 Q334.9063,203.125 334.2188,202.0547 Q333.5313,200.9844 333.5313,199.7031 L333.5313,198.5469 Q333.5313,197.2188 334.1484,196.0703 Q334.7656,194.9219 335.8594,194.3047 Q336.9531,193.6875 338.1875,193.6875 Q338.9219,193.6875 339.5703,193.8516 Q340.2188,194.0156 340.7656,194.375 Z "/><text fill="#000000" font-family="sans-serif" font-size="12" lengthAdjust="spacingAndGlyphs" textLength="46" x="352" y="203.4102">Session</text><line style="stroke: #A80036; stroke-width: 1.5;" x1="324" x2="400" y1="214.5" y2="214.5"/><line style="stroke: #A80036; stroke-width: 1.5;" x1="324" x2="400" y1="222.5" y2="222.5"/><!--class StartController--><rect fill="#FEFECE" filter="url(#flsqkfepa99oz)" height="61.8359" id="StartController" style="stroke: #A80036; stroke-width: 1.5;" width="111" x="176.5" y="175.5"/><ellipse cx="191.5" cy="191.5" fill="#ADD1B2" rx="11" ry="11" style="stroke: #A80036; stroke-width: 1.0;"/><path d="M194.2656,187.375 Q194.4219,187.1563 194.6094,187.0469 Q194.7969,186.9375 195.0156,186.9375 Q195.3906,186.9375 195.625,187.1953 Q195.8594,187.4531 195.8594,188.0625 L195.8594,189.5156 Q195.8594,190.125 195.625,190.3906 Q195.3906,190.6563 195.0156,190.6563 Q194.6719,190.6563 194.4688,190.4531 Q194.2656,190.2656 194.1563,189.75 Q194.1094,189.3906 193.9219,189.2031 Q193.5938,188.8281 192.9844,188.6094 Q192.375,188.3906 191.75,188.3906 Q190.9844,188.3906 190.3516,188.7188 Q189.7188,189.0469 189.2266,189.7969 Q188.7344,190.5469 188.7344,191.5781 L188.7344,192.6719 Q188.7344,193.9063 189.625,194.7266 Q190.5156,195.5469 192.1094,195.5469 Q193.0469,195.5469 193.7031,195.2969 Q194.0938,195.1406 194.5156,194.7031 Q194.7813,194.4375 194.9297,194.3594 Q195.0781,194.2813 195.2813,194.2813 Q195.6094,194.2813 195.8672,194.5391 Q196.125,194.7969 196.125,195.1406 Q196.125,195.4844 195.7813,195.8906 Q195.2813,196.4688 194.4844,196.7969 Q193.4063,197.25 192.1094,197.25 Q190.5938,197.25 189.3906,196.625 Q188.4063,196.125 187.7188,195.0547 Q187.0313,193.9844 187.0313,192.7031 L187.0313,191.5469 Q187.0313,190.2188 187.6484,189.0703 Q188.2656,187.9219 189.3594,187.3047 Q190.4531,186.6875 191.6875,186.6875 Q192.4219,186.6875 193.0703,186.8516 Q193.7188,187.0156 194.2656,187.375 Z "/><text fill="#000000" font-family="sans-serif" font-size="12" lengthAdjust="spacingAndGlyphs" textLength="79" x="205.5" y="196.4102">StartController</text><line style="stroke: #A80036; stroke-width: 1.5;" x1="177.5" x2="286.5" y1="207.5" y2="207.5"/><line style="stroke: #A80036; stroke-width: 1.5;" x1="177.5" x2="286.5" y1="215.5" y2="215.5"/><ellipse cx="187.5" cy="226.5" fill="#84BE84" rx="3" ry="3" style="stroke: #038048; stroke-width: 1.0;"/><text fill="#000000" font-family="sans-serif" font-size="11" lengthAdjust="spacingAndGlyphs" textLength="64" x="196.5" y="230.9189">void control()</text><!--class ProposalController--><rect fill="#FEFECE" filter="url(#flsqkfepa99oz)" height="61.8359" id="ProposalController" style="stroke: #A80036; stroke-width: 1.5;" width="136" x="436" y="175.5"/><ellipse cx="451" cy="191.5" fill="#ADD1B2" rx="11" ry="11" style="stroke: #A80036; stroke-width: 1.0;"/><path d="M453.7656,187.375 Q453.9219,187.1563 454.1094,187.0469 Q454.2969,186.9375 454.5156,186.9375 Q454.8906,186.9375 455.125,187.1953 Q455.3594,187.4531 455.3594,188.0625 L455.3594,189.5156 Q455.3594,190.125 455.125,190.3906 Q454.8906,190.6563 454.5156,190.6563 Q454.1719,190.6563 453.9688,190.4531 Q453.7656,190.2656 453.6563,189.75 Q453.6094,189.3906 453.4219,189.2031 Q453.0938,188.8281 452.4844,188.6094 Q451.875,188.3906 451.25,188.3906 Q450.4844,188.3906 449.8516,188.7188 Q449.2188,189.0469 448.7266,189.7969 Q448.2344,190.5469 448.2344,191.5781 L448.2344,192.6719 Q448.2344,193.9063 449.125,194.7266 Q450.0156,195.5469 451.6094,195.5469 Q452.5469,195.5469 453.2031,195.2969 Q453.5938,195.1406 454.0156,194.7031 Q454.2813,194.4375 454.4297,194.3594 Q454.5781,194.2813 454.7813,194.2813 Q455.1094,194.2813 455.3672,194.5391 Q455.625,194.7969 455.625,195.1406 Q455.625,195.4844 455.2813,195.8906 Q454.7813,196.4688 453.9844,196.7969 Q452.9063,197.25 451.6094,197.25 Q450.0938,197.25 448.8906,196.625 Q447.9063,196.125 447.2188,195.0547 Q446.5313,193.9844 446.5313,192.7031 L446.5313,191.5469 Q446.5313,190.2188 447.1484,189.0703 Q447.7656,187.9219 448.8594,187.3047 Q449.9531,186.6875 451.1875,186.6875 Q451.9219,186.6875 452.5703,186.8516 Q453.2188,187.0156 453.7656,187.375 Z "/><text fill="#000000" font-family="sans-serif" font-size="12" lengthAdjust="spacingAndGlyphs" textLength="104" x="465" y="196.4102">ProposalController</text><line style="stroke: #A80036; stroke-width: 1.5;" x1="437" x2="571" y1="207.5" y2="207.5"/><line style="stroke: #A80036; stroke-width: 1.5;" x1="437" x2="571" y1="215.5" y2="215.5"/><ellipse cx="447" cy="226.5" fill="#84BE84" rx="3" ry="3" style="stroke: #038048; stroke-width: 1.0;"/><text fill="#000000" font-family="sans-serif" font-size="11" lengthAdjust="spacingAndGlyphs" textLength="64" x="456" y="230.9189">void control()</text><!--class ResumeController--><rect fill="#FEFECE" filter="url(#flsqkfepa99oz)" height="61.8359" id="ResumeController" style="stroke: #A80036; stroke-width: 1.5;" width="134" x="607" y="175.5"/><ellipse cx="622" cy="191.5" fill="#ADD1B2" rx="11" ry="11" style="stroke: #A80036; stroke-width: 1.0;"/><path d="M624.7656,187.375 Q624.9219,187.1563 625.1094,187.0469 Q625.2969,186.9375 625.5156,186.9375 Q625.8906,186.9375 626.125,187.1953 Q626.3594,187.4531 626.3594,188.0625 L626.3594,189.5156 Q626.3594,190.125 626.125,190.3906 Q625.8906,190.6563 625.5156,190.6563 Q625.1719,190.6563 624.9688,190.4531 Q624.7656,190.2656 624.6563,189.75 Q624.6094,189.3906 624.4219,189.2031 Q624.0938,188.8281 623.4844,188.6094 Q622.875,188.3906 622.25,188.3906 Q621.4844,188.3906 620.8516,188.7188 Q620.2188,189.0469 619.7266,189.7969 Q619.2344,190.5469 619.2344,191.5781 L619.2344,192.6719 Q619.2344,193.9063 620.125,194.7266 Q621.0156,195.5469 622.6094,195.5469 Q623.5469,195.5469 624.2031,195.2969 Q624.5938,195.1406 625.0156,194.7031 Q625.2813,194.4375 625.4297,194.3594 Q625.5781,194.2813 625.7813,194.2813 Q626.1094,194.2813 626.3672,194.5391 Q626.625,194.7969 626.625,195.1406 Q626.625,195.4844 626.2813,195.8906 Q625.7813,196.4688 624.9844,196.7969 Q623.9063,197.25 622.6094,197.25 Q621.0938,197.25 619.8906,196.625 Q618.9063,196.125 618.2188,195.0547 Q617.5313,193.9844 617.5313,192.7031 L617.5313,191.5469 Q617.5313,190.2188 618.1484,189.0703 Q618.7656,187.9219 619.8594,187.3047 Q620.9531,186.6875 622.1875,186.6875 Q622.9219,186.6875 623.5703,186.8516 Q624.2188,187.0156 624.7656,187.375 Z "/><text fill="#000000" font-family="sans-serif" font-size="12" lengthAdjust="spacingAndGlyphs" textLength="102" x="636" y="196.4102">ResumeController</text><line style="stroke: #A80036; stroke-width: 1.5;" x1="608" x2="740" y1="207.5" y2="207.5"/><line style="stroke: #A80036; stroke-width: 1.5;" x1="608" x2="740" y1="215.5" y2="215.5"/><ellipse cx="618" cy="226.5" fill="#84BE84" rx="3" ry="3" style="stroke: #038048; stroke-width: 1.0;"/><text fill="#000000" font-family="sans-serif" font-size="11" lengthAdjust="spacingAndGlyphs" textLength="64" x="627" y="230.9189">void control()</text><!--class Controller--><rect fill="#FEFECE" filter="url(#flsqkfepa99oz)" height="61.8359" id="Controller" style="stroke: #A80036; stroke-width: 1.5;" width="91" x="323.5" y="47"/><ellipse cx="340.75" cy="63" fill="#A9DCDF" rx="11" ry="11" style="stroke: #A80036; stroke-width: 1.0;"/><path d="M342.9375,64.7656 L338.7969,64.7656 L338.375,65.7969 L338.7969,65.7969 Q339.4063,65.7969 339.6719,66.0313 Q339.9375,66.2656 339.9375,66.6563 Q339.9375,67.0313 339.6719,67.2656 Q339.4063,67.5 338.7969,67.5 L336.5,67.5 Q335.8906,67.5 335.6328,67.2656 Q335.375,67.0313 335.375,66.6406 Q335.375,66.2656 335.6484,66.0234 Q335.9219,65.7813 336.5469,65.7969 L339.2188,59.1406 L338.1094,59.1406 Q337.5,59.1406 337.2344,58.9063 Q336.9688,58.6719 336.9688,58.2813 Q336.9688,57.9063 337.2344,57.6719 Q337.5,57.4375 338.1094,57.4375 L341.7813,57.4375 L345.1719,65.7969 Q345.7656,65.7969 345.9531,65.9375 Q346.3438,66.2031 346.3438,66.6563 Q346.3438,67.0313 346.0859,67.2656 Q345.8281,67.5 345.2188,67.5 L342.9219,67.5 Q342.3125,67.5 342.0469,67.2656 Q341.7813,67.0313 341.7813,66.6406 Q341.7813,66.2656 342.0469,66.0313 Q342.3125,65.7969 342.9219,65.7969 L343.3438,65.7969 L342.9375,64.7656 Z M342.2188,63.0625 L340.8594,59.6875 L339.4844,63.0625 L342.2188,63.0625 Z "/><text fill="#000000" font-family="sans-serif" font-size="12" font-style="italic" lengthAdjust="spacingAndGlyphs" textLength="54" x="355.25" y="67.9102">Controller</text><line style="stroke: #A80036; stroke-width: 1.5;" x1="324.5" x2="413.5" y1="79" y2="79"/><line style="stroke: #A80036; stroke-width: 1.5;" x1="324.5" x2="413.5" y1="87" y2="87"/><ellipse cx="334.5" cy="98" fill="#84BE84" rx="3" ry="3" style="stroke: #038048; stroke-width: 1.0;"/><text fill="#000000" font-family="sans-serif" font-size="11" font-style="italic" lengthAdjust="spacingAndGlyphs" textLength="65" x="343.5" y="102.4189">void control()</text><!--class State--><rect fill="#FEFECE" filter="url(#flsqkfepa99oz)" height="48" id="State" style="stroke: #A80036; stroke-width: 1.5;" width="60" x="283" y="304"/><ellipse cx="298" cy="320" fill="#ADD1B2" rx="11" ry="11" style="stroke: #A80036; stroke-width: 1.0;"/><path d="M300.7656,315.875 Q300.9219,315.6563 301.1094,315.5469 Q301.2969,315.4375 301.5156,315.4375 Q301.8906,315.4375 302.125,315.6953 Q302.3594,315.9531 302.3594,316.5625 L302.3594,318.0156 Q302.3594,318.625 302.125,318.8906 Q301.8906,319.1563 301.5156,319.1563 Q301.1719,319.1563 300.9688,318.9531 Q300.7656,318.7656 300.6563,318.25 Q300.6094,317.8906 300.4219,317.7031 Q300.0938,317.3281 299.4844,317.1094 Q298.875,316.8906 298.25,316.8906 Q297.4844,316.8906 296.8516,317.2188 Q296.2188,317.5469 295.7266,318.2969 Q295.2344,319.0469 295.2344,320.0781 L295.2344,321.1719 Q295.2344,322.4063 296.125,323.2266 Q297.0156,324.0469 298.6094,324.0469 Q299.5469,324.0469 300.2031,323.7969 Q300.5938,323.6406 301.0156,323.2031 Q301.2813,322.9375 301.4297,322.8594 Q301.5781,322.7813 301.7813,322.7813 Q302.1094,322.7813 302.3672,323.0391 Q302.625,323.2969 302.625,323.6406 Q302.625,323.9844 302.2813,324.3906 Q301.7813,324.9688 300.9844,325.2969 Q299.9063,325.75 298.6094,325.75 Q297.0938,325.75 295.8906,325.125 Q294.9063,324.625 294.2188,323.5547 Q293.5313,322.4844 293.5313,321.2031 L293.5313,320.0469 Q293.5313,318.7188 294.1484,317.5703 Q294.7656,316.4219 295.8594,315.8047 Q296.9531,315.1875 298.1875,315.1875 Q298.9219,315.1875 299.5703,315.3516 Q300.2188,315.5156 300.7656,315.875 Z "/><text fill="#000000" font-family="sans-serif" font-size="12" lengthAdjust="spacingAndGlyphs" textLength="28" x="312" y="324.9102">State</text><line style="stroke: #A80036; stroke-width: 1.5;" x1="284" x2="342" y1="336" y2="336"/><line style="stroke: #A80036; stroke-width: 1.5;" x1="284" x2="342" y1="344" y2="344"/><!--class Game--><rect fill="#FEFECE" filter="url(#flsqkfepa99oz)" height="48" id="Game" style="stroke: #A80036; stroke-width: 1.5;" width="66" x="378" y="304"/><ellipse cx="393" cy="320" fill="#ADD1B2" rx="11" ry="11" style="stroke: #A80036; stroke-width: 1.0;"/><path d="M395.7656,315.875 Q395.9219,315.6563 396.1094,315.5469 Q396.2969,315.4375 396.5156,315.4375 Q396.8906,315.4375 397.125,315.6953 Q397.3594,315.9531 397.3594,316.5625 L397.3594,318.0156 Q397.3594,318.625 397.125,318.8906 Q396.8906,319.1563 396.5156,319.1563 Q396.1719,319.1563 395.9688,318.9531 Q395.7656,318.7656 395.6563,318.25 Q395.6094,317.8906 395.4219,317.7031 Q395.0938,317.3281 394.4844,317.1094 Q393.875,316.8906 393.25,316.8906 Q392.4844,316.8906 391.8516,317.2188 Q391.2188,317.5469 390.7266,318.2969 Q390.2344,319.0469 390.2344,320.0781 L390.2344,321.1719 Q390.2344,322.4063 391.125,323.2266 Q392.0156,324.0469 393.6094,324.0469 Q394.5469,324.0469 395.2031,323.7969 Q395.5938,323.6406 396.0156,323.2031 Q396.2813,322.9375 396.4297,322.8594 Q396.5781,322.7813 396.7813,322.7813 Q397.1094,322.7813 397.3672,323.0391 Q397.625,323.2969 397.625,323.6406 Q397.625,323.9844 397.2813,324.3906 Q396.7813,324.9688 395.9844,325.2969 Q394.9063,325.75 393.6094,325.75 Q392.0938,325.75 390.8906,325.125 Q389.9063,324.625 389.2188,323.5547 Q388.5313,322.4844 388.5313,321.2031 L388.5313,320.0469 Q388.5313,318.7188 389.1484,317.5703 Q389.7656,316.4219 390.8594,315.8047 Q391.9531,315.1875 393.1875,315.1875 Q393.9219,315.1875 394.5703,315.3516 Q395.2188,315.5156 395.7656,315.875 Z "/><text fill="#000000" font-family="sans-serif" font-size="12" lengthAdjust="spacingAndGlyphs" textLength="34" x="407" y="324.9102">Game</text><line style="stroke: #A80036; stroke-width: 1.5;" x1="379" x2="443" y1="336" y2="336"/><line style="stroke: #A80036; stroke-width: 1.5;" x1="379" x2="443" y1="344" y2="344"/><path d="M776.5,169 L776.5,244.4063 L965.5,244.4063 L965.5,179 L955.5,169 L776.5,169 " fill="#FBFB77" filter="url(#flsqkfepa99oz)" style="stroke: #A80036; stroke-width: 1.0;"/><path d="M955.5,169 L955.5,179 L965.5,179 L955.5,169 " fill="#FBFB77" style="stroke: #A80036; stroke-width: 1.0;"/><text fill="#000000" font-family="sans-serif" font-size="13" lengthAdjust="spacingAndGlyphs" textLength="115" x="782.5" y="187.4951">public void control(){</text><text fill="#000000" font-family="sans-serif" font-size="13" lengthAdjust="spacingAndGlyphs" textLength="168" x="782.5" y="203.8467">new GameView().showTitle();</text><text fill="#000000" font-family="sans-serif" font-size="13" lengthAdjust="spacingAndGlyphs" textLength="86" x="782.5" y="220.1982">session.next();</text><text fill="#000000" font-family="sans-serif" font-size="13" lengthAdjust="spacingAndGlyphs" textLength="4" x="782.5" y="236.5498">}</text><!--link GMN3 to Mastermind--><path d="M201.586,48.483 C256.208,22.908 342.274,-6.572 414.5,17 C436.858,24.297 458.199,40.099 473.709,53.791 " fill="none" id="GMN3-Mastermind" style="stroke: #A80036; stroke-width: 1.0; stroke-dasharray: 7.0,7.0;"/><!--link Mastermind to Session--><path d="M464.2691,110.3745 C464.2691,110.3745 416.839,154.492 396.357,173.543 " fill="none" id="Mastermind-Session" style="stroke: #A80036; stroke-width: 1.0;"/><polygon fill="#A80036" points="386.786,182.445,396.1004,179.2446,390.4472,179.0398,390.652,173.3867,386.786,182.445" style="stroke: #A80036; stroke-width: 1.0;"/><line style="stroke: #A80036; stroke-width: 1.0;" x1="390.4472" x2="396.305" y1="179.0398" y2="173.591"/><polygon fill="#A80036" points="473.056,102.202,465.9384,103.3593,464.2691,110.3745,471.3867,109.2172,473.056,102.202" style="stroke: #A80036; stroke-width: 1.0;"/><!--link Mastermind to StartController--><path d="M438.5442,106.2173 C438.5442,106.2173 349.158,147.669 305,169 C303.158,169.89 301.291,170.795 299.409,171.712 " fill="none" id="Mastermind-StartController" style="stroke: #A80036; stroke-width: 1.0;"/><polygon fill="#A80036" points="287.722,177.443,297.5639,177.0727,292.2115,175.2419,294.0422,169.8895,287.722,177.443" style="stroke: #A80036; stroke-width: 1.0;"/><line style="stroke: #A80036; stroke-width: 1.0;" x1="292.2115" x2="299.394" y1="175.2419" y2="171.7195"/><polygon fill="#A80036" points="449.444,101.198,442.321,100.0744,438.5442,106.2173,445.6672,107.3409,449.444,101.198" style="stroke: #A80036; stroke-width: 1.0;"/><!--link Mastermind to ProposalController--><path d="M499.6684,114.1885 C499.6684,114.1885 501.21,146.667 501.932,161.89 " fill="none" id="Mastermind-ProposalController" style="stroke: #A80036; stroke-width: 1.0;"/><polygon fill="#A80036" points="502.567,175.28,506.1352,166.1003,502.3296,170.2856,498.1443,166.48,502.567,175.28" style="stroke: #A80036; stroke-width: 1.0;"/><line style="stroke: #A80036; stroke-width: 1.0;" x1="502.3296" x2="501.951" y1="170.2856" y2="162.295"/><polygon fill="#A80036" points="499.1,102.202,495.3887,108.3847,499.6684,114.1885,503.3797,108.0058,499.1,102.202" style="stroke: #A80036; stroke-width: 1.0;"/><!--link Mastermind to ResumeController--><path d="M540.0251,109.2058 C540.0251,109.2058 595.575,149.132 621.27,167.6 " fill="none" id="Mastermind-ResumeController" style="stroke: #A80036; stroke-width: 1.0;"/><polygon fill="#A80036" points="631.955,175.28,626.9815,166.7791,627.895,172.3618,622.3123,173.2752,631.955,175.28" style="stroke: #A80036; stroke-width: 1.0;"/><line style="stroke: #A80036; stroke-width: 1.0;" x1="627.895" x2="621.3995" y1="172.3618" y2="167.6935"/><polygon fill="#A80036" points="530.281,102.202,532.8185,108.9519,540.0251,109.2058,537.4876,102.4559,530.281,102.202" style="stroke: #A80036; stroke-width: 1.0;"/><!--link Controller to Session--><path d="M367.323,109.3 C366.187,129.832 364.695,156.791 363.58,176.944 " fill="none" id="Controller-&gt;Session" style="stroke: #A80036; stroke-width: 1.0;"/><polygon fill="#A80036" points="363.291,182.175,367.7813,173.4093,363.5668,177.1826,359.7935,172.9681,363.291,182.175" style="stroke: #A80036; stroke-width: 1.0;"/><!--reverse link Controller to StartController--><path d="M321.42,122.933 C302.638,140.276 281.534,159.762 264.547,175.447 " fill="none" id="Controller&lt;-StartController" style="stroke: #A80036; stroke-width: 1.0;"/><polygon fill="none" points="316.742,117.725,336.185,109.3,326.24,128.011,316.742,117.725" style="stroke: #A80036; stroke-width: 1.0;"/><!--reverse link Controller to ProposalController--><path d="M416.162,123.192 C434.6,140.47 455.272,159.84 471.928,175.447 " fill="none" id="Controller&lt;-ProposalController" style="stroke: #A80036; stroke-width: 1.0;"/><polygon fill="none" points="411.144,128.083,401.336,109.3,420.716,117.867,411.144,128.083" style="stroke: #A80036; stroke-width: 1.0;"/><!--reverse link Controller to ResumeController--><path d="M433.217,109.167 C504.316,138.99 525.723,142.848 590,169 C595.449,171.217 601.078,173.556 606.721,175.935 " fill="none" id="Controller&lt;-ResumeController" style="stroke: #A80036; stroke-width: 1.0;"/><polygon fill="none" points="430.23,115.503,414.565,101.234,435.709,102.62,430.23,115.503" style="stroke: #A80036; stroke-width: 1.0;"/><!--link Session to State--><path d="M348,241.6441 C348,241.6441 333.901,276.0265 327.591,291.4147 " fill="none" id="Session-State" style="stroke: #A80036; stroke-width: 1.0;"/><polygon fill="#A80036" points="322.586,303.6222,329.7013,296.8125,324.4829,298.996,322.2994,293.7775,322.586,303.6222" style="stroke: #A80036; stroke-width: 1.0;"/><line style="stroke: #A80036; stroke-width: 1.0;" x1="324.4829" x2="327.518" y1="298.996" y2="291.5941"/><polygon fill="#A80036" points="352.552,230.541,346.575,234.5752,348,241.6441,353.977,237.6099,352.552,230.541" style="stroke: #A80036; stroke-width: 1.0;"/><!--link Session to Game--><path d="M376,241.6441 C376,241.6441 390.099,276.0265 396.409,291.4147 " fill="none" id="Session-Game" style="stroke: #A80036; stroke-width: 1.0;"/><polygon fill="#A80036" points="401.414,303.6222,401.7006,293.7775,399.5171,298.996,394.2987,296.8125,401.414,303.6222" style="stroke: #A80036; stroke-width: 1.0;"/><line style="stroke: #A80036; stroke-width: 1.0;" x1="399.5171" x2="396.482" y1="298.996" y2="291.5941"/><polygon fill="#A80036" points="371.448,230.541,370.023,237.6099,376,241.6441,377.425,234.5752,371.448,230.541" style="stroke: #A80036; stroke-width: 1.0;"/><!--link StartController to GMN23--><path d="M263.405,175.154 C279.605,161.195 300.548,146.285 322.5,139 C410.872,109.673 651.063,116.845 741.5,139 C766.372,145.093 791.775,156.885 813.42,168.931 " fill="none" id="StartController-GMN23" style="stroke: #A80036; stroke-width: 1.0; stroke-dasharray: 7.0,7.0;"/><!--
@startuml
class Mastermind
note left
public void play(){
  controllers.get(session.getValue()).control();
}
end note
Mastermind *-down-> Session
Mastermind *-down-> StartController
Mastermind *-down-> ProposalController
Mastermind *-down-> ResumeController


abstract class Controller{
+{abstract} void control()
}
Controller - -> Session
Controller <|-down- StartController
Controller <|-down- ProposalController
Controller <|-down- ResumeController

class Session
Session *-down-> State
Session *-down-> Game

class StartController {
+void control()
}
note right 
public void control(){
new GameView().showTitle();
session.next();
}
end note

class ProposalController {
+void control()
}

class ResumeController {
+void control()
}

@enduml

PlantUML version 1.2019.09(Mon Aug 26 18:19:51 CEST 2019)
(GPL source distribution)
Java Runtime: OpenJDK Runtime Environment
JVM: OpenJDK 64-Bit Server VM
Java Version: 1.8.0_222-b10
Operating System: Windows 10
OS Version: 10.0
Default Encoding: Cp1252
Language: es
Country: ES
--></g></svg>