<?xml version="1.0" encoding="UTF-8" standalone="no"?><svg xmlns="http://www.w3.org/2000/svg" xmlns:xlink="http://www.w3.org/1999/xlink" contentScriptType="application/ecmascript" contentStyleType="text/css" height="914px" preserveAspectRatio="none" style="width:652px;height:914px;" version="1.1" viewBox="0 0 652 914" width="652px" zoomAndPan="magnify"><defs><filter height="300%" id="f3za2l494j8ho" width="300%" x="-1" y="-1"><feGaussianBlur result="blurOut" stdDeviation="2.0"/><feColorMatrix in="blurOut" result="blurOut2" type="matrix" values="0 0 0 0 0 0 0 0 0 0 0 0 0 0 0 0 0 0 .4 0"/><feOffset dx="4.0" dy="4.0" in="blurOut2" result="blurOut3"/><feBlend in="SourceGraphic" in2="blurOut3" mode="normal"/></filter></defs><g><!--class Mastermind--><rect fill="#FEFECE" filter="url(#f3za2l494j8ho)" height="89.5078" id="Mastermind" style="stroke: #A80036; stroke-width: 1.5;" width="97" x="106" y="8"/><ellipse cx="121" cy="24" fill="#ADD1B2" rx="11" ry="11" style="stroke: #A80036; stroke-width: 1.0;"/><path d="M123.7656,19.875 Q123.9219,19.6563 124.1094,19.5469 Q124.2969,19.4375 124.5156,19.4375 Q124.8906,19.4375 125.125,19.6953 Q125.3594,19.9531 125.3594,20.5625 L125.3594,22.0156 Q125.3594,22.625 125.125,22.8906 Q124.8906,23.1563 124.5156,23.1563 Q124.1719,23.1563 123.9688,22.9531 Q123.7656,22.7656 123.6563,22.25 Q123.6094,21.8906 123.4219,21.7031 Q123.0938,21.3281 122.4844,21.1094 Q121.875,20.8906 121.25,20.8906 Q120.4844,20.8906 119.8516,21.2188 Q119.2188,21.5469 118.7266,22.2969 Q118.2344,23.0469 118.2344,24.0781 L118.2344,25.1719 Q118.2344,26.4063 119.125,27.2266 Q120.0156,28.0469 121.6094,28.0469 Q122.5469,28.0469 123.2031,27.7969 Q123.5938,27.6406 124.0156,27.2031 Q124.2813,26.9375 124.4297,26.8594 Q124.5781,26.7813 124.7813,26.7813 Q125.1094,26.7813 125.3672,27.0391 Q125.625,27.2969 125.625,27.6406 Q125.625,27.9844 125.2813,28.3906 Q124.7813,28.9688 123.9844,29.2969 Q122.9063,29.75 121.6094,29.75 Q120.0938,29.75 118.8906,29.125 Q117.9063,28.625 117.2188,27.5547 Q116.5313,26.4844 116.5313,25.2031 L116.5313,24.0469 Q116.5313,22.7188 117.1484,21.5703 Q117.7656,20.4219 118.8594,19.8047 Q119.9531,19.1875 121.1875,19.1875 Q121.9219,19.1875 122.5703,19.3516 Q123.2188,19.5156 123.7656,19.875 Z "/><text fill="#000000" font-family="sans-serif" font-size="12" lengthAdjust="spacingAndGlyphs" textLength="65" x="135" y="28.9102">Mastermind</text><line style="stroke: #A80036; stroke-width: 1.5;" x1="107" x2="202" y1="40" y2="40"/><rect fill="none" height="6" style="stroke: #C82930; stroke-width: 1.0;" width="6" x="114" y="48"/><text fill="#000000" font-family="sans-serif" font-size="11" lengthAdjust="spacingAndGlyphs" textLength="62" x="126" y="55.4189">codeBreaker</text><rect fill="none" height="6" style="stroke: #C82930; stroke-width: 1.0;" width="6" x="114" y="61.8359"/><text fill="#000000" font-family="sans-serif" font-size="11" lengthAdjust="spacingAndGlyphs" textLength="53" x="126" y="69.2549">codeMaker</text><line style="stroke: #A80036; stroke-width: 1.5;" x1="107" x2="202" y1="75.6719" y2="75.6719"/><ellipse cx="117" cy="86.6719" fill="#84BE84" rx="3" ry="3" style="stroke: #038048; stroke-width: 1.0;"/><text fill="#000000" font-family="sans-serif" font-size="11" lengthAdjust="spacingAndGlyphs" textLength="28" x="126" y="91.0908">play()</text><!--class CodeMaker--><rect fill="#FEFECE" filter="url(#f3za2l494j8ho)" height="103.3438" id="CodeMaker" style="stroke: #A80036; stroke-width: 1.5;" width="151" x="144" y="165"/><ellipse cx="184.2" cy="181" fill="#ADD1B2" rx="11" ry="11" style="stroke: #A80036; stroke-width: 1.0;"/><path d="M186.9656,176.875 Q187.1219,176.6563 187.3094,176.5469 Q187.4969,176.4375 187.7156,176.4375 Q188.0906,176.4375 188.325,176.6953 Q188.5594,176.9531 188.5594,177.5625 L188.5594,179.0156 Q188.5594,179.625 188.325,179.8906 Q188.0906,180.1563 187.7156,180.1563 Q187.3719,180.1563 187.1688,179.9531 Q186.9656,179.7656 186.8563,179.25 Q186.8094,178.8906 186.6219,178.7031 Q186.2938,178.3281 185.6844,178.1094 Q185.075,177.8906 184.45,177.8906 Q183.6844,177.8906 183.0516,178.2188 Q182.4188,178.5469 181.9266,179.2969 Q181.4344,180.0469 181.4344,181.0781 L181.4344,182.1719 Q181.4344,183.4063 182.325,184.2266 Q183.2156,185.0469 184.8094,185.0469 Q185.7469,185.0469 186.4031,184.7969 Q186.7938,184.6406 187.2156,184.2031 Q187.4813,183.9375 187.6297,183.8594 Q187.7781,183.7813 187.9813,183.7813 Q188.3094,183.7813 188.5672,184.0391 Q188.825,184.2969 188.825,184.6406 Q188.825,184.9844 188.4813,185.3906 Q187.9813,185.9688 187.1844,186.2969 Q186.1063,186.75 184.8094,186.75 Q183.2938,186.75 182.0906,186.125 Q181.1063,185.625 180.4188,184.5547 Q179.7313,183.4844 179.7313,182.2031 L179.7313,181.0469 Q179.7313,179.7188 180.3484,178.5703 Q180.9656,177.4219 182.0594,176.8047 Q183.1531,176.1875 184.3875,176.1875 Q185.1219,176.1875 185.7703,176.3516 Q186.4188,176.5156 186.9656,176.875 Z "/><text fill="#000000" font-family="sans-serif" font-size="12" lengthAdjust="spacingAndGlyphs" textLength="63" x="203.8" y="185.9102">CodeMaker</text><line style="stroke: #A80036; stroke-width: 1.5;" x1="145" x2="294" y1="197" y2="197"/><line style="stroke: #A80036; stroke-width: 1.5;" x1="145" x2="294" y1="205" y2="205"/><ellipse cx="155" cy="216" fill="#84BE84" rx="3" ry="3" style="stroke: #038048; stroke-width: 1.0;"/><text fill="#000000" font-family="sans-serif" font-size="11" lengthAdjust="spacingAndGlyphs" textLength="125" x="164" y="220.4189">CodeMaker(CodeBreaker)</text><ellipse cx="155" cy="229.8359" fill="#84BE84" rx="3" ry="3" style="stroke: #038048; stroke-width: 1.0;"/><text fill="#000000" font-family="sans-serif" font-size="11" lengthAdjust="spacingAndGlyphs" textLength="46" x="164" y="234.2549">prepare()</text><ellipse cx="155" cy="243.6719" fill="#84BE84" rx="3" ry="3" style="stroke: #038048; stroke-width: 1.0;"/><text fill="#000000" font-family="sans-serif" font-size="11" lengthAdjust="spacingAndGlyphs" textLength="46" x="164" y="248.0908">answer()</text><ellipse cx="155" cy="257.5078" fill="#84BE84" rx="3" ry="3" style="stroke: #038048; stroke-width: 1.0;"/><text fill="#000000" font-family="sans-serif" font-size="11" lengthAdjust="spacingAndGlyphs" textLength="33" x="164" y="261.9268">write()</text><!--class CodeBreaker--><rect fill="#FEFECE" filter="url(#f3za2l494j8ho)" height="200.1953" id="CodeBreaker" style="stroke: #A80036; stroke-width: 1.5;" width="169" x="6" y="335"/><ellipse cx="49.8" cy="351" fill="#ADD1B2" rx="11" ry="11" style="stroke: #A80036; stroke-width: 1.0;"/><path d="M52.5656,346.875 Q52.7219,346.6563 52.9094,346.5469 Q53.0969,346.4375 53.3156,346.4375 Q53.6906,346.4375 53.925,346.6953 Q54.1594,346.9531 54.1594,347.5625 L54.1594,349.0156 Q54.1594,349.625 53.925,349.8906 Q53.6906,350.1563 53.3156,350.1563 Q52.9719,350.1563 52.7688,349.9531 Q52.5656,349.7656 52.4563,349.25 Q52.4094,348.8906 52.2219,348.7031 Q51.8938,348.3281 51.2844,348.1094 Q50.675,347.8906 50.05,347.8906 Q49.2844,347.8906 48.6516,348.2188 Q48.0188,348.5469 47.5266,349.2969 Q47.0344,350.0469 47.0344,351.0781 L47.0344,352.1719 Q47.0344,353.4063 47.925,354.2266 Q48.8156,355.0469 50.4094,355.0469 Q51.3469,355.0469 52.0031,354.7969 Q52.3938,354.6406 52.8156,354.2031 Q53.0813,353.9375 53.2297,353.8594 Q53.3781,353.7813 53.5813,353.7813 Q53.9094,353.7813 54.1672,354.0391 Q54.425,354.2969 54.425,354.6406 Q54.425,354.9844 54.0813,355.3906 Q53.5813,355.9688 52.7844,356.2969 Q51.7063,356.75 50.4094,356.75 Q48.8938,356.75 47.6906,356.125 Q46.7063,355.625 46.0188,354.5547 Q45.3313,353.4844 45.3313,352.2031 L45.3313,351.0469 Q45.3313,349.7188 45.9484,348.5703 Q46.5656,347.4219 47.6594,346.8047 Q48.7531,346.1875 49.9875,346.1875 Q50.7219,346.1875 51.3703,346.3516 Q52.0188,346.5156 52.5656,346.875 Z "/><text fill="#000000" font-family="sans-serif" font-size="12" lengthAdjust="spacingAndGlyphs" textLength="73" x="70.2" y="355.9102">CodeBreaker</text><line style="stroke: #A80036; stroke-width: 1.5;" x1="7" x2="174" y1="367" y2="367"/><rect fill="none" height="6" style="stroke: #C82930; stroke-width: 1.0;" width="6" x="14" y="375"/><text fill="#000000" font-family="sans-serif" font-size="11" lengthAdjust="spacingAndGlyphs" text-decoration="underline" textLength="82" x="26" y="382.4189">MAX_ATTEMPTS</text><rect fill="none" height="6" style="stroke: #C82930; stroke-width: 1.0;" width="6" x="14" y="388.8359"/><text fill="#000000" font-family="sans-serif" font-size="11" lengthAdjust="spacingAndGlyphs" textLength="41" x="26" y="396.2549">attempts</text><rect fill="none" height="6" style="stroke: #C82930; stroke-width: 1.0;" width="6" x="14" y="402.6719"/><text fill="#000000" font-family="sans-serif" font-size="11" lengthAdjust="spacingAndGlyphs" textLength="91" x="26" y="410.0908">numberOfAttempts</text><line style="stroke: #A80036; stroke-width: 1.5;" x1="7" x2="174" y1="416.5078" y2="416.5078"/><ellipse cx="17" cy="427.5078" fill="#84BE84" rx="3" ry="3" style="stroke: #038048; stroke-width: 1.0;"/><text fill="#000000" font-family="sans-serif" font-size="11" lengthAdjust="spacingAndGlyphs" textLength="30" x="26" y="431.9268">start()</text><ellipse cx="17" cy="441.3438" fill="#84BE84" rx="3" ry="3" style="stroke: #038048; stroke-width: 1.0;"/><text fill="#000000" font-family="sans-serif" font-size="11" lengthAdjust="spacingAndGlyphs" textLength="48" x="26" y="445.7627">propose()</text><ellipse cx="17" cy="455.1797" fill="#84BE84" rx="3" ry="3" style="stroke: #038048; stroke-width: 1.0;"/><text fill="#000000" font-family="sans-serif" font-size="11" lengthAdjust="spacingAndGlyphs" textLength="107" x="26" y="459.5986">getLastCodeBreaker()</text><ellipse cx="17" cy="469.0156" fill="#84BE84" rx="3" ry="3" style="stroke: #038048; stroke-width: 1.0;"/><text fill="#000000" font-family="sans-serif" font-size="11" lengthAdjust="spacingAndGlyphs" textLength="73" x="26" y="473.4346">writeAttemps()</text><ellipse cx="17" cy="482.8516" fill="#84BE84" rx="3" ry="3" style="stroke: #038048; stroke-width: 1.0;"/><text fill="#000000" font-family="sans-serif" font-size="11" lengthAdjust="spacingAndGlyphs" textLength="143" x="26" y="487.2705">writeProposedCombinations()</text><ellipse cx="17" cy="496.6875" fill="#84BE84" rx="3" ry="3" style="stroke: #038048; stroke-width: 1.0;"/><text fill="#000000" font-family="sans-serif" font-size="11" lengthAdjust="spacingAndGlyphs" textLength="50" x="26" y="501.1064">isWinner()</text><ellipse cx="17" cy="510.5234" fill="#84BE84" rx="3" ry="3" style="stroke: #038048; stroke-width: 1.0;"/><text fill="#000000" font-family="sans-serif" font-size="11" lengthAdjust="spacingAndGlyphs" textLength="50" x="26" y="514.9424">isLooser()</text><ellipse cx="17" cy="524.3594" fill="#84BE84" rx="3" ry="3" style="stroke: #038048; stroke-width: 1.0;"/><text fill="#000000" font-family="sans-serif" font-size="11" lengthAdjust="spacingAndGlyphs" textLength="61" x="26" y="528.7783">isResumed()</text><!--class Combination--><rect fill="#FEFECE" filter="url(#f3za2l494j8ho)" height="117.1797" id="Combination" style="stroke: #A80036; stroke-width: 1.5;" width="142" x="403.5" y="158"/><ellipse cx="436.05" cy="174" fill="#ADD1B2" rx="11" ry="11" style="stroke: #A80036; stroke-width: 1.0;"/><path d="M438.8156,169.875 Q438.9719,169.6563 439.1594,169.5469 Q439.3469,169.4375 439.5656,169.4375 Q439.9406,169.4375 440.175,169.6953 Q440.4094,169.9531 440.4094,170.5625 L440.4094,172.0156 Q440.4094,172.625 440.175,172.8906 Q439.9406,173.1563 439.5656,173.1563 Q439.2219,173.1563 439.0188,172.9531 Q438.8156,172.7656 438.7063,172.25 Q438.6594,171.8906 438.4719,171.7031 Q438.1438,171.3281 437.5344,171.1094 Q436.925,170.8906 436.3,170.8906 Q435.5344,170.8906 434.9016,171.2188 Q434.2688,171.5469 433.7766,172.2969 Q433.2844,173.0469 433.2844,174.0781 L433.2844,175.1719 Q433.2844,176.4063 434.175,177.2266 Q435.0656,178.0469 436.6594,178.0469 Q437.5969,178.0469 438.2531,177.7969 Q438.6438,177.6406 439.0656,177.2031 Q439.3313,176.9375 439.4797,176.8594 Q439.6281,176.7813 439.8313,176.7813 Q440.1594,176.7813 440.4172,177.0391 Q440.675,177.2969 440.675,177.6406 Q440.675,177.9844 440.3313,178.3906 Q439.8313,178.9688 439.0344,179.2969 Q437.9563,179.75 436.6594,179.75 Q435.1438,179.75 433.9406,179.125 Q432.9563,178.625 432.2688,177.5547 Q431.5813,176.4844 431.5813,175.2031 L431.5813,174.0469 Q431.5813,172.7188 432.1984,171.5703 Q432.8156,170.4219 433.9094,169.8047 Q435.0031,169.1875 436.2375,169.1875 Q436.9719,169.1875 437.6203,169.3516 Q438.2688,169.5156 438.8156,169.875 Z "/><text fill="#000000" font-family="sans-serif" font-size="12" lengthAdjust="spacingAndGlyphs" textLength="71" x="453.95" y="178.9102">Combination</text><line style="stroke: #A80036; stroke-width: 1.5;" x1="404.5" x2="544.5" y1="190" y2="190"/><polygon fill="none" points="414.5,196,418.5,200,414.5,204,410.5,200" style="stroke: #B38D22; stroke-width: 1.0;"/><text fill="#000000" font-family="sans-serif" font-size="11" lengthAdjust="spacingAndGlyphs" text-decoration="underline" textLength="22" x="423.5" y="205.4189">SIZE</text><rect fill="none" height="6" style="stroke: #C82930; stroke-width: 1.0;" width="6" x="411.5" y="211.8359"/><text fill="#000000" font-family="sans-serif" font-size="11" lengthAdjust="spacingAndGlyphs" textLength="30" x="423.5" y="219.2549">colors</text><line style="stroke: #A80036; stroke-width: 1.5;" x1="404.5" x2="544.5" y1="225.6719" y2="225.6719"/><polygon fill="#FFFF44" points="414.5,231.6719,418.5,235.6719,414.5,239.6719,410.5,235.6719" style="stroke: #B38D22; stroke-width: 1.0;"/><text fill="#000000" font-family="sans-serif" font-size="11" lengthAdjust="spacingAndGlyphs" textLength="74" x="423.5" y="241.0908">contains(Color)</text><polygon fill="#FFFF44" points="414.5,245.5078,418.5,249.5078,414.5,253.5078,410.5,249.5078" style="stroke: #B38D22; stroke-width: 1.0;"/><text fill="#000000" font-family="sans-serif" font-size="11" lengthAdjust="spacingAndGlyphs" textLength="116" x="423.5" y="254.9268">setColor(position, Color)</text><polygon fill="#FFFF44" points="414.5,259.3438,418.5,263.3438,414.5,267.3438,410.5,263.3438" style="stroke: #B38D22; stroke-width: 1.0;"/><text fill="#000000" font-family="sans-serif" font-size="11" lengthAdjust="spacingAndGlyphs" textLength="54" x="423.5" y="268.7627">getColors()</text><!--class Color--><rect fill="#FEFECE" filter="url(#f3za2l494j8ho)" height="89.5078" id="Color" style="stroke: #A80036; stroke-width: 1.5;" width="113" x="528" y="390"/><ellipse cx="565.95" cy="406" fill="#EB937F" rx="11" ry="11" style="stroke: #A80036; stroke-width: 1.0;"/><path d="M564.8094,406.7969 L564.8094,409.2969 L569.1375,409.2969 L569.1375,408.375 Q569.1375,407.7656 569.3797,407.5 Q569.6219,407.2344 569.9969,407.2344 Q570.3719,407.2344 570.6063,407.5 Q570.8406,407.7656 570.8406,408.375 L570.8406,411 L562.8406,411 Q562.2156,411 561.9578,410.7656 Q561.7,410.5313 561.7,410.1406 Q561.7,409.7656 561.9656,409.5313 Q562.2313,409.2969 562.8406,409.2969 L563.1063,409.2969 L563.1063,402.6406 L562.8406,402.6406 Q562.2156,402.6406 561.9578,402.4063 Q561.7,402.1719 561.7,401.7813 Q561.7,401.4063 561.9578,401.1719 Q562.2156,400.9375 562.8406,400.9375 L570.4656,400.9375 L570.4656,403.5313 Q570.4656,404.1406 570.2391,404.3984 Q570.0125,404.6563 569.6219,404.6563 Q569.2469,404.6563 569.0125,404.3984 Q568.7781,404.1406 568.7781,403.5313 L568.7781,402.6406 L564.8094,402.6406 L564.8094,405.0938 L566.2938,405.0938 Q566.2938,404.4375 566.4188,404.25 Q566.6844,403.8438 567.1531,403.8438 Q567.5281,403.8438 567.7625,404.1016 Q567.9969,404.3594 567.9969,404.9688 L567.9969,406.9375 Q567.9969,407.4844 567.8719,407.6719 Q567.6063,408.0625 567.1531,408.0625 Q566.6844,408.0625 566.4188,407.6563 Q566.2938,407.4688 566.2938,406.7969 L564.8094,406.7969 Z "/><text fill="#000000" font-family="sans-serif" font-size="12" lengthAdjust="spacingAndGlyphs" textLength="30" x="585.05" y="410.9102">Color</text><line style="stroke: #A80036; stroke-width: 1.5;" x1="529" x2="640" y1="422" y2="422"/><line style="stroke: #A80036; stroke-width: 1.5;" x1="529" x2="640" y1="430" y2="430"/><ellipse cx="539" cy="441" fill="#84BE84" rx="3" ry="3" style="stroke: #038048; stroke-width: 1.0;"/><text fill="#000000" font-family="sans-serif" font-size="11" lengthAdjust="spacingAndGlyphs" textLength="33" x="548" y="445.4189">write()</text><ellipse cx="539" cy="454.8359" fill="#84BE84" rx="3" ry="3" style="stroke: #038048; stroke-width: 1.0;"/><text fill="#000000" font-family="sans-serif" font-size="11" lengthAdjust="spacingAndGlyphs" text-decoration="underline" textLength="58" x="548" y="459.2549">fromLetter()</text><ellipse cx="539" cy="468.6719" fill="#84BE84" rx="3" ry="3" style="stroke: #038048; stroke-width: 1.0;"/><text fill="#000000" font-family="sans-serif" font-size="11" lengthAdjust="spacingAndGlyphs" text-decoration="underline" textLength="87" x="548" y="473.0908">getRandomColor()</text><!--class SecretCombination--><rect fill="#FEFECE" filter="url(#f3za2l494j8ho)" height="89.5078" id="SecretCombination" style="stroke: #A80036; stroke-width: 1.5;" width="211" x="210" y="390"/><ellipse cx="258.25" cy="406" fill="#ADD1B2" rx="11" ry="11" style="stroke: #A80036; stroke-width: 1.0;"/><path d="M261.0156,401.875 Q261.1719,401.6563 261.3594,401.5469 Q261.5469,401.4375 261.7656,401.4375 Q262.1406,401.4375 262.375,401.6953 Q262.6094,401.9531 262.6094,402.5625 L262.6094,404.0156 Q262.6094,404.625 262.375,404.8906 Q262.1406,405.1563 261.7656,405.1563 Q261.4219,405.1563 261.2188,404.9531 Q261.0156,404.7656 260.9063,404.25 Q260.8594,403.8906 260.6719,403.7031 Q260.3438,403.3281 259.7344,403.1094 Q259.125,402.8906 258.5,402.8906 Q257.7344,402.8906 257.1016,403.2188 Q256.4688,403.5469 255.9766,404.2969 Q255.4844,405.0469 255.4844,406.0781 L255.4844,407.1719 Q255.4844,408.4063 256.375,409.2266 Q257.2656,410.0469 258.8594,410.0469 Q259.7969,410.0469 260.4531,409.7969 Q260.8438,409.6406 261.2656,409.2031 Q261.5313,408.9375 261.6797,408.8594 Q261.8281,408.7813 262.0313,408.7813 Q262.3594,408.7813 262.6172,409.0391 Q262.875,409.2969 262.875,409.6406 Q262.875,409.9844 262.5313,410.3906 Q262.0313,410.9688 261.2344,411.2969 Q260.1563,411.75 258.8594,411.75 Q257.3438,411.75 256.1406,411.125 Q255.1563,410.625 254.4688,409.5547 Q253.7813,408.4844 253.7813,407.2031 L253.7813,406.0469 Q253.7813,404.7188 254.3984,403.5703 Q255.0156,402.4219 256.1094,401.8047 Q257.2031,401.1875 258.4375,401.1875 Q259.1719,401.1875 259.8203,401.3516 Q260.4688,401.5156 261.0156,401.875 Z "/><text fill="#000000" font-family="sans-serif" font-size="12" lengthAdjust="spacingAndGlyphs" textLength="106" x="278.75" y="410.9102">SecretCombination</text><line style="stroke: #A80036; stroke-width: 1.5;" x1="211" x2="420" y1="422" y2="422"/><line style="stroke: #A80036; stroke-width: 1.5;" x1="211" x2="420" y1="430" y2="430"/><ellipse cx="221" cy="441" fill="#84BE84" rx="3" ry="3" style="stroke: #038048; stroke-width: 1.0;"/><text fill="#000000" font-family="sans-serif" font-size="11" lengthAdjust="spacingAndGlyphs" textLength="151" x="230" y="445.4189">SecretCombination() // aleatorio</text><ellipse cx="221" cy="454.8359" fill="#84BE84" rx="3" ry="3" style="stroke: #038048; stroke-width: 1.0;"/><text fill="#000000" font-family="sans-serif" font-size="11" lengthAdjust="spacingAndGlyphs" textLength="185" x="230" y="459.2549">calculateResult(ProposedCombination)</text><ellipse cx="221" cy="468.6719" fill="#84BE84" rx="3" ry="3" style="stroke: #038048; stroke-width: 1.0;"/><text fill="#000000" font-family="sans-serif" font-size="11" lengthAdjust="spacingAndGlyphs" textLength="33" x="230" y="473.0908">write()</text><!--class ProposedCombination--><rect fill="#FEFECE" filter="url(#f3za2l494j8ho)" height="131.0156" id="ProposedCombination" style="stroke: #A80036; stroke-width: 1.5;" width="157" x="303" y="595"/><ellipse cx="318" cy="611" fill="#ADD1B2" rx="11" ry="11" style="stroke: #A80036; stroke-width: 1.0;"/><path d="M320.7656,606.875 Q320.9219,606.6563 321.1094,606.5469 Q321.2969,606.4375 321.5156,606.4375 Q321.8906,606.4375 322.125,606.6953 Q322.3594,606.9531 322.3594,607.5625 L322.3594,609.0156 Q322.3594,609.625 322.125,609.8906 Q321.8906,610.1563 321.5156,610.1563 Q321.1719,610.1563 320.9688,609.9531 Q320.7656,609.7656 320.6563,609.25 Q320.6094,608.8906 320.4219,608.7031 Q320.0938,608.3281 319.4844,608.1094 Q318.875,607.8906 318.25,607.8906 Q317.4844,607.8906 316.8516,608.2188 Q316.2188,608.5469 315.7266,609.2969 Q315.2344,610.0469 315.2344,611.0781 L315.2344,612.1719 Q315.2344,613.4063 316.125,614.2266 Q317.0156,615.0469 318.6094,615.0469 Q319.5469,615.0469 320.2031,614.7969 Q320.5938,614.6406 321.0156,614.2031 Q321.2813,613.9375 321.4297,613.8594 Q321.5781,613.7813 321.7813,613.7813 Q322.1094,613.7813 322.3672,614.0391 Q322.625,614.2969 322.625,614.6406 Q322.625,614.9844 322.2813,615.3906 Q321.7813,615.9688 320.9844,616.2969 Q319.9063,616.75 318.6094,616.75 Q317.0938,616.75 315.8906,616.125 Q314.9063,615.625 314.2188,614.5547 Q313.5313,613.4844 313.5313,612.2031 L313.5313,611.0469 Q313.5313,609.7188 314.1484,608.5703 Q314.7656,607.4219 315.8594,606.8047 Q316.9531,606.1875 318.1875,606.1875 Q318.9219,606.1875 319.5703,606.3516 Q320.2188,606.5156 320.7656,606.875 Z "/><text fill="#000000" font-family="sans-serif" font-size="12" lengthAdjust="spacingAndGlyphs" textLength="125" x="332" y="615.9102">ProposedCombination</text><line style="stroke: #A80036; stroke-width: 1.5;" x1="304" x2="459" y1="627" y2="627"/><rect fill="none" height="6" style="stroke: #C82930; stroke-width: 1.0;" width="6" x="311" y="635"/><text fill="#000000" font-family="sans-serif" font-size="11" lengthAdjust="spacingAndGlyphs" textLength="27" x="323" y="642.4189">result</text><line style="stroke: #A80036; stroke-width: 1.5;" x1="304" x2="459" y1="648.8359" y2="648.8359"/><ellipse cx="314" cy="659.8359" fill="#84BE84" rx="3" ry="3" style="stroke: #038048; stroke-width: 1.0;"/><text fill="#000000" font-family="sans-serif" font-size="11" lengthAdjust="spacingAndGlyphs" textLength="30" x="323" y="664.2549">read()</text><ellipse cx="314" cy="673.6719" fill="#84BE84" rx="3" ry="3" style="stroke: #038048; stroke-width: 1.0;"/><text fill="#000000" font-family="sans-serif" font-size="11" lengthAdjust="spacingAndGlyphs" textLength="117" x="323" y="678.0908">contains(Color, position)</text><ellipse cx="314" cy="687.5078" fill="#84BE84" rx="3" ry="3" style="stroke: #038048; stroke-width: 1.0;"/><text fill="#000000" font-family="sans-serif" font-size="11" lengthAdjust="spacingAndGlyphs" textLength="53" x="323" y="691.9268">set(Result)</text><ellipse cx="314" cy="701.3438" fill="#84BE84" rx="3" ry="3" style="stroke: #038048; stroke-width: 1.0;"/><text fill="#000000" font-family="sans-serif" font-size="11" lengthAdjust="spacingAndGlyphs" textLength="50" x="323" y="705.7627">isWinner()</text><ellipse cx="314" cy="715.1797" fill="#84BE84" rx="3" ry="3" style="stroke: #038048; stroke-width: 1.0;"/><text fill="#000000" font-family="sans-serif" font-size="11" lengthAdjust="spacingAndGlyphs" textLength="33" x="323" y="719.5986">write()</text><!--class Result--><rect fill="#FEFECE" filter="url(#f3za2l494j8ho)" height="117.1797" id="Result" style="stroke: #A80036; stroke-width: 1.5;" width="76" x="277.5" y="786"/><ellipse cx="296.1" cy="802" fill="#ADD1B2" rx="11" ry="11" style="stroke: #A80036; stroke-width: 1.0;"/><path d="M298.8656,797.875 Q299.0219,797.6563 299.2094,797.5469 Q299.3969,797.4375 299.6156,797.4375 Q299.9906,797.4375 300.225,797.6953 Q300.4594,797.9531 300.4594,798.5625 L300.4594,800.0156 Q300.4594,800.625 300.225,800.8906 Q299.9906,801.1563 299.6156,801.1563 Q299.2719,801.1563 299.0688,800.9531 Q298.8656,800.7656 298.7563,800.25 Q298.7094,799.8906 298.5219,799.7031 Q298.1938,799.3281 297.5844,799.1094 Q296.975,798.8906 296.35,798.8906 Q295.5844,798.8906 294.9516,799.2188 Q294.3188,799.5469 293.8266,800.2969 Q293.3344,801.0469 293.3344,802.0781 L293.3344,803.1719 Q293.3344,804.4063 294.225,805.2266 Q295.1156,806.0469 296.7094,806.0469 Q297.6469,806.0469 298.3031,805.7969 Q298.6938,805.6406 299.1156,805.2031 Q299.3813,804.9375 299.5297,804.8594 Q299.6781,804.7813 299.8813,804.7813 Q300.2094,804.7813 300.4672,805.0391 Q300.725,805.2969 300.725,805.6406 Q300.725,805.9844 300.3813,806.3906 Q299.8813,806.9688 299.0844,807.2969 Q298.0063,807.75 296.7094,807.75 Q295.1938,807.75 293.9906,807.125 Q293.0063,806.625 292.3188,805.5547 Q291.6313,804.4844 291.6313,803.2031 L291.6313,802.0469 Q291.6313,800.7188 292.2484,799.5703 Q292.8656,798.4219 293.9594,797.8047 Q295.0531,797.1875 296.2875,797.1875 Q297.0219,797.1875 297.6703,797.3516 Q298.3188,797.5156 298.8656,797.875 Z "/><text fill="#000000" font-family="sans-serif" font-size="12" lengthAdjust="spacingAndGlyphs" textLength="36" x="310.9" y="806.9102">Result</text><line style="stroke: #A80036; stroke-width: 1.5;" x1="278.5" x2="352.5" y1="818" y2="818"/><rect fill="none" height="6" style="stroke: #C82930; stroke-width: 1.0;" width="6" x="285.5" y="826"/><text fill="#000000" font-family="sans-serif" font-size="11" lengthAdjust="spacingAndGlyphs" textLength="30" x="297.5" y="833.4189">deads</text><rect fill="none" height="6" style="stroke: #C82930; stroke-width: 1.0;" width="6" x="285.5" y="839.8359"/><text fill="#000000" font-family="sans-serif" font-size="11" lengthAdjust="spacingAndGlyphs" textLength="44" x="297.5" y="847.2549">damaged</text><rect fill="none" height="6" style="stroke: #C82930; stroke-width: 1.0;" width="6" x="285.5" y="853.6719"/><text fill="#000000" font-family="sans-serif" font-size="11" lengthAdjust="spacingAndGlyphs" textLength="20" x="297.5" y="861.0908">size</text><line style="stroke: #A80036; stroke-width: 1.5;" x1="278.5" x2="352.5" y1="867.5078" y2="867.5078"/><ellipse cx="288.5" cy="878.5078" fill="#84BE84" rx="3" ry="3" style="stroke: #038048; stroke-width: 1.0;"/><text fill="#000000" font-family="sans-serif" font-size="11" lengthAdjust="spacingAndGlyphs" textLength="33" x="297.5" y="882.9268">write()</text><ellipse cx="288.5" cy="892.3438" fill="#84BE84" rx="3" ry="3" style="stroke: #038048; stroke-width: 1.0;"/><text fill="#000000" font-family="sans-serif" font-size="11" lengthAdjust="spacingAndGlyphs" textLength="50" x="297.5" y="896.7627">isWinner()</text><!--link Mastermind to CodeMaker--><path d="M176.7416,109.2635 C176.7416,109.2635 188.522,138.531 194.099,152.387 " fill="none" id="Mastermind-CodeMaker" style="stroke: #A80036; stroke-width: 1.0;"/><polygon fill="#A80036" points="199.118,164.857,199.4691,155.0144,197.2515,160.2185,192.0474,158.0008,199.118,164.857" style="stroke: #A80036; stroke-width: 1.0;"/><line style="stroke: #A80036; stroke-width: 1.0;" x1="197.2515" x2="194.264" y1="160.2185" y2="152.7975"/><polygon fill="#A80036" points="172.262,98.131,170.791,105.1905,176.7416,109.2635,178.2127,102.204,172.262,98.131" style="stroke: #A80036; stroke-width: 1.0;"/><!--link Mastermind to CodeBreaker--><path d="M138.0167,109.8002 C138.0167,109.8002 129.547,142.681 126.5,158 C115.855,211.518 107.596,271.522 101.6902,321.879 " fill="none" id="Mastermind-CodeBreaker" style="stroke: #A80036; stroke-width: 1.0;"/><polygon fill="#A80036" points="100.2013,334.799,105.2055,326.3162,100.7738,329.8319,97.2581,325.4002,100.2013,334.799" style="stroke: #A80036; stroke-width: 1.0;"/><line style="stroke: #A80036; stroke-width: 1.0;" x1="100.7738" x2="101.6898" y1="329.8319" y2="321.885"/><polygon fill="#A80036" points="141.196,98.229,135.7493,102.9548,138.0167,109.8002,143.4634,105.0743,141.196,98.229" style="stroke: #A80036; stroke-width: 1.0;"/><!--link CodeMaker to CodeBreaker--><path d="M189.255,268.26 C178.155,286.89 165.147,308.72 152.284,330.309 " fill="none" id="CodeMaker-&gt;CodeBreaker" style="stroke: #A80036; stroke-width: 1.0;"/><polygon fill="#A80036" points="149.714,334.622,157.7583,328.9397,152.2743,330.3272,150.8867,324.8432,149.714,334.622" style="stroke: #A80036; stroke-width: 1.0;"/><!--link CodeBreaker to ProposedCombination--><path d="M184.2463,528.204 C184.2463,528.204 190.065,533.045 192.5,535 C223.471,559.865 259.45,584.504 291.655,605.22 " fill="none" id="CodeBreaker-ProposedCombination" style="stroke: #A80036; stroke-width: 1.0;"/><polygon fill="#A80036" points="302.874,612.378,297.438,604.1652,298.6588,609.6888,293.1352,610.9095,302.874,612.378" style="stroke: #A80036; stroke-width: 1.0;"/><line style="stroke: #A80036; stroke-width: 1.0;" x1="298.6588" x2="291.914" y1="609.6888" y2="605.3855"/><polygon fill="#FFFFFF" points="175.128,520.403,177.0868,527.343,184.2463,528.204,182.2875,521.2641,175.128,520.403" style="stroke: #A80036; stroke-width: 1.0;"/><!--link CodeMaker to SecretCombination--><path d="M246.8725,279.2298 C246.8725,279.2298 277.36,347.986 290.61,377.868 " fill="none" id="CodeMaker-SecretCombination" style="stroke: #A80036; stroke-width: 1.0;"/><polygon fill="#A80036" points="295.896,389.789,295.9042,379.9401,293.8691,385.2182,288.591,383.1831,295.896,389.789" style="stroke: #A80036; stroke-width: 1.0;"/><line style="stroke: #A80036; stroke-width: 1.0;" x1="293.8691" x2="290.6265" y1="385.2182" y2="377.9055"/><polygon fill="#FFFFFF" points="242.008,268.26,240.7836,275.3664,246.8725,279.2298,248.0968,272.1234,242.008,268.26" style="stroke: #A80036; stroke-width: 1.0;"/><!--link SecretCombination to ProposedCombination--><path d="M328.539,480.156 C337.742,511.318 350.261,553.713 360.817,589.46 " fill="none" id="SecretCombination-&gt;ProposedCombination" style="stroke: #A80036; stroke-width: 1.0; stroke-dasharray: 7.0,7.0;"/><polygon fill="#A80036" points="362.36,594.683,363.6455,584.9184,360.9431,589.888,355.9735,587.1855,362.36,594.683" style="stroke: #A80036; stroke-width: 1.0;"/><!--link SecretCombination to Result--><path d="M304.859,480.234 C297.791,511.962 289.162,555.843 285.5,595 C280.079,652.969 278.242,668.232 285.5,726 C287.767,744.044 291.92,763.289 296.428,780.87 " fill="none" id="SecretCombination-&gt;Result" style="stroke: #A80036; stroke-width: 1.0; stroke-dasharray: 7.0,7.0;"/><polygon fill="#A80036" points="297.707,785.782,299.3099,776.0644,296.447,780.9434,291.5681,778.0805,297.707,785.782" style="stroke: #A80036; stroke-width: 1.0;"/><!--link Combination to Color--><path d="M509.2696,285.9318 C509.2696,285.9318 541.874,350.104 555.991,377.888 " fill="none" id="Combination-Color" style="stroke: #A80036; stroke-width: 1.0;"/><polygon fill="#A80036" points="562.04,389.794,561.5295,379.9584,559.7752,385.3364,554.3972,383.5821,562.04,389.794" style="stroke: #A80036; stroke-width: 1.0;"/><line style="stroke: #A80036; stroke-width: 1.0;" x1="559.7752" x2="556.1505" y1="385.3364" y2="378.204"/><polygon fill="#A80036" points="503.833,275.234,502.9854,282.3951,509.2696,285.9318,510.1172,278.7707,503.833,275.234" style="stroke: #A80036; stroke-width: 1.0;"/><!--reverse link Combination to SecretCombination--><path d="M420.26,291.356 C396.222,324.086 368.746,361.498 347.966,389.794 " fill="none" id="Combination&lt;-SecretCombination" style="stroke: #A80036; stroke-width: 1.0;"/><polygon fill="none" points="414.619,287.21,432.1,275.234,425.903,295.497,414.619,287.21" style="stroke: #A80036; stroke-width: 1.0;"/><!--reverse link Combination to ProposedCombination--><path d="M472.529,295.058 C469.265,360.156 460.721,455.061 438.5,535 C432.929,555.041 424.508,575.927 415.835,594.738 " fill="none" id="Combination&lt;-ProposedCombination" style="stroke: #A80036; stroke-width: 1.0;"/><polygon fill="none" points="465.538,294.698,473.414,275.027,479.524,295.316,465.538,294.698" style="stroke: #A80036; stroke-width: 1.0;"/><!--link ProposedCombination to Result--><path d="M353.9545,737.4603 C353.9545,737.4603 345.036,762.052 340.919,773.406 " fill="none" id="ProposedCombination-Result" style="stroke: #A80036; stroke-width: 1.0;"/><polygon fill="#A80036" points="336.355,785.99,343.1833,778.8925,338.0594,781.2895,335.6625,776.1655,336.355,785.99" style="stroke: #A80036; stroke-width: 1.0;"/><line style="stroke: #A80036; stroke-width: 1.0;" x1="338.0594" x2="340.7875" y1="781.2895" y2="773.769"/><polygon fill="#FFFFFF" points="358.045,726.179,352.2393,730.4561,353.9545,737.4603,359.7602,733.1832,358.045,726.179" style="stroke: #A80036; stroke-width: 1.0;"/><!--
@startuml
class Mastermind {
    -codeBreaker
    -codeMaker
    +play()
}

class CodeMaker {
    +CodeMaker(CodeBreaker)
    +prepare()
    +answer()
    +write()
}
class CodeBreaker{
    -{static} MAX_ATTEMPTS
    -attempts
    -numberOfAttempts
    +start()
    +propose()
    +getLastCodeBreaker()
    +writeAttemps()
    +writeProposedCombinations()
    +isWinner()
    +isLooser()
    +isResumed()
}

class Combination {
    #{static}SIZE
    -colors
    #contains(Color)
    #setColor(position, Color)
    #getColors()
}

enum Color {
    +write()
    +{static}fromLetter()
    +{static}getRandomColor()
}

class SecretCombination {
    +SecretCombination() // aleatorio
    +calculateResult(ProposedCombination)
    +write()
}

class ProposedCombination {
    -result
    +read()
    +contains(Color, position)
    +set(Result)
    +isWinner()
    +write()
  }

class Result {
    -deads
    -damaged
    -size
    +write()
    +isWinner()
}


Mastermind *- -> CodeMaker
Mastermind *- -> CodeBreaker

CodeMaker - -> CodeBreaker

CodeBreaker o- -> ProposedCombination
CodeMaker o- -> SecretCombination

SecretCombination ..> ProposedCombination
SecretCombination ..> Result
Combination *- -> Color

Combination <|- - SecretCombination
Combination <|- - ProposedCombination

ProposedCombination o- -> Result

@enduml

PlantUML version 1.2019.09(Mon Aug 26 18:19:51 CEST 2019)
(GPL source distribution)
Java Runtime: OpenJDK Runtime Environment
JVM: OpenJDK 64-Bit Server VM
Java Version: 1.8.0_222-b10
Operating System: Windows 10
OS Version: 10.0
Default Encoding: Cp1252
Language: es
Country: ES
--></g></svg>